M48
; DRILL file {KiCad (6.0.7-1)-1} date Sunday, May 14, 2023 at 08:29:48 PM
; FORMAT={-:-/ absolute / metric / decimal}
; #@! TF.CreationDate,2023-05-14T20:29:48-05:00
; #@! TF.GenerationSoftware,Kicad,Pcbnew,(6.0.7-1)-1
; #@! TF.FileFunction,MixedPlating,1,2
FMAT,2
METRIC
; #@! TA.AperFunction,Plated,PTH,ViaDrill
T1C0.300
; #@! TA.AperFunction,Plated,PTH,ViaDrill
T2C0.400
; #@! TA.AperFunction,Plated,PTH,ComponentDrill
T3C0.600
; #@! TA.AperFunction,Plated,PTH,ComponentDrill
T4C0.800
; #@! TA.AperFunction,NonPlated,NPTH,ComponentDrill
T5C0.650
; #@! TA.AperFunction,NonPlated,NPTH,ComponentDrill
T6C2.200
%
G90
G05
T1
X145.263Y-86.083
X145.263Y-93.195
X147.012Y-86.083
X147.916Y-93.195
X148.932Y-91.671
X149.948Y-90.909
X151.139Y-92.703
X151.822Y-92.021
X151.98Y-85.829
X154.52Y-86.591
X154.52Y-88.369
T2
X132.676Y-99.799
X133.438Y-72.875
X133.438Y-74.653
X133.438Y-76.431
X136.244Y-89.424
X136.943Y-71.554
X136.994Y-94.973
X137.654Y-62.918
X138.264Y-71.3
X139.483Y-72.418
X139.483Y-77.904
X139.534Y-85.575
X142.074Y-78.971
X142.683Y-73.84
X143.039Y-102.694
X143.801Y-70.386
X145.884Y-100.307
X146.442Y-75.821
X146.442Y-77.345
X146.789Y-105.888
X147.001Y-72.773
X147.611Y-70.589
X148.728Y-74.297
X149.668Y-70.69
X150.202Y-95.887
X150.202Y-97.767
X151.421Y-72.773
X151.726Y-80.444
X151.878Y-101.323
X153.037Y-104.402
X153.046Y-70.284
X153.605Y-101.983
X155.79Y-113.464
X156.316Y-97.537
X157.314Y-90.858
X157.314Y-91.874
X157.314Y-93.55
X157.314Y-94.566
X158.99Y-63.477
X160.108Y-72.113
X162.698Y-96.852
X162.698Y-102.644
T4
X130.288Y-81.612
X130.288Y-83.612
X130.288Y-85.612
X130.288Y-87.612
T5
X145.728Y-67.243
X151.508Y-67.243
T6
X131.368Y-66.393
X131.368Y-108.393
X166.368Y-66.393
X166.368Y-108.393
T3
G00X144.298Y-63.893
M15
G01X144.298Y-63.293
M16
G05
G00X144.298Y-68.323
M15
G01X144.298Y-67.223
M16
G05
G00X152.938Y-63.893
M15
G01X152.938Y-63.293
M16
G05
G00X152.938Y-68.323
M15
G01X152.938Y-67.223
M16
G05
T0
M30
