%TF.GenerationSoftware,KiCad,Pcbnew,(6.0.7-1)-1*%
%TF.CreationDate,2023-05-14T20:29:57-05:00*%
%TF.ProjectId,ESP32-C3,45535033-322d-4433-932e-6b696361645f,1.0*%
%TF.SameCoordinates,Original*%
%TF.FileFunction,Legend,Top*%
%TF.FilePolarity,Positive*%
%FSLAX46Y46*%
G04 Gerber Fmt 4.6, Leading zero omitted, Abs format (unit mm)*
G04 Created by KiCad (PCBNEW (6.0.7-1)-1) date 2023-05-14 20:29:57*
%MOMM*%
%LPD*%
G01*
G04 APERTURE LIST*
%ADD10C,0.300000*%
%ADD11C,0.250000*%
%ADD12C,0.150000*%
%ADD13C,0.120000*%
G04 APERTURE END LIST*
D10*
X140860557Y-69663657D02*
X140860557Y-69163657D01*
X141646271Y-68949371D02*
X141646271Y-69663657D01*
X140146271Y-69663657D01*
X140146271Y-68949371D01*
X140646271Y-68306514D02*
X141646271Y-68306514D01*
X140789128Y-68306514D02*
X140717700Y-68235085D01*
X140646271Y-68092228D01*
X140646271Y-67877942D01*
X140717700Y-67735085D01*
X140860557Y-67663657D01*
X141646271Y-67663657D01*
X141646271Y-66306514D02*
X140860557Y-66306514D01*
X140717700Y-66377942D01*
X140646271Y-66520800D01*
X140646271Y-66806514D01*
X140717700Y-66949371D01*
X141574842Y-66306514D02*
X141646271Y-66449371D01*
X141646271Y-66806514D01*
X141574842Y-66949371D01*
X141431985Y-67020800D01*
X141289128Y-67020800D01*
X141146271Y-66949371D01*
X141074842Y-66806514D01*
X141074842Y-66449371D01*
X141003414Y-66306514D01*
X141646271Y-65592228D02*
X140146271Y-65592228D01*
X140717700Y-65592228D02*
X140646271Y-65449371D01*
X140646271Y-65163657D01*
X140717700Y-65020800D01*
X140789128Y-64949371D01*
X140931985Y-64877942D01*
X141360557Y-64877942D01*
X141503414Y-64949371D01*
X141574842Y-65020800D01*
X141646271Y-65163657D01*
X141646271Y-65449371D01*
X141574842Y-65592228D01*
X141646271Y-64020800D02*
X141574842Y-64163657D01*
X141431985Y-64235085D01*
X140146271Y-64235085D01*
X141574842Y-62877942D02*
X141646271Y-63020800D01*
X141646271Y-63306514D01*
X141574842Y-63449371D01*
X141431985Y-63520800D01*
X140860557Y-63520800D01*
X140717700Y-63449371D01*
X140646271Y-63306514D01*
X140646271Y-63020800D01*
X140717700Y-62877942D01*
X140860557Y-62806514D01*
X141003414Y-62806514D01*
X141146271Y-63520800D01*
X162032457Y-68304971D02*
X162103885Y-68090685D01*
X162175314Y-68019257D01*
X162318171Y-67947828D01*
X162532457Y-67947828D01*
X162675314Y-68019257D01*
X162746742Y-68090685D01*
X162818171Y-68233542D01*
X162818171Y-68804971D01*
X161318171Y-68804971D01*
X161318171Y-68304971D01*
X161389600Y-68162114D01*
X161461028Y-68090685D01*
X161603885Y-68019257D01*
X161746742Y-68019257D01*
X161889600Y-68090685D01*
X161961028Y-68162114D01*
X162032457Y-68304971D01*
X162032457Y-68804971D01*
X162818171Y-67090685D02*
X162746742Y-67233542D01*
X162675314Y-67304971D01*
X162532457Y-67376400D01*
X162103885Y-67376400D01*
X161961028Y-67304971D01*
X161889600Y-67233542D01*
X161818171Y-67090685D01*
X161818171Y-66876400D01*
X161889600Y-66733542D01*
X161961028Y-66662114D01*
X162103885Y-66590685D01*
X162532457Y-66590685D01*
X162675314Y-66662114D01*
X162746742Y-66733542D01*
X162818171Y-66876400D01*
X162818171Y-67090685D01*
X162818171Y-65733542D02*
X162746742Y-65876400D01*
X162675314Y-65947828D01*
X162532457Y-66019257D01*
X162103885Y-66019257D01*
X161961028Y-65947828D01*
X161889600Y-65876400D01*
X161818171Y-65733542D01*
X161818171Y-65519257D01*
X161889600Y-65376400D01*
X161961028Y-65304971D01*
X162103885Y-65233542D01*
X162532457Y-65233542D01*
X162675314Y-65304971D01*
X162746742Y-65376400D01*
X162818171Y-65519257D01*
X162818171Y-65733542D01*
X161818171Y-64804971D02*
X161818171Y-64233542D01*
X161318171Y-64590685D02*
X162603885Y-64590685D01*
X162746742Y-64519257D01*
X162818171Y-64376400D01*
X162818171Y-64233542D01*
D11*
X128278361Y-95867421D02*
X129897409Y-96069802D01*
X130087885Y-95998373D01*
X130183123Y-95915040D01*
X130278361Y-95736469D01*
X130278361Y-95355516D01*
X130183123Y-95153135D01*
X130087885Y-95045992D01*
X129897409Y-94926945D01*
X128278361Y-94724564D01*
X129706933Y-94045992D02*
X129706933Y-93093611D01*
X130278361Y-94307897D02*
X128278361Y-93391230D01*
X130278361Y-92974564D01*
X130278361Y-91165040D02*
X129325980Y-91712659D01*
X130278361Y-92307897D02*
X128278361Y-92057897D01*
X128278361Y-91295992D01*
X128373600Y-91117421D01*
X128468838Y-91034088D01*
X128659314Y-90962659D01*
X128945028Y-90998373D01*
X129135504Y-91117421D01*
X129230742Y-91224564D01*
X129325980Y-91426945D01*
X129325980Y-92188850D01*
X128278361Y-90343611D02*
X128278361Y-89200754D01*
X130278361Y-90022183D02*
X128278361Y-89772183D01*
D12*
%TO.C,C7*%
X134185333Y-70742742D02*
X134137714Y-70790361D01*
X133994857Y-70837980D01*
X133899619Y-70837980D01*
X133756761Y-70790361D01*
X133661523Y-70695123D01*
X133613904Y-70599885D01*
X133566285Y-70409409D01*
X133566285Y-70266552D01*
X133613904Y-70076076D01*
X133661523Y-69980838D01*
X133756761Y-69885600D01*
X133899619Y-69837980D01*
X133994857Y-69837980D01*
X134137714Y-69885600D01*
X134185333Y-69933219D01*
X134518666Y-69837980D02*
X135185333Y-69837980D01*
X134756761Y-70837980D01*
%TO.C,R5*%
X141906933Y-84503180D02*
X141573600Y-84026990D01*
X141335504Y-84503180D02*
X141335504Y-83503180D01*
X141716457Y-83503180D01*
X141811695Y-83550800D01*
X141859314Y-83598419D01*
X141906933Y-83693657D01*
X141906933Y-83836514D01*
X141859314Y-83931752D01*
X141811695Y-83979371D01*
X141716457Y-84026990D01*
X141335504Y-84026990D01*
X142811695Y-83503180D02*
X142335504Y-83503180D01*
X142287885Y-83979371D01*
X142335504Y-83931752D01*
X142430742Y-83884133D01*
X142668838Y-83884133D01*
X142764076Y-83931752D01*
X142811695Y-83979371D01*
X142859314Y-84074609D01*
X142859314Y-84312704D01*
X142811695Y-84407942D01*
X142764076Y-84455561D01*
X142668838Y-84503180D01*
X142430742Y-84503180D01*
X142335504Y-84455561D01*
X142287885Y-84407942D01*
%TO.C,R3*%
X134286933Y-69517180D02*
X133953600Y-69040990D01*
X133715504Y-69517180D02*
X133715504Y-68517180D01*
X134096457Y-68517180D01*
X134191695Y-68564800D01*
X134239314Y-68612419D01*
X134286933Y-68707657D01*
X134286933Y-68850514D01*
X134239314Y-68945752D01*
X134191695Y-68993371D01*
X134096457Y-69040990D01*
X133715504Y-69040990D01*
X134620266Y-68517180D02*
X135239314Y-68517180D01*
X134905980Y-68898133D01*
X135048838Y-68898133D01*
X135144076Y-68945752D01*
X135191695Y-68993371D01*
X135239314Y-69088609D01*
X135239314Y-69326704D01*
X135191695Y-69421942D01*
X135144076Y-69469561D01*
X135048838Y-69517180D01*
X134763123Y-69517180D01*
X134667885Y-69469561D01*
X134620266Y-69421942D01*
%TO.C,C14*%
X158944342Y-91783142D02*
X158896723Y-91830761D01*
X158753866Y-91878380D01*
X158658628Y-91878380D01*
X158515771Y-91830761D01*
X158420533Y-91735523D01*
X158372914Y-91640285D01*
X158325295Y-91449809D01*
X158325295Y-91306952D01*
X158372914Y-91116476D01*
X158420533Y-91021238D01*
X158515771Y-90926000D01*
X158658628Y-90878380D01*
X158753866Y-90878380D01*
X158896723Y-90926000D01*
X158944342Y-90973619D01*
X159896723Y-91878380D02*
X159325295Y-91878380D01*
X159611009Y-91878380D02*
X159611009Y-90878380D01*
X159515771Y-91021238D01*
X159420533Y-91116476D01*
X159325295Y-91164095D01*
X160753866Y-91211714D02*
X160753866Y-91878380D01*
X160515771Y-90830761D02*
X160277676Y-91545047D01*
X160896723Y-91545047D01*
%TO.C,R7*%
X164081733Y-99031980D02*
X163748400Y-98555790D01*
X163510304Y-99031980D02*
X163510304Y-98031980D01*
X163891257Y-98031980D01*
X163986495Y-98079600D01*
X164034114Y-98127219D01*
X164081733Y-98222457D01*
X164081733Y-98365314D01*
X164034114Y-98460552D01*
X163986495Y-98508171D01*
X163891257Y-98555790D01*
X163510304Y-98555790D01*
X164415066Y-98031980D02*
X165081733Y-98031980D01*
X164653161Y-99031980D01*
%TO.C,C9*%
X155521333Y-101222742D02*
X155473714Y-101270361D01*
X155330857Y-101317980D01*
X155235619Y-101317980D01*
X155092761Y-101270361D01*
X154997523Y-101175123D01*
X154949904Y-101079885D01*
X154902285Y-100889409D01*
X154902285Y-100746552D01*
X154949904Y-100556076D01*
X154997523Y-100460838D01*
X155092761Y-100365600D01*
X155235619Y-100317980D01*
X155330857Y-100317980D01*
X155473714Y-100365600D01*
X155521333Y-100413219D01*
X155997523Y-101317980D02*
X156188000Y-101317980D01*
X156283238Y-101270361D01*
X156330857Y-101222742D01*
X156426095Y-101079885D01*
X156473714Y-100889409D01*
X156473714Y-100508457D01*
X156426095Y-100413219D01*
X156378476Y-100365600D01*
X156283238Y-100317980D01*
X156092761Y-100317980D01*
X155997523Y-100365600D01*
X155949904Y-100413219D01*
X155902285Y-100508457D01*
X155902285Y-100746552D01*
X155949904Y-100841790D01*
X155997523Y-100889409D01*
X156092761Y-100937028D01*
X156283238Y-100937028D01*
X156378476Y-100889409D01*
X156426095Y-100841790D01*
X156473714Y-100746552D01*
%TO.C,C15*%
X130000742Y-74501942D02*
X129953123Y-74549561D01*
X129810266Y-74597180D01*
X129715028Y-74597180D01*
X129572171Y-74549561D01*
X129476933Y-74454323D01*
X129429314Y-74359085D01*
X129381695Y-74168609D01*
X129381695Y-74025752D01*
X129429314Y-73835276D01*
X129476933Y-73740038D01*
X129572171Y-73644800D01*
X129715028Y-73597180D01*
X129810266Y-73597180D01*
X129953123Y-73644800D01*
X130000742Y-73692419D01*
X130953123Y-74597180D02*
X130381695Y-74597180D01*
X130667409Y-74597180D02*
X130667409Y-73597180D01*
X130572171Y-73740038D01*
X130476933Y-73835276D01*
X130381695Y-73882895D01*
X131857885Y-73597180D02*
X131381695Y-73597180D01*
X131334076Y-74073371D01*
X131381695Y-74025752D01*
X131476933Y-73978133D01*
X131715028Y-73978133D01*
X131810266Y-74025752D01*
X131857885Y-74073371D01*
X131905504Y-74168609D01*
X131905504Y-74406704D01*
X131857885Y-74501942D01*
X131810266Y-74549561D01*
X131715028Y-74597180D01*
X131476933Y-74597180D01*
X131381695Y-74549561D01*
X131334076Y-74501942D01*
%TO.C,R10*%
X155299142Y-75867180D02*
X154965809Y-75390990D01*
X154727714Y-75867180D02*
X154727714Y-74867180D01*
X155108666Y-74867180D01*
X155203904Y-74914800D01*
X155251523Y-74962419D01*
X155299142Y-75057657D01*
X155299142Y-75200514D01*
X155251523Y-75295752D01*
X155203904Y-75343371D01*
X155108666Y-75390990D01*
X154727714Y-75390990D01*
X156251523Y-75867180D02*
X155680095Y-75867180D01*
X155965809Y-75867180D02*
X155965809Y-74867180D01*
X155870571Y-75010038D01*
X155775333Y-75105276D01*
X155680095Y-75152895D01*
X156870571Y-74867180D02*
X156965809Y-74867180D01*
X157061047Y-74914800D01*
X157108666Y-74962419D01*
X157156285Y-75057657D01*
X157203904Y-75248133D01*
X157203904Y-75486228D01*
X157156285Y-75676704D01*
X157108666Y-75771942D01*
X157061047Y-75819561D01*
X156965809Y-75867180D01*
X156870571Y-75867180D01*
X156775333Y-75819561D01*
X156727714Y-75771942D01*
X156680095Y-75676704D01*
X156632476Y-75486228D01*
X156632476Y-75248133D01*
X156680095Y-75057657D01*
X156727714Y-74962419D01*
X156775333Y-74914800D01*
X156870571Y-74867180D01*
%TO.C,R1*%
X157991333Y-96441180D02*
X157658000Y-95964990D01*
X157419904Y-96441180D02*
X157419904Y-95441180D01*
X157800857Y-95441180D01*
X157896095Y-95488800D01*
X157943714Y-95536419D01*
X157991333Y-95631657D01*
X157991333Y-95774514D01*
X157943714Y-95869752D01*
X157896095Y-95917371D01*
X157800857Y-95964990D01*
X157419904Y-95964990D01*
X158943714Y-96441180D02*
X158372285Y-96441180D01*
X158658000Y-96441180D02*
X158658000Y-95441180D01*
X158562761Y-95584038D01*
X158467523Y-95679276D01*
X158372285Y-95726895D01*
%TO.C,U4*%
X130135695Y-75019580D02*
X130135695Y-75829104D01*
X130183314Y-75924342D01*
X130230933Y-75971961D01*
X130326171Y-76019580D01*
X130516647Y-76019580D01*
X130611885Y-75971961D01*
X130659504Y-75924342D01*
X130707123Y-75829104D01*
X130707123Y-75019580D01*
X131611885Y-75352914D02*
X131611885Y-76019580D01*
X131373790Y-74971961D02*
X131135695Y-75686247D01*
X131754742Y-75686247D01*
%TO.C,L3*%
X140992533Y-73225580D02*
X140516342Y-73225580D01*
X140516342Y-72225580D01*
X141230628Y-72225580D02*
X141849676Y-72225580D01*
X141516342Y-72606533D01*
X141659200Y-72606533D01*
X141754438Y-72654152D01*
X141802057Y-72701771D01*
X141849676Y-72797009D01*
X141849676Y-73035104D01*
X141802057Y-73130342D01*
X141754438Y-73177961D01*
X141659200Y-73225580D01*
X141373485Y-73225580D01*
X141278247Y-73177961D01*
X141230628Y-73130342D01*
%TO.C,C5*%
X143662133Y-99216142D02*
X143614514Y-99263761D01*
X143471657Y-99311380D01*
X143376419Y-99311380D01*
X143233561Y-99263761D01*
X143138323Y-99168523D01*
X143090704Y-99073285D01*
X143043085Y-98882809D01*
X143043085Y-98739952D01*
X143090704Y-98549476D01*
X143138323Y-98454238D01*
X143233561Y-98359000D01*
X143376419Y-98311380D01*
X143471657Y-98311380D01*
X143614514Y-98359000D01*
X143662133Y-98406619D01*
X144566895Y-98311380D02*
X144090704Y-98311380D01*
X144043085Y-98787571D01*
X144090704Y-98739952D01*
X144185942Y-98692333D01*
X144424038Y-98692333D01*
X144519276Y-98739952D01*
X144566895Y-98787571D01*
X144614514Y-98882809D01*
X144614514Y-99120904D01*
X144566895Y-99216142D01*
X144519276Y-99263761D01*
X144424038Y-99311380D01*
X144185942Y-99311380D01*
X144090704Y-99263761D01*
X144043085Y-99216142D01*
D11*
%TO.C,A*%
X157837504Y-100782266D02*
X158313695Y-100782266D01*
X157742266Y-101067980D02*
X158075600Y-100067980D01*
X158408933Y-101067980D01*
D12*
%TO.C,C19*%
X144072342Y-80851942D02*
X144024723Y-80899561D01*
X143881866Y-80947180D01*
X143786628Y-80947180D01*
X143643771Y-80899561D01*
X143548533Y-80804323D01*
X143500914Y-80709085D01*
X143453295Y-80518609D01*
X143453295Y-80375752D01*
X143500914Y-80185276D01*
X143548533Y-80090038D01*
X143643771Y-79994800D01*
X143786628Y-79947180D01*
X143881866Y-79947180D01*
X144024723Y-79994800D01*
X144072342Y-80042419D01*
X145024723Y-80947180D02*
X144453295Y-80947180D01*
X144739009Y-80947180D02*
X144739009Y-79947180D01*
X144643771Y-80090038D01*
X144548533Y-80185276D01*
X144453295Y-80232895D01*
X145500914Y-80947180D02*
X145691390Y-80947180D01*
X145786628Y-80899561D01*
X145834247Y-80851942D01*
X145929485Y-80709085D01*
X145977104Y-80518609D01*
X145977104Y-80137657D01*
X145929485Y-80042419D01*
X145881866Y-79994800D01*
X145786628Y-79947180D01*
X145596152Y-79947180D01*
X145500914Y-79994800D01*
X145453295Y-80042419D01*
X145405676Y-80137657D01*
X145405676Y-80375752D01*
X145453295Y-80470990D01*
X145500914Y-80518609D01*
X145596152Y-80566228D01*
X145786628Y-80566228D01*
X145881866Y-80518609D01*
X145929485Y-80470990D01*
X145977104Y-80375752D01*
%TO.C,R6*%
X164055733Y-101267180D02*
X163722400Y-100790990D01*
X163484304Y-101267180D02*
X163484304Y-100267180D01*
X163865257Y-100267180D01*
X163960495Y-100314800D01*
X164008114Y-100362419D01*
X164055733Y-100457657D01*
X164055733Y-100600514D01*
X164008114Y-100695752D01*
X163960495Y-100743371D01*
X163865257Y-100790990D01*
X163484304Y-100790990D01*
X164912876Y-100267180D02*
X164722400Y-100267180D01*
X164627161Y-100314800D01*
X164579542Y-100362419D01*
X164484304Y-100505276D01*
X164436685Y-100695752D01*
X164436685Y-101076704D01*
X164484304Y-101171942D01*
X164531923Y-101219561D01*
X164627161Y-101267180D01*
X164817638Y-101267180D01*
X164912876Y-101219561D01*
X164960495Y-101171942D01*
X165008114Y-101076704D01*
X165008114Y-100838609D01*
X164960495Y-100743371D01*
X164912876Y-100695752D01*
X164817638Y-100648133D01*
X164627161Y-100648133D01*
X164531923Y-100695752D01*
X164484304Y-100743371D01*
X164436685Y-100838609D01*
%TO.C,C16*%
X134166342Y-72063542D02*
X134118723Y-72111161D01*
X133975866Y-72158780D01*
X133880628Y-72158780D01*
X133737771Y-72111161D01*
X133642533Y-72015923D01*
X133594914Y-71920685D01*
X133547295Y-71730209D01*
X133547295Y-71587352D01*
X133594914Y-71396876D01*
X133642533Y-71301638D01*
X133737771Y-71206400D01*
X133880628Y-71158780D01*
X133975866Y-71158780D01*
X134118723Y-71206400D01*
X134166342Y-71254019D01*
X135118723Y-72158780D02*
X134547295Y-72158780D01*
X134833009Y-72158780D02*
X134833009Y-71158780D01*
X134737771Y-71301638D01*
X134642533Y-71396876D01*
X134547295Y-71444495D01*
X135975866Y-71158780D02*
X135785390Y-71158780D01*
X135690152Y-71206400D01*
X135642533Y-71254019D01*
X135547295Y-71396876D01*
X135499676Y-71587352D01*
X135499676Y-71968304D01*
X135547295Y-72063542D01*
X135594914Y-72111161D01*
X135690152Y-72158780D01*
X135880628Y-72158780D01*
X135975866Y-72111161D01*
X136023485Y-72063542D01*
X136071104Y-71968304D01*
X136071104Y-71730209D01*
X136023485Y-71634971D01*
X135975866Y-71587352D01*
X135880628Y-71539733D01*
X135690152Y-71539733D01*
X135594914Y-71587352D01*
X135547295Y-71634971D01*
X135499676Y-71730209D01*
%TO.C,C17*%
X156670742Y-87201942D02*
X156623123Y-87249561D01*
X156480266Y-87297180D01*
X156385028Y-87297180D01*
X156242171Y-87249561D01*
X156146933Y-87154323D01*
X156099314Y-87059085D01*
X156051695Y-86868609D01*
X156051695Y-86725752D01*
X156099314Y-86535276D01*
X156146933Y-86440038D01*
X156242171Y-86344800D01*
X156385028Y-86297180D01*
X156480266Y-86297180D01*
X156623123Y-86344800D01*
X156670742Y-86392419D01*
X157623123Y-87297180D02*
X157051695Y-87297180D01*
X157337409Y-87297180D02*
X157337409Y-86297180D01*
X157242171Y-86440038D01*
X157146933Y-86535276D01*
X157051695Y-86582895D01*
X157956457Y-86297180D02*
X158623123Y-86297180D01*
X158194552Y-87297180D01*
%TO.C,U1*%
X134555695Y-87345180D02*
X134555695Y-88154704D01*
X134603314Y-88249942D01*
X134650933Y-88297561D01*
X134746171Y-88345180D01*
X134936647Y-88345180D01*
X135031885Y-88297561D01*
X135079504Y-88249942D01*
X135127123Y-88154704D01*
X135127123Y-87345180D01*
X136127123Y-88345180D02*
X135555695Y-88345180D01*
X135841409Y-88345180D02*
X135841409Y-87345180D01*
X135746171Y-87488038D01*
X135650933Y-87583276D01*
X135555695Y-87630895D01*
%TO.C,L1*%
X155572133Y-102638780D02*
X155095942Y-102638780D01*
X155095942Y-101638780D01*
X156429276Y-102638780D02*
X155857847Y-102638780D01*
X156143561Y-102638780D02*
X156143561Y-101638780D01*
X156048323Y-101781638D01*
X155953085Y-101876876D01*
X155857847Y-101924495D01*
%TO.C,C21*%
X155807142Y-71352342D02*
X155759523Y-71399961D01*
X155616666Y-71447580D01*
X155521428Y-71447580D01*
X155378571Y-71399961D01*
X155283333Y-71304723D01*
X155235714Y-71209485D01*
X155188095Y-71019009D01*
X155188095Y-70876152D01*
X155235714Y-70685676D01*
X155283333Y-70590438D01*
X155378571Y-70495200D01*
X155521428Y-70447580D01*
X155616666Y-70447580D01*
X155759523Y-70495200D01*
X155807142Y-70542819D01*
X156188095Y-70542819D02*
X156235714Y-70495200D01*
X156330952Y-70447580D01*
X156569047Y-70447580D01*
X156664285Y-70495200D01*
X156711904Y-70542819D01*
X156759523Y-70638057D01*
X156759523Y-70733295D01*
X156711904Y-70876152D01*
X156140476Y-71447580D01*
X156759523Y-71447580D01*
X157711904Y-71447580D02*
X157140476Y-71447580D01*
X157426190Y-71447580D02*
X157426190Y-70447580D01*
X157330952Y-70590438D01*
X157235714Y-70685676D01*
X157140476Y-70733295D01*
%TO.C,R2*%
X138817580Y-99406666D02*
X138341390Y-99740000D01*
X138817580Y-99978095D02*
X137817580Y-99978095D01*
X137817580Y-99597142D01*
X137865200Y-99501904D01*
X137912819Y-99454285D01*
X138008057Y-99406666D01*
X138150914Y-99406666D01*
X138246152Y-99454285D01*
X138293771Y-99501904D01*
X138341390Y-99597142D01*
X138341390Y-99978095D01*
X137912819Y-99025714D02*
X137865200Y-98978095D01*
X137817580Y-98882857D01*
X137817580Y-98644761D01*
X137865200Y-98549523D01*
X137912819Y-98501904D01*
X138008057Y-98454285D01*
X138103295Y-98454285D01*
X138246152Y-98501904D01*
X138817580Y-99073333D01*
X138817580Y-98454285D01*
%TO.C,C10*%
X155553142Y-103915142D02*
X155505523Y-103962761D01*
X155362666Y-104010380D01*
X155267428Y-104010380D01*
X155124571Y-103962761D01*
X155029333Y-103867523D01*
X154981714Y-103772285D01*
X154934095Y-103581809D01*
X154934095Y-103438952D01*
X154981714Y-103248476D01*
X155029333Y-103153238D01*
X155124571Y-103058000D01*
X155267428Y-103010380D01*
X155362666Y-103010380D01*
X155505523Y-103058000D01*
X155553142Y-103105619D01*
X156505523Y-104010380D02*
X155934095Y-104010380D01*
X156219809Y-104010380D02*
X156219809Y-103010380D01*
X156124571Y-103153238D01*
X156029333Y-103248476D01*
X155934095Y-103296095D01*
X157124571Y-103010380D02*
X157219809Y-103010380D01*
X157315047Y-103058000D01*
X157362666Y-103105619D01*
X157410285Y-103200857D01*
X157457904Y-103391333D01*
X157457904Y-103629428D01*
X157410285Y-103819904D01*
X157362666Y-103915142D01*
X157315047Y-103962761D01*
X157219809Y-104010380D01*
X157124571Y-104010380D01*
X157029333Y-103962761D01*
X156981714Y-103915142D01*
X156934095Y-103819904D01*
X156886476Y-103629428D01*
X156886476Y-103391333D01*
X156934095Y-103200857D01*
X156981714Y-103105619D01*
X157029333Y-103058000D01*
X157124571Y-103010380D01*
%TO.C,R11*%
X153550342Y-72944580D02*
X153217009Y-72468390D01*
X152978914Y-72944580D02*
X152978914Y-71944580D01*
X153359866Y-71944580D01*
X153455104Y-71992200D01*
X153502723Y-72039819D01*
X153550342Y-72135057D01*
X153550342Y-72277914D01*
X153502723Y-72373152D01*
X153455104Y-72420771D01*
X153359866Y-72468390D01*
X152978914Y-72468390D01*
X154502723Y-72944580D02*
X153931295Y-72944580D01*
X154217009Y-72944580D02*
X154217009Y-71944580D01*
X154121771Y-72087438D01*
X154026533Y-72182676D01*
X153931295Y-72230295D01*
X155455104Y-72944580D02*
X154883676Y-72944580D01*
X155169390Y-72944580D02*
X155169390Y-71944580D01*
X155074152Y-72087438D01*
X154978914Y-72182676D01*
X154883676Y-72230295D01*
%TO.C,L2*%
X140687733Y-102689580D02*
X140211542Y-102689580D01*
X140211542Y-101689580D01*
X140973447Y-101784819D02*
X141021066Y-101737200D01*
X141116304Y-101689580D01*
X141354400Y-101689580D01*
X141449638Y-101737200D01*
X141497257Y-101784819D01*
X141544876Y-101880057D01*
X141544876Y-101975295D01*
X141497257Y-102118152D01*
X140925828Y-102689580D01*
X141544876Y-102689580D01*
%TO.C,D3*%
X135747504Y-79931180D02*
X135747504Y-78931180D01*
X135985600Y-78931180D01*
X136128457Y-78978800D01*
X136223695Y-79074038D01*
X136271314Y-79169276D01*
X136318933Y-79359752D01*
X136318933Y-79502609D01*
X136271314Y-79693085D01*
X136223695Y-79788323D01*
X136128457Y-79883561D01*
X135985600Y-79931180D01*
X135747504Y-79931180D01*
X136652266Y-78931180D02*
X137271314Y-78931180D01*
X136937980Y-79312133D01*
X137080838Y-79312133D01*
X137176076Y-79359752D01*
X137223695Y-79407371D01*
X137271314Y-79502609D01*
X137271314Y-79740704D01*
X137223695Y-79835942D01*
X137176076Y-79883561D01*
X137080838Y-79931180D01*
X136795123Y-79931180D01*
X136699885Y-79883561D01*
X136652266Y-79835942D01*
%TO.C,R4*%
X142080933Y-87495180D02*
X141747600Y-87018990D01*
X141509504Y-87495180D02*
X141509504Y-86495180D01*
X141890457Y-86495180D01*
X141985695Y-86542800D01*
X142033314Y-86590419D01*
X142080933Y-86685657D01*
X142080933Y-86828514D01*
X142033314Y-86923752D01*
X141985695Y-86971371D01*
X141890457Y-87018990D01*
X141509504Y-87018990D01*
X142938076Y-86828514D02*
X142938076Y-87495180D01*
X142699980Y-86447561D02*
X142461885Y-87161847D01*
X143080933Y-87161847D01*
%TO.C,R8*%
X155876933Y-69974380D02*
X155543600Y-69498190D01*
X155305504Y-69974380D02*
X155305504Y-68974380D01*
X155686457Y-68974380D01*
X155781695Y-69022000D01*
X155829314Y-69069619D01*
X155876933Y-69164857D01*
X155876933Y-69307714D01*
X155829314Y-69402952D01*
X155781695Y-69450571D01*
X155686457Y-69498190D01*
X155305504Y-69498190D01*
X156448361Y-69402952D02*
X156353123Y-69355333D01*
X156305504Y-69307714D01*
X156257885Y-69212476D01*
X156257885Y-69164857D01*
X156305504Y-69069619D01*
X156353123Y-69022000D01*
X156448361Y-68974380D01*
X156638838Y-68974380D01*
X156734076Y-69022000D01*
X156781695Y-69069619D01*
X156829314Y-69164857D01*
X156829314Y-69212476D01*
X156781695Y-69307714D01*
X156734076Y-69355333D01*
X156638838Y-69402952D01*
X156448361Y-69402952D01*
X156353123Y-69450571D01*
X156305504Y-69498190D01*
X156257885Y-69593428D01*
X156257885Y-69783904D01*
X156305504Y-69879142D01*
X156353123Y-69926761D01*
X156448361Y-69974380D01*
X156638838Y-69974380D01*
X156734076Y-69926761D01*
X156781695Y-69879142D01*
X156829314Y-69783904D01*
X156829314Y-69593428D01*
X156781695Y-69498190D01*
X156734076Y-69450571D01*
X156638838Y-69402952D01*
%TO.C,C6*%
X140506742Y-94309466D02*
X140554361Y-94357085D01*
X140601980Y-94499942D01*
X140601980Y-94595180D01*
X140554361Y-94738038D01*
X140459123Y-94833276D01*
X140363885Y-94880895D01*
X140173409Y-94928514D01*
X140030552Y-94928514D01*
X139840076Y-94880895D01*
X139744838Y-94833276D01*
X139649600Y-94738038D01*
X139601980Y-94595180D01*
X139601980Y-94499942D01*
X139649600Y-94357085D01*
X139697219Y-94309466D01*
X139601980Y-93452323D02*
X139601980Y-93642800D01*
X139649600Y-93738038D01*
X139697219Y-93785657D01*
X139840076Y-93880895D01*
X140030552Y-93928514D01*
X140411504Y-93928514D01*
X140506742Y-93880895D01*
X140554361Y-93833276D01*
X140601980Y-93738038D01*
X140601980Y-93547561D01*
X140554361Y-93452323D01*
X140506742Y-93404704D01*
X140411504Y-93357085D01*
X140173409Y-93357085D01*
X140078171Y-93404704D01*
X140030552Y-93452323D01*
X139982933Y-93547561D01*
X139982933Y-93738038D01*
X140030552Y-93833276D01*
X140078171Y-93880895D01*
X140173409Y-93928514D01*
%TO.C,C4*%
X140474742Y-96309466D02*
X140522361Y-96357085D01*
X140569980Y-96499942D01*
X140569980Y-96595180D01*
X140522361Y-96738038D01*
X140427123Y-96833276D01*
X140331885Y-96880895D01*
X140141409Y-96928514D01*
X139998552Y-96928514D01*
X139808076Y-96880895D01*
X139712838Y-96833276D01*
X139617600Y-96738038D01*
X139569980Y-96595180D01*
X139569980Y-96499942D01*
X139617600Y-96357085D01*
X139665219Y-96309466D01*
X139903314Y-95452323D02*
X140569980Y-95452323D01*
X139522361Y-95690419D02*
X140236647Y-95928514D01*
X140236647Y-95309466D01*
%TO.C,C13*%
X140567142Y-104169142D02*
X140519523Y-104216761D01*
X140376666Y-104264380D01*
X140281428Y-104264380D01*
X140138571Y-104216761D01*
X140043333Y-104121523D01*
X139995714Y-104026285D01*
X139948095Y-103835809D01*
X139948095Y-103692952D01*
X139995714Y-103502476D01*
X140043333Y-103407238D01*
X140138571Y-103312000D01*
X140281428Y-103264380D01*
X140376666Y-103264380D01*
X140519523Y-103312000D01*
X140567142Y-103359619D01*
X141519523Y-104264380D02*
X140948095Y-104264380D01*
X141233809Y-104264380D02*
X141233809Y-103264380D01*
X141138571Y-103407238D01*
X141043333Y-103502476D01*
X140948095Y-103550095D01*
X141852857Y-103264380D02*
X142471904Y-103264380D01*
X142138571Y-103645333D01*
X142281428Y-103645333D01*
X142376666Y-103692952D01*
X142424285Y-103740571D01*
X142471904Y-103835809D01*
X142471904Y-104073904D01*
X142424285Y-104169142D01*
X142376666Y-104216761D01*
X142281428Y-104264380D01*
X141995714Y-104264380D01*
X141900476Y-104216761D01*
X141852857Y-104169142D01*
%TO.C,C11*%
X140617942Y-101070342D02*
X140570323Y-101117961D01*
X140427466Y-101165580D01*
X140332228Y-101165580D01*
X140189371Y-101117961D01*
X140094133Y-101022723D01*
X140046514Y-100927485D01*
X139998895Y-100737009D01*
X139998895Y-100594152D01*
X140046514Y-100403676D01*
X140094133Y-100308438D01*
X140189371Y-100213200D01*
X140332228Y-100165580D01*
X140427466Y-100165580D01*
X140570323Y-100213200D01*
X140617942Y-100260819D01*
X141570323Y-101165580D02*
X140998895Y-101165580D01*
X141284609Y-101165580D02*
X141284609Y-100165580D01*
X141189371Y-100308438D01*
X141094133Y-100403676D01*
X140998895Y-100451295D01*
X142522704Y-101165580D02*
X141951276Y-101165580D01*
X142236990Y-101165580D02*
X142236990Y-100165580D01*
X142141752Y-100308438D01*
X142046514Y-100403676D01*
X141951276Y-100451295D01*
%TO.C,C2*%
X157858133Y-97666742D02*
X157810514Y-97714361D01*
X157667657Y-97761980D01*
X157572419Y-97761980D01*
X157429561Y-97714361D01*
X157334323Y-97619123D01*
X157286704Y-97523885D01*
X157239085Y-97333409D01*
X157239085Y-97190552D01*
X157286704Y-97000076D01*
X157334323Y-96904838D01*
X157429561Y-96809600D01*
X157572419Y-96761980D01*
X157667657Y-96761980D01*
X157810514Y-96809600D01*
X157858133Y-96857219D01*
X158239085Y-96857219D02*
X158286704Y-96809600D01*
X158381942Y-96761980D01*
X158620038Y-96761980D01*
X158715276Y-96809600D01*
X158762895Y-96857219D01*
X158810514Y-96952457D01*
X158810514Y-97047695D01*
X158762895Y-97190552D01*
X158191466Y-97761980D01*
X158810514Y-97761980D01*
%TO.C,C8*%
X133150933Y-84549942D02*
X133103314Y-84597561D01*
X132960457Y-84645180D01*
X132865219Y-84645180D01*
X132722361Y-84597561D01*
X132627123Y-84502323D01*
X132579504Y-84407085D01*
X132531885Y-84216609D01*
X132531885Y-84073752D01*
X132579504Y-83883276D01*
X132627123Y-83788038D01*
X132722361Y-83692800D01*
X132865219Y-83645180D01*
X132960457Y-83645180D01*
X133103314Y-83692800D01*
X133150933Y-83740419D01*
X133722361Y-84073752D02*
X133627123Y-84026133D01*
X133579504Y-83978514D01*
X133531885Y-83883276D01*
X133531885Y-83835657D01*
X133579504Y-83740419D01*
X133627123Y-83692800D01*
X133722361Y-83645180D01*
X133912838Y-83645180D01*
X134008076Y-83692800D01*
X134055695Y-83740419D01*
X134103314Y-83835657D01*
X134103314Y-83883276D01*
X134055695Y-83978514D01*
X134008076Y-84026133D01*
X133912838Y-84073752D01*
X133722361Y-84073752D01*
X133627123Y-84121371D01*
X133579504Y-84168990D01*
X133531885Y-84264228D01*
X133531885Y-84454704D01*
X133579504Y-84549942D01*
X133627123Y-84597561D01*
X133722361Y-84645180D01*
X133912838Y-84645180D01*
X134008076Y-84597561D01*
X134055695Y-84549942D01*
X134103314Y-84454704D01*
X134103314Y-84264228D01*
X134055695Y-84168990D01*
X134008076Y-84121371D01*
X133912838Y-84073752D01*
%TO.C,C20*%
X140922742Y-71707942D02*
X140875123Y-71755561D01*
X140732266Y-71803180D01*
X140637028Y-71803180D01*
X140494171Y-71755561D01*
X140398933Y-71660323D01*
X140351314Y-71565085D01*
X140303695Y-71374609D01*
X140303695Y-71231752D01*
X140351314Y-71041276D01*
X140398933Y-70946038D01*
X140494171Y-70850800D01*
X140637028Y-70803180D01*
X140732266Y-70803180D01*
X140875123Y-70850800D01*
X140922742Y-70898419D01*
X141303695Y-70898419D02*
X141351314Y-70850800D01*
X141446552Y-70803180D01*
X141684647Y-70803180D01*
X141779885Y-70850800D01*
X141827504Y-70898419D01*
X141875123Y-70993657D01*
X141875123Y-71088895D01*
X141827504Y-71231752D01*
X141256076Y-71803180D01*
X141875123Y-71803180D01*
X142494171Y-70803180D02*
X142589409Y-70803180D01*
X142684647Y-70850800D01*
X142732266Y-70898419D01*
X142779885Y-70993657D01*
X142827504Y-71184133D01*
X142827504Y-71422228D01*
X142779885Y-71612704D01*
X142732266Y-71707942D01*
X142684647Y-71755561D01*
X142589409Y-71803180D01*
X142494171Y-71803180D01*
X142398933Y-71755561D01*
X142351314Y-71707942D01*
X142303695Y-71612704D01*
X142256076Y-71422228D01*
X142256076Y-71184133D01*
X142303695Y-70993657D01*
X142351314Y-70898419D01*
X142398933Y-70850800D01*
X142494171Y-70803180D01*
D11*
%TO.C,B*%
X158096228Y-98812971D02*
X158239085Y-98860590D01*
X158286704Y-98908209D01*
X158334323Y-99003447D01*
X158334323Y-99146304D01*
X158286704Y-99241542D01*
X158239085Y-99289161D01*
X158143847Y-99336780D01*
X157762895Y-99336780D01*
X157762895Y-98336780D01*
X158096228Y-98336780D01*
X158191466Y-98384400D01*
X158239085Y-98432019D01*
X158286704Y-98527257D01*
X158286704Y-98622495D01*
X158239085Y-98717733D01*
X158191466Y-98765352D01*
X158096228Y-98812971D01*
X157762895Y-98812971D01*
D12*
%TO.C,C1*%
X158975733Y-94517142D02*
X158928114Y-94564761D01*
X158785257Y-94612380D01*
X158690019Y-94612380D01*
X158547161Y-94564761D01*
X158451923Y-94469523D01*
X158404304Y-94374285D01*
X158356685Y-94183809D01*
X158356685Y-94040952D01*
X158404304Y-93850476D01*
X158451923Y-93755238D01*
X158547161Y-93660000D01*
X158690019Y-93612380D01*
X158785257Y-93612380D01*
X158928114Y-93660000D01*
X158975733Y-93707619D01*
X159928114Y-94612380D02*
X159356685Y-94612380D01*
X159642400Y-94612380D02*
X159642400Y-93612380D01*
X159547161Y-93755238D01*
X159451923Y-93850476D01*
X159356685Y-93898095D01*
%TO.C,C18*%
X141278342Y-80750342D02*
X141230723Y-80797961D01*
X141087866Y-80845580D01*
X140992628Y-80845580D01*
X140849771Y-80797961D01*
X140754533Y-80702723D01*
X140706914Y-80607485D01*
X140659295Y-80417009D01*
X140659295Y-80274152D01*
X140706914Y-80083676D01*
X140754533Y-79988438D01*
X140849771Y-79893200D01*
X140992628Y-79845580D01*
X141087866Y-79845580D01*
X141230723Y-79893200D01*
X141278342Y-79940819D01*
X142230723Y-80845580D02*
X141659295Y-80845580D01*
X141945009Y-80845580D02*
X141945009Y-79845580D01*
X141849771Y-79988438D01*
X141754533Y-80083676D01*
X141659295Y-80131295D01*
X142802152Y-80274152D02*
X142706914Y-80226533D01*
X142659295Y-80178914D01*
X142611676Y-80083676D01*
X142611676Y-80036057D01*
X142659295Y-79940819D01*
X142706914Y-79893200D01*
X142802152Y-79845580D01*
X142992628Y-79845580D01*
X143087866Y-79893200D01*
X143135485Y-79940819D01*
X143183104Y-80036057D01*
X143183104Y-80083676D01*
X143135485Y-80178914D01*
X143087866Y-80226533D01*
X142992628Y-80274152D01*
X142802152Y-80274152D01*
X142706914Y-80321771D01*
X142659295Y-80369390D01*
X142611676Y-80464628D01*
X142611676Y-80655104D01*
X142659295Y-80750342D01*
X142706914Y-80797961D01*
X142802152Y-80845580D01*
X142992628Y-80845580D01*
X143087866Y-80797961D01*
X143135485Y-80750342D01*
X143183104Y-80655104D01*
X143183104Y-80464628D01*
X143135485Y-80369390D01*
X143087866Y-80321771D01*
X142992628Y-80274152D01*
%TO.C,C12*%
X149914342Y-107267942D02*
X149866723Y-107315561D01*
X149723866Y-107363180D01*
X149628628Y-107363180D01*
X149485771Y-107315561D01*
X149390533Y-107220323D01*
X149342914Y-107125085D01*
X149295295Y-106934609D01*
X149295295Y-106791752D01*
X149342914Y-106601276D01*
X149390533Y-106506038D01*
X149485771Y-106410800D01*
X149628628Y-106363180D01*
X149723866Y-106363180D01*
X149866723Y-106410800D01*
X149914342Y-106458419D01*
X150866723Y-107363180D02*
X150295295Y-107363180D01*
X150581009Y-107363180D02*
X150581009Y-106363180D01*
X150485771Y-106506038D01*
X150390533Y-106601276D01*
X150295295Y-106648895D01*
X151247676Y-106458419D02*
X151295295Y-106410800D01*
X151390533Y-106363180D01*
X151628628Y-106363180D01*
X151723866Y-106410800D01*
X151771485Y-106458419D01*
X151819104Y-106553657D01*
X151819104Y-106648895D01*
X151771485Y-106791752D01*
X151200057Y-107363180D01*
X151819104Y-107363180D01*
%TO.C,R9*%
X131746933Y-78407180D02*
X131413600Y-77930990D01*
X131175504Y-78407180D02*
X131175504Y-77407180D01*
X131556457Y-77407180D01*
X131651695Y-77454800D01*
X131699314Y-77502419D01*
X131746933Y-77597657D01*
X131746933Y-77740514D01*
X131699314Y-77835752D01*
X131651695Y-77883371D01*
X131556457Y-77930990D01*
X131175504Y-77930990D01*
X132223123Y-78407180D02*
X132413600Y-78407180D01*
X132508838Y-78359561D01*
X132556457Y-78311942D01*
X132651695Y-78169085D01*
X132699314Y-77978609D01*
X132699314Y-77597657D01*
X132651695Y-77502419D01*
X132604076Y-77454800D01*
X132508838Y-77407180D01*
X132318361Y-77407180D01*
X132223123Y-77454800D01*
X132175504Y-77502419D01*
X132127885Y-77597657D01*
X132127885Y-77835752D01*
X132175504Y-77930990D01*
X132223123Y-77978609D01*
X132318361Y-78026228D01*
X132508838Y-78026228D01*
X132604076Y-77978609D01*
X132651695Y-77930990D01*
X132699314Y-77835752D01*
%TO.C,C3*%
X158975733Y-93162742D02*
X158928114Y-93210361D01*
X158785257Y-93257980D01*
X158690019Y-93257980D01*
X158547161Y-93210361D01*
X158451923Y-93115123D01*
X158404304Y-93019885D01*
X158356685Y-92829409D01*
X158356685Y-92686552D01*
X158404304Y-92496076D01*
X158451923Y-92400838D01*
X158547161Y-92305600D01*
X158690019Y-92257980D01*
X158785257Y-92257980D01*
X158928114Y-92305600D01*
X158975733Y-92353219D01*
X159309066Y-92257980D02*
X159928114Y-92257980D01*
X159594780Y-92638933D01*
X159737638Y-92638933D01*
X159832876Y-92686552D01*
X159880495Y-92734171D01*
X159928114Y-92829409D01*
X159928114Y-93067504D01*
X159880495Y-93162742D01*
X159832876Y-93210361D01*
X159737638Y-93257980D01*
X159451923Y-93257980D01*
X159356685Y-93210361D01*
X159309066Y-93162742D01*
%TO.C,U3*%
X150775695Y-78666180D02*
X150775695Y-79475704D01*
X150823314Y-79570942D01*
X150870933Y-79618561D01*
X150966171Y-79666180D01*
X151156647Y-79666180D01*
X151251885Y-79618561D01*
X151299504Y-79570942D01*
X151347123Y-79475704D01*
X151347123Y-78666180D01*
X151728076Y-78666180D02*
X152347123Y-78666180D01*
X152013790Y-79047133D01*
X152156647Y-79047133D01*
X152251885Y-79094752D01*
X152299504Y-79142371D01*
X152347123Y-79237609D01*
X152347123Y-79475704D01*
X152299504Y-79570942D01*
X152251885Y-79618561D01*
X152156647Y-79666180D01*
X151870933Y-79666180D01*
X151775695Y-79618561D01*
X151728076Y-79570942D01*
%TO.C,G\u002A\u002A\u002A*%
G36*
X165688444Y-92438610D02*
G01*
X165641674Y-92522607D01*
X165472431Y-92643541D01*
X165202769Y-92783192D01*
X164890918Y-92920811D01*
X164701530Y-92986204D01*
X164606635Y-92985145D01*
X164578263Y-92923408D01*
X164578000Y-92912169D01*
X164648473Y-92840015D01*
X164826649Y-92730366D01*
X165062660Y-92607950D01*
X165306642Y-92497495D01*
X165508727Y-92423730D01*
X165596414Y-92407145D01*
X165688444Y-92438610D01*
G37*
G36*
X165665915Y-91693260D02*
G01*
X165678667Y-91745301D01*
X165606438Y-91839437D01*
X165418444Y-91963442D01*
X165194251Y-92072951D01*
X164929313Y-92186065D01*
X164727982Y-92272072D01*
X164643918Y-92308037D01*
X164585627Y-92267240D01*
X164578000Y-92213176D01*
X164608326Y-92144501D01*
X164714132Y-92062315D01*
X164917660Y-91954439D01*
X165241155Y-91808695D01*
X165572834Y-91668479D01*
X165665915Y-91693260D01*
G37*
G36*
X165675290Y-88822327D02*
G01*
X165678667Y-88864030D01*
X165608172Y-88956480D01*
X165424874Y-89086430D01*
X165211124Y-89203830D01*
X164894248Y-89352035D01*
X164699392Y-89420503D01*
X164602172Y-89414871D01*
X164578000Y-89350174D01*
X164646345Y-89281909D01*
X164820099Y-89165926D01*
X165052336Y-89028703D01*
X165296133Y-88896722D01*
X165504567Y-88796462D01*
X165630712Y-88754403D01*
X165633919Y-88754302D01*
X165675290Y-88822327D01*
G37*
G36*
X165683913Y-88111133D02*
G01*
X165641559Y-88204178D01*
X165487286Y-88329479D01*
X165337116Y-88415979D01*
X164976605Y-88592211D01*
X164742058Y-88684769D01*
X164615265Y-88699086D01*
X164578000Y-88642471D01*
X164647502Y-88559842D01*
X164823551Y-88436495D01*
X165057460Y-88299586D01*
X165300543Y-88176272D01*
X165504114Y-88093712D01*
X165595876Y-88074704D01*
X165683913Y-88111133D01*
G37*
G36*
X165564508Y-84798201D02*
G01*
X165594000Y-84846610D01*
X165521394Y-84909927D01*
X165377337Y-84931560D01*
X165233286Y-84904594D01*
X165213000Y-84846610D01*
X165332420Y-84775246D01*
X165429664Y-84761660D01*
X165564508Y-84798201D01*
G37*
G36*
X165191827Y-89464729D02*
G01*
X165230687Y-89576945D01*
X165250120Y-89800149D01*
X165255334Y-90155974D01*
X165249911Y-90516973D01*
X165230175Y-90737917D01*
X165190917Y-90848406D01*
X165128334Y-90878048D01*
X165064840Y-90847220D01*
X165025980Y-90735004D01*
X165006547Y-90511800D01*
X165001334Y-90155974D01*
X165006756Y-89794976D01*
X165026492Y-89574032D01*
X165065750Y-89463543D01*
X165128334Y-89433901D01*
X165191827Y-89464729D01*
G37*
G36*
X165083540Y-84826305D02*
G01*
X165086000Y-84846610D01*
X165021571Y-84929091D01*
X165001334Y-84931560D01*
X164919127Y-84866915D01*
X164916667Y-84846610D01*
X164981096Y-84764129D01*
X165001334Y-84761660D01*
X165083540Y-84826305D01*
G37*
G36*
X164959905Y-91347105D02*
G01*
X165001334Y-91430222D01*
X164927733Y-91532707D01*
X164789667Y-91557647D01*
X164619428Y-91513338D01*
X164578000Y-91430222D01*
X164651601Y-91327737D01*
X164789667Y-91302797D01*
X164959905Y-91347105D01*
G37*
G36*
X164959905Y-91007306D02*
G01*
X165001334Y-91090423D01*
X164927733Y-91192907D01*
X164789667Y-91217847D01*
X164619428Y-91173539D01*
X164578000Y-91090423D01*
X164651601Y-90987938D01*
X164789667Y-90962998D01*
X164959905Y-91007306D01*
G37*
G36*
X164244900Y-91900435D02*
G01*
X164389913Y-92017060D01*
X164373207Y-92107630D01*
X164202323Y-92151097D01*
X164154667Y-92152296D01*
X163968747Y-92125596D01*
X163903287Y-92026253D01*
X163900667Y-91982396D01*
X163942869Y-91840642D01*
X164078131Y-91828400D01*
X164244900Y-91900435D01*
G37*
G36*
X163509750Y-92475255D02*
G01*
X163807970Y-92600825D01*
X163847798Y-92618448D01*
X164111858Y-92752942D01*
X164282438Y-92873986D01*
X164340063Y-92963010D01*
X164265257Y-93001447D01*
X164249869Y-93001794D01*
X164109460Y-92966952D01*
X163891020Y-92878804D01*
X163644133Y-92761918D01*
X163418386Y-92640865D01*
X163263363Y-92540211D01*
X163223334Y-92493166D01*
X163245726Y-92427102D01*
X163331767Y-92419240D01*
X163509750Y-92475255D01*
G37*
G36*
X163358012Y-88091172D02*
G01*
X163562934Y-88166643D01*
X163856458Y-88304775D01*
X164102571Y-88442428D01*
X164271945Y-88568793D01*
X164324000Y-88644574D01*
X164296259Y-88746023D01*
X164279252Y-88754302D01*
X164158283Y-88715734D01*
X163952754Y-88617682D01*
X163709588Y-88486627D01*
X163475710Y-88349049D01*
X163298043Y-88231426D01*
X163223511Y-88160240D01*
X163223334Y-88158431D01*
X163252939Y-88090313D01*
X163358012Y-88091172D01*
G37*
G36*
X163461819Y-87684600D02*
G01*
X163375734Y-87802864D01*
X163231552Y-87898271D01*
X163149295Y-87850333D01*
X163138667Y-87777379D01*
X163157939Y-87664045D01*
X163174075Y-87649954D01*
X163273600Y-87623528D01*
X163343409Y-87598391D01*
X163457525Y-87594622D01*
X163461819Y-87684600D01*
G37*
G36*
X163005093Y-90195582D02*
G01*
X163031940Y-90430710D01*
X163048646Y-90802205D01*
X163054000Y-91260322D01*
X163047940Y-91744684D01*
X163030581Y-92108342D01*
X163003155Y-92334617D01*
X162969334Y-92407145D01*
X162933574Y-92325062D01*
X162906727Y-92089934D01*
X162890021Y-91718440D01*
X162884667Y-91260322D01*
X162890727Y-90775960D01*
X162908086Y-90412302D01*
X162935512Y-90186028D01*
X162969334Y-90113500D01*
X163005093Y-90195582D01*
G37*
G36*
X162959152Y-92592585D02*
G01*
X162875045Y-92698103D01*
X162805566Y-92743955D01*
X162541128Y-92819426D01*
X162231770Y-92819222D01*
X161964532Y-92746491D01*
X161906149Y-92711415D01*
X161792114Y-92593381D01*
X161821428Y-92532148D01*
X161973247Y-92542981D01*
X162086453Y-92579379D01*
X162358400Y-92633866D01*
X162665838Y-92584112D01*
X162834468Y-92525843D01*
X162947807Y-92518703D01*
X162959152Y-92592585D01*
G37*
G36*
X162969334Y-89718144D02*
G01*
X162891877Y-89833580D01*
X162687741Y-89928551D01*
X162673000Y-89932759D01*
X162410395Y-89967470D01*
X162142081Y-89945020D01*
X161919737Y-89877099D01*
X161795041Y-89775398D01*
X161784000Y-89731651D01*
X161815379Y-89659092D01*
X161937034Y-89669202D01*
X162040942Y-89702508D01*
X162387933Y-89756923D01*
X162762479Y-89671781D01*
X162821167Y-89648111D01*
X162943052Y-89636854D01*
X162969334Y-89718144D01*
G37*
G36*
X162524936Y-88970273D02*
G01*
X162635052Y-89000433D01*
X162842895Y-89077113D01*
X162959903Y-89147828D01*
X162969334Y-89165992D01*
X162891846Y-89197438D01*
X162687925Y-89219037D01*
X162400379Y-89226433D01*
X162376693Y-89226294D01*
X162084549Y-89216958D01*
X161872867Y-89196871D01*
X161784489Y-89170239D01*
X161784026Y-89168120D01*
X161853623Y-89102815D01*
X162023142Y-89015474D01*
X162042385Y-89007329D01*
X162276094Y-88944595D01*
X162524936Y-88970273D01*
G37*
G36*
X162835409Y-86852020D02*
G01*
X162959225Y-86953916D01*
X162944621Y-87068253D01*
X162807252Y-87136992D01*
X162757667Y-87140255D01*
X162591686Y-87100436D01*
X162546000Y-86970356D01*
X162579752Y-86830826D01*
X162701516Y-86810265D01*
X162835409Y-86852020D01*
G37*
G36*
X162353095Y-86871278D02*
G01*
X162376667Y-86970356D01*
X162323727Y-87108721D01*
X162249667Y-87140255D01*
X162146239Y-87069433D01*
X162122667Y-86970356D01*
X162175606Y-86831990D01*
X162249667Y-86800456D01*
X162353095Y-86871278D01*
G37*
G36*
X162250572Y-88288911D02*
G01*
X162292000Y-88372028D01*
X162218399Y-88474513D01*
X162080334Y-88499453D01*
X161910095Y-88455144D01*
X161868667Y-88372028D01*
X161942268Y-88269543D01*
X162080334Y-88244603D01*
X162250572Y-88288911D01*
G37*
G36*
X162107152Y-87684600D02*
G01*
X162021067Y-87802864D01*
X161876885Y-87898271D01*
X161794628Y-87850333D01*
X161784000Y-87777379D01*
X161803272Y-87664045D01*
X161819409Y-87649954D01*
X161918933Y-87623528D01*
X161988742Y-87598391D01*
X162102858Y-87594622D01*
X162107152Y-87684600D01*
G37*
G36*
X161655236Y-88069947D02*
G01*
X161684175Y-88291936D01*
X161698396Y-88627831D01*
X161699334Y-88754302D01*
X161690453Y-89120642D01*
X161665870Y-89381965D01*
X161628672Y-89510382D01*
X161614667Y-89518851D01*
X161574098Y-89438657D01*
X161545159Y-89216669D01*
X161530938Y-88880774D01*
X161530000Y-88754302D01*
X161538881Y-88387962D01*
X161563464Y-88126639D01*
X161600661Y-87998223D01*
X161614667Y-87989754D01*
X161655236Y-88069947D01*
G37*
G36*
X159485329Y-84725053D02*
G01*
X159491316Y-84811214D01*
X159470639Y-84901858D01*
X159440163Y-84862538D01*
X159430070Y-84729772D01*
X159446847Y-84699717D01*
X159485329Y-84725053D01*
G37*
G36*
X168012669Y-95979397D02*
G01*
X168232127Y-96078909D01*
X168413400Y-96172996D01*
X168836733Y-96404036D01*
X168857979Y-97462185D01*
X168861245Y-97873957D01*
X168854686Y-98226844D01*
X168839623Y-98484875D01*
X168817378Y-98612077D01*
X168815646Y-98615064D01*
X168716412Y-98693859D01*
X168518500Y-98815425D01*
X168275635Y-98950505D01*
X168041542Y-99069840D01*
X167869944Y-99144175D01*
X167823548Y-99155334D01*
X167779665Y-99089842D01*
X167778400Y-99069747D01*
X167848604Y-98990265D01*
X168031150Y-98869732D01*
X168244067Y-98755776D01*
X168709733Y-98527392D01*
X168709733Y-96528827D01*
X168244067Y-96300443D01*
X167957122Y-96144816D01*
X167802199Y-96027205D01*
X167788267Y-95956595D01*
X167884233Y-95939978D01*
X168012669Y-95979397D01*
G37*
G36*
X168025201Y-94626318D02*
G01*
X168255687Y-94734055D01*
X168502111Y-94874723D01*
X168709249Y-95016500D01*
X168821872Y-95127563D01*
X168826168Y-95136664D01*
X168866541Y-95323614D01*
X168878267Y-95555348D01*
X168863717Y-95771998D01*
X168825265Y-95913699D01*
X168794400Y-95938000D01*
X168742899Y-95862548D01*
X168712878Y-95672596D01*
X168709733Y-95574638D01*
X168702227Y-95370870D01*
X168655861Y-95239495D01*
X168534861Y-95135056D01*
X168303457Y-95012095D01*
X168244067Y-94982891D01*
X167975418Y-94833261D01*
X167812246Y-94705606D01*
X167770430Y-94616705D01*
X167865849Y-94583334D01*
X167865881Y-94583334D01*
X168025201Y-94626318D01*
G37*
G36*
X168012669Y-92000064D02*
G01*
X168232127Y-92099576D01*
X168413400Y-92193662D01*
X168836733Y-92424702D01*
X168860429Y-93504018D01*
X168864660Y-94002526D01*
X168852585Y-94351990D01*
X168824635Y-94545085D01*
X168796929Y-94583334D01*
X168757082Y-94501087D01*
X168728638Y-94263406D01*
X168712761Y-93883879D01*
X168709733Y-93566414D01*
X168709733Y-92549494D01*
X168244067Y-92321110D01*
X167957122Y-92165483D01*
X167802199Y-92047872D01*
X167788267Y-91977262D01*
X167884233Y-91960645D01*
X168012669Y-92000064D01*
G37*
G36*
X168843555Y-90593165D02*
G01*
X168871008Y-90773737D01*
X168875261Y-90999665D01*
X168854817Y-91209568D01*
X168814270Y-91333730D01*
X168715638Y-91412505D01*
X168518063Y-91534157D01*
X168275350Y-91669346D01*
X168041302Y-91788731D01*
X167869721Y-91862972D01*
X167823548Y-91874000D01*
X167779665Y-91808509D01*
X167778400Y-91788414D01*
X167848604Y-91708932D01*
X168031150Y-91588398D01*
X168244067Y-91474443D01*
X168500488Y-91342825D01*
X168639708Y-91238365D01*
X168697501Y-91115605D01*
X168709637Y-90929086D01*
X168709733Y-90882696D01*
X168727314Y-90661671D01*
X168771575Y-90532832D01*
X168794400Y-90519334D01*
X168843555Y-90593165D01*
G37*
G36*
X168724311Y-90140836D02*
G01*
X168861485Y-90256214D01*
X168879067Y-90326600D01*
X168828984Y-90414949D01*
X168688567Y-90403365D01*
X168512827Y-90362476D01*
X168434567Y-90351157D01*
X168371022Y-90293934D01*
X168385929Y-90182599D01*
X168460542Y-90101698D01*
X168491142Y-90096000D01*
X168724311Y-90140836D01*
G37*
G36*
X168103440Y-88706430D02*
G01*
X168336574Y-88809126D01*
X168567106Y-88929956D01*
X168745842Y-89045804D01*
X168814270Y-89112271D01*
X168858126Y-89255633D01*
X168875942Y-89470046D01*
X168869215Y-89694126D01*
X168839444Y-89866490D01*
X168794400Y-89926667D01*
X168741271Y-89851580D01*
X168711826Y-89664112D01*
X168709733Y-89589721D01*
X168695882Y-89376643D01*
X168626663Y-89242968D01*
X168460578Y-89128929D01*
X168349900Y-89071475D01*
X168040154Y-88905447D01*
X167867950Y-88784682D01*
X167813092Y-88692853D01*
X167826142Y-88647916D01*
X167916897Y-88644987D01*
X168103440Y-88706430D01*
G37*
G36*
X168012664Y-84041404D02*
G01*
X168232113Y-84140933D01*
X168413400Y-84235048D01*
X168836733Y-84466141D01*
X168859947Y-85884071D01*
X168864481Y-86473574D01*
X168856450Y-86909074D01*
X168836065Y-87185878D01*
X168803536Y-87299298D01*
X168796447Y-87302000D01*
X168760677Y-87218907D01*
X168733948Y-86975493D01*
X168716823Y-86580558D01*
X168709865Y-86042905D01*
X168709733Y-85946414D01*
X168709733Y-84590827D01*
X168244067Y-84362443D01*
X167957122Y-84206816D01*
X167802199Y-84089205D01*
X167788267Y-84018595D01*
X167884233Y-84001978D01*
X168012664Y-84041404D01*
G37*
G36*
X168012669Y-80739397D02*
G01*
X168232127Y-80838909D01*
X168413400Y-80932996D01*
X168836733Y-81164036D01*
X168857979Y-82222185D01*
X168861245Y-82633957D01*
X168854686Y-82986844D01*
X168839623Y-83244875D01*
X168817378Y-83372077D01*
X168815646Y-83375064D01*
X168716412Y-83453859D01*
X168518500Y-83575425D01*
X168275635Y-83710505D01*
X168041542Y-83829840D01*
X167869944Y-83904175D01*
X167823548Y-83915334D01*
X167779665Y-83849842D01*
X167778400Y-83829747D01*
X167848604Y-83750265D01*
X168031150Y-83629732D01*
X168244067Y-83515776D01*
X168709733Y-83287392D01*
X168709733Y-81288827D01*
X168244067Y-81060443D01*
X167957122Y-80904816D01*
X167802199Y-80787205D01*
X167788267Y-80716595D01*
X167884233Y-80699978D01*
X168012669Y-80739397D01*
G37*
G36*
X168843555Y-79332498D02*
G01*
X168871008Y-79513070D01*
X168875261Y-79738999D01*
X168854817Y-79948901D01*
X168814270Y-80073064D01*
X168715638Y-80151838D01*
X168518063Y-80273490D01*
X168275350Y-80408679D01*
X168041302Y-80528065D01*
X167869721Y-80602306D01*
X167823548Y-80613334D01*
X167779665Y-80547842D01*
X167778400Y-80527747D01*
X167848604Y-80448265D01*
X168031150Y-80327732D01*
X168244067Y-80213776D01*
X168500488Y-80082158D01*
X168639708Y-79977698D01*
X168697501Y-79854938D01*
X168709637Y-79668420D01*
X168709733Y-79622030D01*
X168727314Y-79401004D01*
X168771575Y-79272165D01*
X168794400Y-79258667D01*
X168843555Y-79332498D01*
G37*
G36*
X168724311Y-78880170D02*
G01*
X168861485Y-78995547D01*
X168879067Y-79065934D01*
X168828984Y-79154282D01*
X168688567Y-79142698D01*
X168512827Y-79101809D01*
X168434567Y-79090490D01*
X168371022Y-79033267D01*
X168385929Y-78921932D01*
X168460542Y-78841032D01*
X168491142Y-78835334D01*
X168724311Y-78880170D01*
G37*
G36*
X168103440Y-77445763D02*
G01*
X168336574Y-77548459D01*
X168567106Y-77669290D01*
X168745842Y-77785137D01*
X168814270Y-77851604D01*
X168858126Y-77994967D01*
X168875942Y-78209379D01*
X168869215Y-78433459D01*
X168839444Y-78605823D01*
X168794400Y-78666000D01*
X168741271Y-78590914D01*
X168711826Y-78403445D01*
X168709733Y-78329055D01*
X168695882Y-78115976D01*
X168626663Y-77982301D01*
X168460578Y-77868262D01*
X168349900Y-77810809D01*
X168040154Y-77644780D01*
X167867950Y-77524016D01*
X167813092Y-77432186D01*
X167826142Y-77387249D01*
X167916897Y-77384321D01*
X168103440Y-77445763D01*
G37*
G36*
X168025201Y-76084318D02*
G01*
X168255687Y-76192055D01*
X168502111Y-76332723D01*
X168709249Y-76474500D01*
X168821872Y-76585563D01*
X168826168Y-76594664D01*
X168866541Y-76781614D01*
X168878267Y-77013348D01*
X168863717Y-77229998D01*
X168825265Y-77371699D01*
X168794400Y-77396000D01*
X168743958Y-77320315D01*
X168713657Y-77128775D01*
X168709733Y-77014081D01*
X168703167Y-76800870D01*
X168659735Y-76665403D01*
X168543832Y-76561017D01*
X168319855Y-76441050D01*
X168244067Y-76403776D01*
X167959724Y-76249459D01*
X167802405Y-76131070D01*
X167782862Y-76058913D01*
X167865881Y-76041334D01*
X168025201Y-76084318D01*
G37*
G36*
X168839053Y-73322055D02*
G01*
X168863896Y-73508319D01*
X168866967Y-73749282D01*
X168846302Y-73988095D01*
X168823807Y-74099052D01*
X168738277Y-74199946D01*
X168556570Y-74326826D01*
X168326469Y-74455294D01*
X168095756Y-74560953D01*
X167912211Y-74619406D01*
X167825064Y-74609007D01*
X167824280Y-74526606D01*
X167930784Y-74423400D01*
X168164478Y-74283394D01*
X168349900Y-74187192D01*
X168568639Y-74065494D01*
X168674050Y-73948994D01*
X168707295Y-73773567D01*
X168709733Y-73626613D01*
X168726621Y-73399991D01*
X168769330Y-73264410D01*
X168794400Y-73247334D01*
X168839053Y-73322055D01*
G37*
G36*
X168745142Y-72960059D02*
G01*
X168869650Y-73044101D01*
X168841932Y-73120118D01*
X168678019Y-73161055D01*
X168625067Y-73162667D01*
X168423414Y-73124803D01*
X168371067Y-73035667D01*
X168436196Y-72927098D01*
X168614798Y-72920826D01*
X168745142Y-72960059D01*
G37*
G36*
X168025201Y-71427651D02*
G01*
X168255687Y-71535389D01*
X168502111Y-71676057D01*
X168709249Y-71817833D01*
X168821872Y-71928897D01*
X168826168Y-71937997D01*
X168866541Y-72124947D01*
X168878267Y-72356681D01*
X168863717Y-72573332D01*
X168825265Y-72715033D01*
X168794400Y-72739334D01*
X168742899Y-72663882D01*
X168712878Y-72473929D01*
X168709733Y-72375971D01*
X168702227Y-72172203D01*
X168655861Y-72040828D01*
X168534861Y-71936389D01*
X168303457Y-71813428D01*
X168244067Y-71784225D01*
X167975418Y-71634594D01*
X167812246Y-71506940D01*
X167770430Y-71418038D01*
X167865849Y-71384667D01*
X167865881Y-71384667D01*
X168025201Y-71427651D01*
G37*
G36*
X168004985Y-87339889D02*
G01*
X168216818Y-87434892D01*
X168450356Y-87559014D01*
X168654573Y-87684262D01*
X168778446Y-87782641D01*
X168794400Y-87811427D01*
X168762667Y-87892705D01*
X168753942Y-87894667D01*
X168662475Y-87860233D01*
X168465198Y-87770666D01*
X168245942Y-87665363D01*
X167960747Y-87510675D01*
X167802756Y-87392059D01*
X167782652Y-87319730D01*
X167865881Y-87302000D01*
X168004985Y-87339889D01*
G37*
G36*
X167574893Y-93219675D02*
G01*
X167605182Y-93411138D01*
X167609067Y-93525000D01*
X167592250Y-93752220D01*
X167549703Y-93888518D01*
X167524400Y-93906000D01*
X167473907Y-93830326D01*
X167443618Y-93638863D01*
X167439733Y-93525000D01*
X167456550Y-93297781D01*
X167499097Y-93161483D01*
X167524400Y-93144000D01*
X167574893Y-93219675D01*
G37*
G36*
X167574893Y-85261008D02*
G01*
X167605182Y-85452472D01*
X167609067Y-85566334D01*
X167592250Y-85793553D01*
X167549703Y-85929851D01*
X167524400Y-85947334D01*
X167473907Y-85871660D01*
X167443618Y-85680196D01*
X167439733Y-85566334D01*
X167456550Y-85339114D01*
X167499097Y-85202816D01*
X167524400Y-85185334D01*
X167574893Y-85261008D01*
G37*
G36*
X167574893Y-81959008D02*
G01*
X167605182Y-82150472D01*
X167609067Y-82264334D01*
X167592250Y-82491553D01*
X167549703Y-82627851D01*
X167524400Y-82645334D01*
X167473907Y-82569660D01*
X167443618Y-82378196D01*
X167439733Y-82264334D01*
X167456550Y-82037114D01*
X167499097Y-81900816D01*
X167524400Y-81883334D01*
X167574893Y-81959008D01*
G37*
G36*
X167574893Y-78657008D02*
G01*
X167605182Y-78848472D01*
X167609067Y-78962334D01*
X167592250Y-79189553D01*
X167549703Y-79325851D01*
X167524400Y-79343334D01*
X167473907Y-79267660D01*
X167443618Y-79076196D01*
X167439733Y-78962334D01*
X167456550Y-78735114D01*
X167499097Y-78598816D01*
X167524400Y-78581334D01*
X167574893Y-78657008D01*
G37*
G36*
X166833440Y-74143763D02*
G01*
X167066574Y-74246459D01*
X167297106Y-74367290D01*
X167475842Y-74483137D01*
X167544270Y-74549604D01*
X167578815Y-74680578D01*
X167599691Y-74916001D01*
X167607515Y-75209610D01*
X167602903Y-75515144D01*
X167586470Y-75786340D01*
X167558835Y-75976935D01*
X167524400Y-76041334D01*
X167482442Y-75962134D01*
X167452966Y-75745978D01*
X167440005Y-75425034D01*
X167439733Y-75365721D01*
X167439733Y-74690109D01*
X167079900Y-74508809D01*
X166770154Y-74342780D01*
X166597950Y-74222016D01*
X166543092Y-74130186D01*
X166556142Y-74085249D01*
X166646897Y-74082321D01*
X166833440Y-74143763D01*
G37*
G36*
X167574893Y-72730341D02*
G01*
X167605182Y-72921805D01*
X167609067Y-73035667D01*
X167592250Y-73262887D01*
X167549703Y-73399185D01*
X167524400Y-73416667D01*
X167473907Y-73340993D01*
X167443618Y-73149529D01*
X167439733Y-73035667D01*
X167456550Y-72808448D01*
X167499097Y-72672150D01*
X167524400Y-72654667D01*
X167574893Y-72730341D01*
G37*
G36*
X166734985Y-98600556D02*
G01*
X166946818Y-98695558D01*
X167180356Y-98819681D01*
X167384573Y-98944928D01*
X167508446Y-99043307D01*
X167524400Y-99072093D01*
X167492667Y-99153372D01*
X167483942Y-99155334D01*
X167392475Y-99120900D01*
X167195198Y-99031332D01*
X166975942Y-98926030D01*
X166690747Y-98771341D01*
X166532756Y-98652726D01*
X166512652Y-98580396D01*
X166595881Y-98562667D01*
X166734985Y-98600556D01*
G37*
G36*
X166835008Y-97338200D02*
G01*
X167064446Y-97443203D01*
X167288391Y-97567748D01*
X167457990Y-97687124D01*
X167524400Y-97775971D01*
X167496069Y-97877077D01*
X167478694Y-97885334D01*
X167373604Y-97848203D01*
X167177983Y-97756155D01*
X166948369Y-97638205D01*
X166741300Y-97523368D01*
X166615165Y-97442161D01*
X166546497Y-97330625D01*
X166555064Y-97285660D01*
X166648930Y-97277449D01*
X166835008Y-97338200D01*
G37*
G36*
X166835008Y-96660866D02*
G01*
X167064446Y-96765870D01*
X167288391Y-96890415D01*
X167457990Y-97009791D01*
X167524400Y-97098638D01*
X167496069Y-97199744D01*
X167478694Y-97208000D01*
X167373604Y-97170870D01*
X167177983Y-97078822D01*
X166948369Y-96960871D01*
X166741300Y-96846035D01*
X166615165Y-96764828D01*
X166546497Y-96653291D01*
X166555064Y-96608327D01*
X166648930Y-96600115D01*
X166835008Y-96660866D01*
G37*
G36*
X166734985Y-95298556D02*
G01*
X166946818Y-95393558D01*
X167180356Y-95517681D01*
X167384573Y-95642928D01*
X167508446Y-95741307D01*
X167524400Y-95770093D01*
X167492667Y-95851372D01*
X167483942Y-95853334D01*
X167392475Y-95818900D01*
X167195198Y-95729332D01*
X166975942Y-95624030D01*
X166690747Y-95469341D01*
X166532756Y-95350726D01*
X166512652Y-95278396D01*
X166595881Y-95260667D01*
X166734985Y-95298556D01*
G37*
G36*
X166571900Y-94040058D02*
G01*
X166765241Y-94090028D01*
X166974067Y-94107566D01*
X167210885Y-94085329D01*
X167376233Y-94040058D01*
X167498590Y-94019152D01*
X167519523Y-94083704D01*
X167442694Y-94186390D01*
X167360633Y-94241688D01*
X167131457Y-94313152D01*
X166871027Y-94323121D01*
X166632018Y-94279632D01*
X166467105Y-94190723D01*
X166423733Y-94098734D01*
X166467754Y-94015210D01*
X166571900Y-94040058D01*
G37*
G36*
X166734985Y-91319222D02*
G01*
X166946818Y-91414225D01*
X167180356Y-91538347D01*
X167384573Y-91663595D01*
X167508446Y-91761974D01*
X167524400Y-91790760D01*
X167492667Y-91872038D01*
X167483942Y-91874000D01*
X167392475Y-91839566D01*
X167195198Y-91749999D01*
X166975942Y-91644696D01*
X166690747Y-91490008D01*
X166532756Y-91371392D01*
X166512652Y-91299063D01*
X166595881Y-91281334D01*
X166734985Y-91319222D01*
G37*
G36*
X166667700Y-89947665D02*
G01*
X166898902Y-90039693D01*
X167103881Y-90139760D01*
X167356337Y-90286702D01*
X167502185Y-90410917D01*
X167525482Y-90494238D01*
X167436919Y-90519334D01*
X167297814Y-90481445D01*
X167085981Y-90386443D01*
X166852444Y-90262320D01*
X166648226Y-90137073D01*
X166524354Y-90038694D01*
X166508400Y-90009908D01*
X166544661Y-89939291D01*
X166667700Y-89947665D01*
G37*
G36*
X166835008Y-89379533D02*
G01*
X167064446Y-89484536D01*
X167288391Y-89609081D01*
X167457990Y-89728457D01*
X167524400Y-89817305D01*
X167496069Y-89918411D01*
X167478694Y-89926667D01*
X167373604Y-89889536D01*
X167177983Y-89797488D01*
X166948369Y-89679538D01*
X166741300Y-89564701D01*
X166615165Y-89483495D01*
X166546497Y-89371958D01*
X166555064Y-89326994D01*
X166648930Y-89318782D01*
X166835008Y-89379533D01*
G37*
G36*
X166734985Y-88017222D02*
G01*
X166946818Y-88112225D01*
X167180356Y-88236347D01*
X167384573Y-88361595D01*
X167508446Y-88459974D01*
X167524400Y-88488760D01*
X167492667Y-88570038D01*
X167483942Y-88572000D01*
X167392475Y-88537566D01*
X167195198Y-88447999D01*
X166975942Y-88342696D01*
X166690747Y-88188008D01*
X166532756Y-88069392D01*
X166512652Y-87997063D01*
X166595881Y-87979334D01*
X166734985Y-88017222D01*
G37*
G36*
X166667700Y-86645665D02*
G01*
X166898902Y-86737693D01*
X167103881Y-86837760D01*
X167356337Y-86984702D01*
X167502185Y-87108917D01*
X167525482Y-87192238D01*
X167436919Y-87217334D01*
X167297814Y-87179445D01*
X167085981Y-87084443D01*
X166852444Y-86960320D01*
X166648226Y-86835073D01*
X166524354Y-86736694D01*
X166508400Y-86707908D01*
X166544661Y-86637291D01*
X166667700Y-86645665D01*
G37*
G36*
X166734985Y-83360556D02*
G01*
X166946818Y-83455558D01*
X167180356Y-83579681D01*
X167384573Y-83704928D01*
X167508446Y-83803307D01*
X167524400Y-83832093D01*
X167492667Y-83913372D01*
X167483942Y-83915334D01*
X167392475Y-83880900D01*
X167195198Y-83791332D01*
X166975942Y-83686030D01*
X166690747Y-83531341D01*
X166532756Y-83412726D01*
X166512652Y-83340396D01*
X166595881Y-83322667D01*
X166734985Y-83360556D01*
G37*
G36*
X167528498Y-80728421D02*
G01*
X167474089Y-80812874D01*
X167284374Y-80941144D01*
X167056857Y-81061363D01*
X166773867Y-81198081D01*
X166609886Y-81267455D01*
X166532581Y-81278094D01*
X166509619Y-81238611D01*
X166508400Y-81207427D01*
X166577458Y-81131108D01*
X166750617Y-81014887D01*
X166976852Y-80886758D01*
X167205138Y-80774715D01*
X167384451Y-80706754D01*
X167436919Y-80698000D01*
X167528498Y-80728421D01*
G37*
G36*
X166734985Y-80058556D02*
G01*
X166946818Y-80153558D01*
X167180356Y-80277681D01*
X167384573Y-80402928D01*
X167508446Y-80501307D01*
X167524400Y-80530093D01*
X167492667Y-80611372D01*
X167483942Y-80613334D01*
X167392475Y-80578900D01*
X167195198Y-80489332D01*
X166975942Y-80384030D01*
X166690747Y-80229341D01*
X166532756Y-80110726D01*
X166512652Y-80038396D01*
X166595881Y-80020667D01*
X166734985Y-80058556D01*
G37*
G36*
X166734985Y-76756556D02*
G01*
X166946818Y-76851558D01*
X167180356Y-76975681D01*
X167384573Y-77100928D01*
X167508446Y-77199307D01*
X167524400Y-77228093D01*
X167492667Y-77309372D01*
X167483942Y-77311334D01*
X167392475Y-77276900D01*
X167195198Y-77187332D01*
X166975942Y-77082030D01*
X166690747Y-76927341D01*
X166532756Y-76808726D01*
X166512652Y-76736396D01*
X166595881Y-76718667D01*
X166734985Y-76756556D01*
G37*
G36*
X166667700Y-70728331D02*
G01*
X166898902Y-70820359D01*
X167103881Y-70920427D01*
X167356337Y-71067368D01*
X167502185Y-71191584D01*
X167525482Y-71274904D01*
X167436919Y-71300000D01*
X167297814Y-71262112D01*
X167085981Y-71167109D01*
X166852444Y-71042987D01*
X166648226Y-70917739D01*
X166524354Y-70819360D01*
X166508400Y-70790574D01*
X166544661Y-70719957D01*
X166667700Y-70728331D01*
G37*
G36*
X167321728Y-91892057D02*
G01*
X167336874Y-91970875D01*
X167273208Y-92147425D01*
X167225009Y-92255000D01*
X167147939Y-92509631D01*
X167106747Y-92812473D01*
X167104885Y-92868834D01*
X167084802Y-93088646D01*
X167038812Y-93215948D01*
X167016400Y-93228667D01*
X166964328Y-93153342D01*
X166934489Y-92964254D01*
X166931733Y-92874845D01*
X166906046Y-92568586D01*
X166842996Y-92278202D01*
X166830827Y-92241973D01*
X166776691Y-92020055D01*
X166798821Y-91903589D01*
X166884016Y-91914492D01*
X166972249Y-92007181D01*
X167064127Y-92115040D01*
X167094979Y-92087289D01*
X167098374Y-92022167D01*
X167160195Y-91896784D01*
X167228067Y-91874000D01*
X167321728Y-91892057D01*
G37*
G36*
X166762302Y-77583006D02*
G01*
X166762400Y-77590577D01*
X166725725Y-77735742D01*
X166705955Y-77762889D01*
X166582641Y-77816508D01*
X166460307Y-77795621D01*
X166423733Y-77737646D01*
X166489795Y-77637666D01*
X166593067Y-77565334D01*
X166724560Y-77517769D01*
X166762302Y-77583006D01*
G37*
G36*
X166295632Y-97202926D02*
G01*
X166324831Y-97421831D01*
X166338490Y-97750247D01*
X166339067Y-97843000D01*
X166329703Y-98193475D01*
X166303949Y-98441666D01*
X166265312Y-98557768D01*
X166254400Y-98562667D01*
X166213168Y-98483075D01*
X166183969Y-98264170D01*
X166170310Y-97935754D01*
X166169733Y-97843000D01*
X166179097Y-97492526D01*
X166204851Y-97244335D01*
X166243488Y-97128233D01*
X166254400Y-97123334D01*
X166295632Y-97202926D01*
G37*
G36*
X166304893Y-93897008D02*
G01*
X166335182Y-94088472D01*
X166339067Y-94202334D01*
X166322250Y-94429553D01*
X166279703Y-94565851D01*
X166254400Y-94583334D01*
X166203907Y-94507660D01*
X166173618Y-94316196D01*
X166169733Y-94202334D01*
X166186550Y-93975114D01*
X166229097Y-93838816D01*
X166254400Y-93821334D01*
X166304893Y-93897008D01*
G37*
G36*
X166296329Y-91953217D02*
G01*
X166325793Y-92169486D01*
X166338784Y-92490741D01*
X166339067Y-92551334D01*
X166329164Y-92886766D01*
X166302131Y-93122481D01*
X166261974Y-93226409D01*
X166254400Y-93228667D01*
X166212471Y-93149451D01*
X166183006Y-92933181D01*
X166170015Y-92611927D01*
X166169733Y-92551334D01*
X166179635Y-92215902D01*
X166206669Y-91980187D01*
X166246826Y-91876258D01*
X166254400Y-91874000D01*
X166296329Y-91953217D01*
G37*
G36*
X166295632Y-89921592D02*
G01*
X166324831Y-90140498D01*
X166338490Y-90468913D01*
X166339067Y-90561667D01*
X166329703Y-90912142D01*
X166303949Y-91160333D01*
X166265312Y-91276435D01*
X166254400Y-91281334D01*
X166213168Y-91201742D01*
X166183969Y-90982836D01*
X166170310Y-90654421D01*
X166169733Y-90561667D01*
X166179097Y-90211192D01*
X166204851Y-89963002D01*
X166243488Y-89846899D01*
X166254400Y-89842000D01*
X166295632Y-89921592D01*
G37*
G36*
X166296329Y-87973883D02*
G01*
X166325793Y-88190153D01*
X166338784Y-88511408D01*
X166339067Y-88572000D01*
X166329164Y-88907433D01*
X166302131Y-89143147D01*
X166261974Y-89247076D01*
X166254400Y-89249334D01*
X166212471Y-89170118D01*
X166183006Y-88953848D01*
X166170015Y-88632593D01*
X166169733Y-88572000D01*
X166179635Y-88236568D01*
X166206669Y-88000854D01*
X166246826Y-87896925D01*
X166254400Y-87894667D01*
X166296329Y-87973883D01*
G37*
G36*
X166304893Y-84583675D02*
G01*
X166335182Y-84775138D01*
X166339067Y-84889000D01*
X166322250Y-85116220D01*
X166279703Y-85252518D01*
X166254400Y-85270000D01*
X166203907Y-85194326D01*
X166173618Y-85002863D01*
X166169733Y-84889000D01*
X166186550Y-84661781D01*
X166229097Y-84525483D01*
X166254400Y-84508000D01*
X166304893Y-84583675D01*
G37*
G36*
X166291078Y-81287512D02*
G01*
X166318354Y-81519801D01*
X166334758Y-81884496D01*
X166339067Y-82264334D01*
X166332546Y-82722808D01*
X166313962Y-83063757D01*
X166284787Y-83268808D01*
X166254400Y-83322667D01*
X166217722Y-83241155D01*
X166190446Y-83008867D01*
X166174042Y-82644172D01*
X166169733Y-82264334D01*
X166176254Y-81805859D01*
X166194837Y-81464911D01*
X166224013Y-81259859D01*
X166254400Y-81206000D01*
X166291078Y-81287512D01*
G37*
G36*
X166291078Y-77985512D02*
G01*
X166318354Y-78217801D01*
X166334758Y-78582496D01*
X166339067Y-78962334D01*
X166332546Y-79420808D01*
X166313962Y-79761757D01*
X166284787Y-79966808D01*
X166254400Y-80020667D01*
X166217722Y-79939155D01*
X166190446Y-79706867D01*
X166174042Y-79342172D01*
X166169733Y-78962334D01*
X166176254Y-78503859D01*
X166194837Y-78162911D01*
X166224013Y-77957859D01*
X166254400Y-77904000D01*
X166291078Y-77985512D01*
G37*
G36*
X165485201Y-71427651D02*
G01*
X165715687Y-71535389D01*
X165962111Y-71676057D01*
X166169249Y-71817833D01*
X166281872Y-71928897D01*
X166286168Y-71937997D01*
X166304471Y-72067523D01*
X166318950Y-72334273D01*
X166329747Y-72713915D01*
X166337004Y-73182118D01*
X166340861Y-73714551D01*
X166341461Y-74286882D01*
X166338945Y-74874780D01*
X166333454Y-75453913D01*
X166325131Y-75999951D01*
X166314117Y-76488562D01*
X166300554Y-76895415D01*
X166284583Y-77196178D01*
X166266346Y-77366519D01*
X166254400Y-77396000D01*
X166228408Y-77312224D01*
X166206957Y-77064340D01*
X166190211Y-76657519D01*
X166178332Y-76096930D01*
X166171483Y-75387743D01*
X166169733Y-74704305D01*
X166169733Y-72012609D01*
X165704067Y-71784225D01*
X165435418Y-71634594D01*
X165272246Y-71506940D01*
X165230430Y-71418038D01*
X165325849Y-71384667D01*
X165325881Y-71384667D01*
X165485201Y-71427651D01*
G37*
G36*
X165464985Y-95975889D02*
G01*
X165676818Y-96070892D01*
X165910356Y-96195014D01*
X166114573Y-96320262D01*
X166238446Y-96418641D01*
X166254400Y-96447427D01*
X166222667Y-96528705D01*
X166213942Y-96530667D01*
X166122475Y-96496233D01*
X165925198Y-96406666D01*
X165705942Y-96301363D01*
X165420747Y-96146675D01*
X165262756Y-96028059D01*
X165242652Y-95955730D01*
X165325881Y-95938000D01*
X165464985Y-95975889D01*
G37*
G36*
X165301900Y-94717392D02*
G01*
X165555829Y-94775525D01*
X165861549Y-94774605D01*
X166106233Y-94717392D01*
X166228590Y-94696485D01*
X166249523Y-94761037D01*
X166172694Y-94863723D01*
X166090633Y-94919022D01*
X165861457Y-94990485D01*
X165601027Y-95000454D01*
X165362018Y-94956965D01*
X165197105Y-94868056D01*
X165153733Y-94776067D01*
X165197754Y-94692543D01*
X165301900Y-94717392D01*
G37*
G36*
X166051231Y-93465667D02*
G01*
X166213858Y-93566842D01*
X166254400Y-93664158D01*
X166183843Y-93715910D01*
X166021567Y-93692884D01*
X165821847Y-93646986D01*
X165704067Y-93630744D01*
X165565238Y-93651105D01*
X165386567Y-93692884D01*
X165203617Y-93705655D01*
X165154488Y-93637548D01*
X165251551Y-93525689D01*
X165317500Y-93485646D01*
X165550517Y-93415059D01*
X165812606Y-93411736D01*
X166051231Y-93465667D01*
G37*
G36*
X165397700Y-85968331D02*
G01*
X165628902Y-86060359D01*
X165833881Y-86160427D01*
X166086337Y-86307368D01*
X166232185Y-86431584D01*
X166255482Y-86514904D01*
X166166919Y-86540000D01*
X166027814Y-86502112D01*
X165815981Y-86407109D01*
X165582444Y-86282987D01*
X165378226Y-86157739D01*
X165254354Y-86059360D01*
X165238400Y-86030574D01*
X165274661Y-85959957D01*
X165397700Y-85968331D01*
G37*
G36*
X165984234Y-83499052D02*
G01*
X166189627Y-83585625D01*
X166233726Y-83647407D01*
X166114456Y-83685913D01*
X165829744Y-83702658D01*
X165704067Y-83703667D01*
X165365105Y-83692936D01*
X165193346Y-83660341D01*
X165187998Y-83605278D01*
X165348272Y-83527142D01*
X165433901Y-83497336D01*
X165749933Y-83448522D01*
X165984234Y-83499052D01*
G37*
G36*
X165565008Y-70160200D02*
G01*
X165794446Y-70265203D01*
X166018391Y-70389748D01*
X166187990Y-70509124D01*
X166254400Y-70597971D01*
X166226069Y-70699077D01*
X166208694Y-70707334D01*
X166103604Y-70670203D01*
X165907983Y-70578155D01*
X165678369Y-70460205D01*
X165471300Y-70345368D01*
X165345165Y-70264161D01*
X165276497Y-70152625D01*
X165285064Y-70107660D01*
X165378930Y-70099449D01*
X165565008Y-70160200D01*
G37*
G36*
X165021078Y-93902846D02*
G01*
X165048354Y-94135134D01*
X165064758Y-94499829D01*
X165069067Y-94879667D01*
X165062546Y-95338142D01*
X165043962Y-95679090D01*
X165014787Y-95884142D01*
X164984400Y-95938000D01*
X164947722Y-95856489D01*
X164920446Y-95624200D01*
X164904042Y-95259505D01*
X164899733Y-94879667D01*
X164906254Y-94421193D01*
X164924837Y-94080244D01*
X164954013Y-93875193D01*
X164984400Y-93821334D01*
X165021078Y-93902846D01*
G37*
G36*
X165021565Y-83996678D02*
G01*
X165049063Y-84227800D01*
X165065278Y-84589340D01*
X165069067Y-84931334D01*
X165062288Y-85377317D01*
X165043028Y-85707286D01*
X165012899Y-85901877D01*
X164984400Y-85947334D01*
X164947235Y-85865990D01*
X164919737Y-85634867D01*
X164903521Y-85273328D01*
X164899733Y-84931334D01*
X164906512Y-84485350D01*
X164925772Y-84155382D01*
X164955900Y-83960791D01*
X164984400Y-83915334D01*
X165021565Y-83996678D01*
G37*
G36*
X165025632Y-70024926D02*
G01*
X165054831Y-70243831D01*
X165068490Y-70572247D01*
X165069067Y-70665000D01*
X165059703Y-71015475D01*
X165033949Y-71263666D01*
X164995312Y-71379768D01*
X164984400Y-71384667D01*
X164943168Y-71305075D01*
X164913969Y-71086170D01*
X164900310Y-70757754D01*
X164899733Y-70665000D01*
X164909097Y-70314526D01*
X164934851Y-70066335D01*
X164973488Y-69950233D01*
X164984400Y-69945334D01*
X165025632Y-70024926D01*
G37*
G36*
X162855062Y-68046182D02*
G01*
X162861049Y-68132056D01*
X162840372Y-68222398D01*
X162809896Y-68183209D01*
X162799803Y-68050885D01*
X162816580Y-68020931D01*
X162855062Y-68046182D01*
G37*
D13*
%TO.C,C7*%
X137914236Y-70593200D02*
X137698564Y-70593200D01*
X137914236Y-69873200D02*
X137698564Y-69873200D01*
%TO.C,R5*%
X140021241Y-84522800D02*
X139713959Y-84522800D01*
X140021241Y-83762800D02*
X139713959Y-83762800D01*
%TO.C,R3*%
X137652759Y-69444800D02*
X137960041Y-69444800D01*
X137652759Y-68684800D02*
X137960041Y-68684800D01*
%TO.C,C14*%
X154914180Y-90652800D02*
X154633020Y-90652800D01*
X154914180Y-91672800D02*
X154633020Y-91672800D01*
%TO.C,R7*%
X162318400Y-98731241D02*
X162318400Y-98423959D01*
X163078400Y-98731241D02*
X163078400Y-98423959D01*
%TO.C,C9*%
X149959764Y-100232800D02*
X150175436Y-100232800D01*
X149959764Y-100952800D02*
X150175436Y-100952800D01*
%TO.C,C15*%
X135745600Y-75555380D02*
X135745600Y-75274220D01*
X134725600Y-75555380D02*
X134725600Y-75274220D01*
%TO.C,R10*%
X146619200Y-71402841D02*
X146619200Y-71095559D01*
X145859200Y-71402841D02*
X145859200Y-71095559D01*
D11*
%TO.C,IC1*%
X153192600Y-89260800D02*
G75*
G03*
X153192600Y-89260800I-125000J0D01*
G01*
D13*
%TO.C,R1*%
X154804514Y-96048091D02*
X154497232Y-96048091D01*
X154804514Y-96808091D02*
X154497232Y-96808091D01*
%TO.C,U4*%
X138405100Y-76772800D02*
X137605100Y-76772800D01*
X138405100Y-73652800D02*
X137605100Y-73652800D01*
X138405100Y-76772800D02*
X140205100Y-76772800D01*
X138405100Y-73652800D02*
X139205100Y-73652800D01*
%TO.C,L3*%
X143849600Y-74307579D02*
X143849600Y-73982021D01*
X144869600Y-74307579D02*
X144869600Y-73982021D01*
%TO.C,C5*%
X145991436Y-99142800D02*
X145775764Y-99142800D01*
X145991436Y-98422800D02*
X145775764Y-98422800D01*
%TO.C,A*%
X159536100Y-101346600D02*
X161821100Y-101346600D01*
X161821100Y-101346600D02*
X161821100Y-99876600D01*
X161821100Y-99876600D02*
X159536100Y-99876600D01*
%TO.C,C19*%
X144505764Y-76536800D02*
X144721436Y-76536800D01*
X144505764Y-75816800D02*
X144721436Y-75816800D01*
%TO.C,J1*%
X129228000Y-81612400D02*
X129228000Y-80552400D01*
X129228000Y-82612400D02*
X131348000Y-82612400D01*
X129228000Y-82612400D02*
X129228000Y-88672400D01*
X129228000Y-88672400D02*
X131348000Y-88672400D01*
X129228000Y-80552400D02*
X130288000Y-80552400D01*
X131348000Y-82612400D02*
X131348000Y-88672400D01*
%TO.C,R6*%
X163078400Y-100661159D02*
X163078400Y-100968441D01*
X162318400Y-100661159D02*
X162318400Y-100968441D01*
%TO.C,J2*%
X143917600Y-66542800D02*
X143917600Y-64542800D01*
X153317600Y-62642800D02*
X153317600Y-60742800D01*
X153317600Y-66542800D02*
X153317600Y-64542800D01*
X153317600Y-60742800D02*
X143917600Y-60742800D01*
X143917600Y-62642800D02*
X143917600Y-60742800D01*
%TO.C,C16*%
X136367436Y-72514800D02*
X136151764Y-72514800D01*
X136367436Y-73234800D02*
X136151764Y-73234800D01*
%TO.C,C17*%
X149839764Y-90252800D02*
X150055436Y-90252800D01*
X149839764Y-89532800D02*
X150055436Y-89532800D01*
%TO.C,U1*%
X136513600Y-86855400D02*
X135713600Y-86855400D01*
X136513600Y-83735400D02*
X135713600Y-83735400D01*
X136513600Y-83735400D02*
X137313600Y-83735400D01*
X136513600Y-86855400D02*
X138313600Y-86855400D01*
%TO.C,SW2*%
X160390000Y-68124000D02*
X160390000Y-64824000D01*
X157590000Y-68124000D02*
X157590000Y-64824000D01*
X157590000Y-64824000D02*
X157890000Y-64824000D01*
X160390000Y-64824000D02*
X160090000Y-64824000D01*
X157890000Y-68124000D02*
X157590000Y-68124000D01*
X160090000Y-68124000D02*
X160390000Y-68124000D01*
%TO.C,L1*%
X149357600Y-102517521D02*
X149357600Y-102843079D01*
X150377600Y-102517521D02*
X150377600Y-102843079D01*
%TO.C,U2*%
X147589000Y-98962000D02*
X147589000Y-99437000D01*
X152809000Y-98962000D02*
X152809000Y-99437000D01*
X152809000Y-94217000D02*
X152334000Y-94217000D01*
X147589000Y-94217000D02*
X148064000Y-94217000D01*
X152809000Y-94692000D02*
X152809000Y-94217000D01*
X147589000Y-94692000D02*
X147589000Y-94217000D01*
X152809000Y-99437000D02*
X152334000Y-99437000D01*
%TO.C,C21*%
X159491764Y-71304400D02*
X159707436Y-71304400D01*
X159491764Y-70584400D02*
X159707436Y-70584400D01*
%TO.C,R2*%
X138668759Y-98045200D02*
X138976041Y-98045200D01*
X138668759Y-97285200D02*
X138976041Y-97285200D01*
%TO.C,C10*%
X151559764Y-102994800D02*
X151775436Y-102994800D01*
X151559764Y-103714800D02*
X151775436Y-103714800D01*
%TO.C,R11*%
X151040800Y-71199641D02*
X151040800Y-70892359D01*
X151800800Y-71199641D02*
X151800800Y-70892359D01*
%TO.C,L2*%
X147555400Y-102531721D02*
X147555400Y-102857279D01*
X148575400Y-102531721D02*
X148575400Y-102857279D01*
%TO.C,SW1*%
X136254000Y-67717600D02*
X136554000Y-67717600D01*
X139054000Y-64417600D02*
X139054000Y-67717600D01*
X136554000Y-64417600D02*
X136254000Y-64417600D01*
X138754000Y-64417600D02*
X139054000Y-64417600D01*
X136254000Y-64417600D02*
X136254000Y-67717600D01*
X139054000Y-67717600D02*
X138754000Y-67717600D01*
%TO.C,D3*%
X135254600Y-78689800D02*
X137539600Y-78689800D01*
X137539600Y-77219800D02*
X135254600Y-77219800D01*
X135254600Y-77219800D02*
X135254600Y-78689800D01*
%TO.C,R4*%
X139633959Y-86464800D02*
X139941241Y-86464800D01*
X139633959Y-87224800D02*
X139941241Y-87224800D01*
%TO.C,R8*%
X159443959Y-69345200D02*
X159751241Y-69345200D01*
X159443959Y-70105200D02*
X159751241Y-70105200D01*
%TO.C,C6*%
X138007600Y-94191636D02*
X138007600Y-93975964D01*
X138727600Y-94191636D02*
X138727600Y-93975964D01*
%TO.C,C4*%
X138725200Y-95957164D02*
X138725200Y-96172836D01*
X138005200Y-95957164D02*
X138005200Y-96172836D01*
%TO.C,C13*%
X148023436Y-104468000D02*
X147807764Y-104468000D01*
X148023436Y-105188000D02*
X147807764Y-105188000D01*
%TO.C,C11*%
X148020836Y-100997000D02*
X147805164Y-100997000D01*
X148020836Y-100277000D02*
X147805164Y-100277000D01*
%TO.C,C2*%
X154509764Y-97203600D02*
X154725436Y-97203600D01*
X154509764Y-97923600D02*
X154725436Y-97923600D01*
%TO.C,C8*%
X133475436Y-85032800D02*
X133259764Y-85032800D01*
X133475436Y-85752800D02*
X133259764Y-85752800D01*
%TO.C,C20*%
X144477764Y-72472800D02*
X144693436Y-72472800D01*
X144477764Y-71752800D02*
X144693436Y-71752800D01*
%TO.C,B*%
X159510800Y-99568600D02*
X161795800Y-99568600D01*
X161795800Y-98098600D02*
X159510800Y-98098600D01*
X161795800Y-99568600D02*
X161795800Y-98098600D01*
%TO.C,Crystal1*%
X136075600Y-98542800D02*
X136075600Y-93142800D01*
X131575600Y-98542800D02*
X136075600Y-98542800D01*
%TO.C,C1*%
X154977020Y-93632800D02*
X155258180Y-93632800D01*
X154977020Y-94652800D02*
X155258180Y-94652800D01*
%TO.C,C18*%
X141563600Y-76290220D02*
X141563600Y-76571380D01*
X142583600Y-76290220D02*
X142583600Y-76571380D01*
%TO.C,C12*%
X150527020Y-105602800D02*
X150808180Y-105602800D01*
X150527020Y-104582800D02*
X150808180Y-104582800D01*
%TO.C,R9*%
X134097241Y-77574800D02*
X133789959Y-77574800D01*
X134097241Y-78334800D02*
X133789959Y-78334800D01*
%TO.C,C3*%
X154411764Y-92428400D02*
X154627436Y-92428400D01*
X154411764Y-93148400D02*
X154627436Y-93148400D01*
%TO.C,U3*%
X150303600Y-80362300D02*
X150303600Y-81162300D01*
X147183600Y-80362300D02*
X147183600Y-79562300D01*
X150303600Y-80362300D02*
X150303600Y-79562300D01*
X147183600Y-80362300D02*
X147183600Y-82162300D01*
%TD*%
M02*
