%TF.GenerationSoftware,KiCad,Pcbnew,(6.0.7-1)-1*%
%TF.CreationDate,2023-05-14T20:29:57-05:00*%
%TF.ProjectId,ESP32-C3,45535033-322d-4433-932e-6b696361645f,1.0*%
%TF.SameCoordinates,Original*%
%TF.FileFunction,Copper,L2,Bot*%
%TF.FilePolarity,Positive*%
%FSLAX46Y46*%
G04 Gerber Fmt 4.6, Leading zero omitted, Abs format (unit mm)*
G04 Created by KiCad (PCBNEW (6.0.7-1)-1) date 2023-05-14 20:29:57*
%MOMM*%
%LPD*%
G01*
G04 APERTURE LIST*
%TA.AperFunction,ComponentPad*%
%ADD10R,1.350000X1.350000*%
%TD*%
%TA.AperFunction,ComponentPad*%
%ADD11O,1.350000X1.350000*%
%TD*%
%TA.AperFunction,ComponentPad*%
%ADD12O,1.000000X2.100000*%
%TD*%
%TA.AperFunction,ComponentPad*%
%ADD13O,1.000000X1.600000*%
%TD*%
%TA.AperFunction,ViaPad*%
%ADD14C,0.800000*%
%TD*%
%TA.AperFunction,ViaPad*%
%ADD15C,0.700000*%
%TD*%
%TA.AperFunction,Conductor*%
%ADD16C,0.200000*%
%TD*%
%TA.AperFunction,Conductor*%
%ADD17C,0.250000*%
%TD*%
%TA.AperFunction,Conductor*%
%ADD18C,0.300000*%
%TD*%
%TA.AperFunction,Conductor*%
%ADD19C,0.500000*%
%TD*%
G04 APERTURE END LIST*
D10*
%TO.P,J1,1,Pin_1*%
%TO.N,/VBUS_FILTER*%
X130288000Y-81612400D03*
D11*
%TO.P,J1,2,Pin_2*%
%TO.N,Net-(J1-Pad2)*%
X130288000Y-83612400D03*
%TO.P,J1,3,Pin_3*%
%TO.N,GND*%
X130288000Y-85612400D03*
%TO.P,J1,4,Pin_4*%
%TO.N,Net-(J1-Pad4)*%
X130288000Y-87612400D03*
%TD*%
D12*
%TO.P,J2,S1,SHIELD*%
%TO.N,unconnected-(J2-PadS1)*%
X144297600Y-67772800D03*
D13*
X144297600Y-63592800D03*
X152937600Y-63592800D03*
D12*
X152937600Y-67772800D03*
%TD*%
D14*
%TO.N,GND*%
X155789600Y-113464000D03*
X151725600Y-80444000D03*
X143800800Y-70385600D03*
%TO.N,/D-*%
X149668100Y-70690400D03*
X147610800Y-70588800D03*
%TO.N,/VBUS*%
X142683200Y-73840000D03*
X148728400Y-74297200D03*
%TO.N,/CHIP_EN*%
X143038800Y-102694400D03*
X136243600Y-89423600D03*
X136942800Y-71554000D03*
X153605200Y-101983200D03*
%TO.N,GND*%
X150201600Y-97766800D03*
X150201600Y-95887200D03*
X156316477Y-97536533D03*
X162698400Y-96852400D03*
X162698400Y-102643600D03*
X138263600Y-71300000D03*
X137654000Y-62918000D03*
%TO.N,+3.3V*%
X139482800Y-77904000D03*
X139482800Y-72417600D03*
%TO.N,GND*%
X160107600Y-72112800D03*
X158990000Y-63476800D03*
X157313600Y-91874000D03*
X157313600Y-90858000D03*
X157313600Y-93550400D03*
X157313600Y-94566400D03*
D15*
%TO.N,SPI_DI*%
X145263100Y-86082800D03*
X154519600Y-88368800D03*
X145263100Y-93194800D03*
X147915600Y-93194800D03*
X147012100Y-86082800D03*
X154519600Y-86590800D03*
%TO.N,SPI_NHLD*%
X151139494Y-92702794D03*
X148931600Y-91670800D03*
D14*
%TO.N,GND*%
X142073600Y-78970800D03*
X151878000Y-101322800D03*
X151420800Y-72773200D03*
X139533600Y-85574800D03*
X133437600Y-72874800D03*
X147001200Y-72773200D03*
X136993600Y-94972800D03*
X145883600Y-100306800D03*
D15*
X151979600Y-85828800D03*
D14*
X153036509Y-104402222D03*
X146789296Y-105887940D03*
X153046400Y-70284000D03*
X146442400Y-75821200D03*
X132675600Y-99798800D03*
X133437600Y-74652800D03*
X146442400Y-77345200D03*
X133437600Y-76430800D03*
D15*
%TO.N,/VDD_SPI*%
X151821544Y-92020744D03*
X149947600Y-90908800D03*
%TD*%
D16*
%TO.N,/D-*%
X149668100Y-70690400D02*
X149261700Y-71096800D01*
X149261700Y-71096800D02*
X148118800Y-71096800D01*
X148118800Y-71096800D02*
X147610800Y-70588800D01*
D17*
%TO.N,/VBUS*%
X143140400Y-74297200D02*
X148728400Y-74297200D01*
X142683200Y-73840000D02*
X143140400Y-74297200D01*
D18*
%TO.N,/CHIP_EN*%
X153605200Y-101983200D02*
X152894000Y-102694400D01*
X152894000Y-102694400D02*
X143038800Y-102694400D01*
X136243600Y-89423600D02*
X136231600Y-89435600D01*
X136942800Y-71554000D02*
X136243600Y-72253200D01*
X136243600Y-72253200D02*
X136243600Y-89423600D01*
D19*
%TO.N,+3.3V*%
X139482800Y-77904000D02*
X139482800Y-72417600D01*
D17*
%TO.N,SPI_DI*%
X154519600Y-86590800D02*
X154519600Y-88368800D01*
X147915600Y-93194800D02*
X145263100Y-93194800D01*
X145263100Y-86082800D02*
X147012100Y-86082800D01*
%TO.N,SPI_NHLD*%
X150107500Y-91670800D02*
X148931600Y-91670800D01*
X151139494Y-92702794D02*
X150107500Y-91670800D01*
D18*
%TO.N,/VDD_SPI*%
X151821544Y-92020744D02*
X150709600Y-90908800D01*
X150709600Y-90908800D02*
X149947600Y-90908800D01*
%TD*%
%TA.AperFunction,Conductor*%
%TO.N,GND*%
G36*
X166351991Y-62145184D02*
G01*
X166367600Y-62147936D01*
X166378284Y-62146052D01*
X166384185Y-62146052D01*
X166402155Y-62144898D01*
X166607520Y-62154392D01*
X166749363Y-62160950D01*
X166760754Y-62162005D01*
X167133589Y-62214013D01*
X167144833Y-62216116D01*
X167328052Y-62259209D01*
X167511264Y-62302300D01*
X167522280Y-62305434D01*
X167879203Y-62425063D01*
X167889883Y-62429201D01*
X168234230Y-62581245D01*
X168244483Y-62586350D01*
X168573346Y-62769524D01*
X168583072Y-62775546D01*
X168830045Y-62944727D01*
X168893633Y-62988286D01*
X168902773Y-62995189D01*
X169192381Y-63235676D01*
X169200845Y-63243392D01*
X169467008Y-63509555D01*
X169474724Y-63518019D01*
X169715211Y-63807627D01*
X169722112Y-63816764D01*
X169908419Y-64088737D01*
X169934850Y-64127322D01*
X169940879Y-64137060D01*
X170124050Y-64465917D01*
X170129155Y-64476170D01*
X170281199Y-64820517D01*
X170285337Y-64831197D01*
X170404966Y-65188120D01*
X170408100Y-65199136D01*
X170494283Y-65565560D01*
X170496387Y-65576811D01*
X170544819Y-65924010D01*
X170548394Y-65949639D01*
X170549450Y-65961037D01*
X170550976Y-65994042D01*
X170565502Y-66308245D01*
X170564348Y-66326215D01*
X170564348Y-66332116D01*
X170562464Y-66342800D01*
X170564348Y-66353483D01*
X170565216Y-66358406D01*
X170567100Y-66379939D01*
X170567100Y-107955661D01*
X170565216Y-107977191D01*
X170562464Y-107992800D01*
X170564348Y-108003484D01*
X170564348Y-108009385D01*
X170565502Y-108027355D01*
X170551669Y-108326589D01*
X170549451Y-108374556D01*
X170548395Y-108385954D01*
X170504637Y-108699648D01*
X170496388Y-108758781D01*
X170494284Y-108770033D01*
X170486862Y-108801592D01*
X170408100Y-109136464D01*
X170404966Y-109147480D01*
X170285337Y-109504403D01*
X170281199Y-109515083D01*
X170129155Y-109859430D01*
X170124050Y-109869683D01*
X169940879Y-110198540D01*
X169934850Y-110208278D01*
X169722114Y-110518833D01*
X169715211Y-110527973D01*
X169474724Y-110817581D01*
X169467008Y-110826045D01*
X169200845Y-111092208D01*
X169192381Y-111099924D01*
X168902773Y-111340411D01*
X168893636Y-111347312D01*
X168583072Y-111560054D01*
X168573346Y-111566076D01*
X168380500Y-111673490D01*
X168244483Y-111749250D01*
X168234230Y-111754355D01*
X167889883Y-111906399D01*
X167879203Y-111910537D01*
X167522280Y-112030166D01*
X167511264Y-112033300D01*
X167328052Y-112076392D01*
X167144833Y-112119484D01*
X167133589Y-112121587D01*
X166760754Y-112173595D01*
X166749363Y-112174650D01*
X166607520Y-112181208D01*
X166402155Y-112190702D01*
X166384185Y-112189548D01*
X166378284Y-112189548D01*
X166367600Y-112187664D01*
X166351991Y-112190416D01*
X166330461Y-112192300D01*
X157654739Y-112192300D01*
X157633209Y-112190416D01*
X157629264Y-112189721D01*
X157628285Y-112189548D01*
X157617600Y-112187664D01*
X157607797Y-112189393D01*
X157606213Y-112189549D01*
X157605330Y-112189549D01*
X157603084Y-112189857D01*
X157555559Y-112194538D01*
X157460675Y-112203883D01*
X157409076Y-112219535D01*
X157315607Y-112247888D01*
X157315603Y-112247890D01*
X157309780Y-112249656D01*
X157170714Y-112323988D01*
X157048822Y-112424022D01*
X156948788Y-112545914D01*
X156874456Y-112684980D01*
X156872690Y-112690803D01*
X156872688Y-112690807D01*
X156845757Y-112779588D01*
X156828683Y-112835875D01*
X156828086Y-112841940D01*
X156820019Y-112923845D01*
X156818949Y-112930108D01*
X156817813Y-112932941D01*
X156817185Y-112939233D01*
X156817180Y-112942269D01*
X156817180Y-112942271D01*
X156817173Y-112946846D01*
X156816577Y-112958791D01*
X156814657Y-112978284D01*
X156814657Y-112978287D01*
X156814349Y-112980533D01*
X156814349Y-112981413D01*
X156814193Y-112982997D01*
X156812464Y-112992800D01*
X156814348Y-113003485D01*
X156814348Y-113003487D01*
X156815156Y-113008069D01*
X156817039Y-113029795D01*
X156815934Y-113718999D01*
X156796142Y-113786007D01*
X156743265Y-113831677D01*
X156691934Y-113842800D01*
X140792100Y-113842800D01*
X140725061Y-113823115D01*
X140679306Y-113770311D01*
X140668100Y-113718800D01*
X140668100Y-113029939D01*
X140669984Y-113008406D01*
X140670044Y-113008069D01*
X140672736Y-112992800D01*
X140671007Y-112982997D01*
X140670851Y-112981413D01*
X140670851Y-112980530D01*
X140670543Y-112978284D01*
X140657114Y-112841940D01*
X140656517Y-112835875D01*
X140639443Y-112779588D01*
X140612512Y-112690807D01*
X140612510Y-112690803D01*
X140610744Y-112684980D01*
X140536412Y-112545914D01*
X140436378Y-112424022D01*
X140314486Y-112323988D01*
X140175420Y-112249656D01*
X140169597Y-112247890D01*
X140169593Y-112247888D01*
X140076124Y-112219535D01*
X140024525Y-112203883D01*
X139960795Y-112197606D01*
X139936304Y-112195194D01*
X139929999Y-112194122D01*
X139926978Y-112192917D01*
X139920685Y-112192300D01*
X139913011Y-112192300D01*
X139900859Y-112191703D01*
X139887790Y-112190416D01*
X139882115Y-112189857D01*
X139879869Y-112189549D01*
X139878987Y-112189549D01*
X139877403Y-112189393D01*
X139867600Y-112187664D01*
X139856915Y-112189548D01*
X139855936Y-112189721D01*
X139851991Y-112190416D01*
X139830461Y-112192300D01*
X131404739Y-112192300D01*
X131383209Y-112190416D01*
X131367600Y-112187664D01*
X131356916Y-112189548D01*
X131351015Y-112189548D01*
X131333045Y-112190702D01*
X131127680Y-112181208D01*
X130985837Y-112174650D01*
X130974446Y-112173595D01*
X130601611Y-112121587D01*
X130590367Y-112119484D01*
X130407148Y-112076391D01*
X130223936Y-112033300D01*
X130212920Y-112030166D01*
X129855997Y-111910537D01*
X129845317Y-111906399D01*
X129500970Y-111754355D01*
X129490717Y-111749250D01*
X129354700Y-111673490D01*
X129161854Y-111566076D01*
X129152128Y-111560054D01*
X128841564Y-111347312D01*
X128832427Y-111340411D01*
X128542819Y-111099924D01*
X128534355Y-111092208D01*
X128268192Y-110826045D01*
X128260476Y-110817581D01*
X128019989Y-110527973D01*
X128013086Y-110518833D01*
X127800350Y-110208278D01*
X127794321Y-110198540D01*
X127611150Y-109869683D01*
X127606045Y-109859430D01*
X127454001Y-109515083D01*
X127449863Y-109504403D01*
X127330234Y-109147480D01*
X127327100Y-109136464D01*
X127248338Y-108801592D01*
X127240916Y-108770033D01*
X127238812Y-108758781D01*
X127230564Y-108699648D01*
X127186805Y-108385954D01*
X127185749Y-108374556D01*
X127183532Y-108326589D01*
X129963596Y-108326589D01*
X129972513Y-108564095D01*
X129973590Y-108569230D01*
X129973591Y-108569235D01*
X130015724Y-108770040D01*
X130021319Y-108796704D01*
X130108620Y-109017763D01*
X130111341Y-109022247D01*
X130111343Y-109022251D01*
X130178833Y-109133470D01*
X130231919Y-109220953D01*
X130387690Y-109400464D01*
X130571480Y-109551162D01*
X130576041Y-109553758D01*
X130576042Y-109553759D01*
X130773475Y-109666145D01*
X130773480Y-109666147D01*
X130778033Y-109668739D01*
X131001444Y-109749834D01*
X131235325Y-109792126D01*
X131260219Y-109793300D01*
X131427280Y-109793300D01*
X131429896Y-109793078D01*
X131429897Y-109793078D01*
X131599190Y-109778713D01*
X131604423Y-109778269D01*
X131834474Y-109718560D01*
X132051176Y-109620943D01*
X132248332Y-109488209D01*
X132420305Y-109324155D01*
X132562179Y-109133470D01*
X132564558Y-109128791D01*
X132667513Y-108926293D01*
X132667515Y-108926288D01*
X132669895Y-108921607D01*
X132740375Y-108694624D01*
X132771604Y-108459011D01*
X132766632Y-108326589D01*
X164963596Y-108326589D01*
X164972513Y-108564095D01*
X164973590Y-108569230D01*
X164973591Y-108569235D01*
X165015724Y-108770040D01*
X165021319Y-108796704D01*
X165108620Y-109017763D01*
X165111341Y-109022247D01*
X165111343Y-109022251D01*
X165178833Y-109133470D01*
X165231919Y-109220953D01*
X165387690Y-109400464D01*
X165571480Y-109551162D01*
X165576041Y-109553758D01*
X165576042Y-109553759D01*
X165773475Y-109666145D01*
X165773480Y-109666147D01*
X165778033Y-109668739D01*
X166001444Y-109749834D01*
X166235325Y-109792126D01*
X166260219Y-109793300D01*
X166427280Y-109793300D01*
X166429896Y-109793078D01*
X166429897Y-109793078D01*
X166599190Y-109778713D01*
X166604423Y-109778269D01*
X166834474Y-109718560D01*
X167051176Y-109620943D01*
X167248332Y-109488209D01*
X167420305Y-109324155D01*
X167562179Y-109133470D01*
X167564558Y-109128791D01*
X167667513Y-108926293D01*
X167667515Y-108926288D01*
X167669895Y-108921607D01*
X167740375Y-108694624D01*
X167771604Y-108459011D01*
X167762687Y-108221505D01*
X167735300Y-108090976D01*
X167714961Y-107994042D01*
X167714960Y-107994039D01*
X167713881Y-107988896D01*
X167705040Y-107966508D01*
X167628508Y-107772720D01*
X167626580Y-107767837D01*
X167559207Y-107656809D01*
X167506008Y-107569141D01*
X167503281Y-107564647D01*
X167347510Y-107385136D01*
X167163720Y-107234438D01*
X167046287Y-107167591D01*
X166961725Y-107119455D01*
X166961720Y-107119453D01*
X166957167Y-107116861D01*
X166733756Y-107035766D01*
X166499875Y-106993474D01*
X166474981Y-106992300D01*
X166307920Y-106992300D01*
X166305304Y-106992522D01*
X166305303Y-106992522D01*
X166294084Y-106993474D01*
X166130777Y-107007331D01*
X165900726Y-107067040D01*
X165684024Y-107164657D01*
X165486868Y-107297391D01*
X165314895Y-107461445D01*
X165173021Y-107652130D01*
X165170642Y-107656808D01*
X165170642Y-107656809D01*
X165116475Y-107763349D01*
X165065305Y-107863993D01*
X165063746Y-107869013D01*
X165063745Y-107869016D01*
X165014580Y-108027355D01*
X164994825Y-108090976D01*
X164963596Y-108326589D01*
X132766632Y-108326589D01*
X132762687Y-108221505D01*
X132735300Y-108090976D01*
X132714961Y-107994042D01*
X132714960Y-107994039D01*
X132713881Y-107988896D01*
X132705040Y-107966508D01*
X132628508Y-107772720D01*
X132626580Y-107767837D01*
X132559207Y-107656809D01*
X132506008Y-107569141D01*
X132503281Y-107564647D01*
X132347510Y-107385136D01*
X132163720Y-107234438D01*
X132046287Y-107167591D01*
X131961725Y-107119455D01*
X131961720Y-107119453D01*
X131957167Y-107116861D01*
X131733756Y-107035766D01*
X131499875Y-106993474D01*
X131474981Y-106992300D01*
X131307920Y-106992300D01*
X131305304Y-106992522D01*
X131305303Y-106992522D01*
X131294084Y-106993474D01*
X131130777Y-107007331D01*
X130900726Y-107067040D01*
X130684024Y-107164657D01*
X130486868Y-107297391D01*
X130314895Y-107461445D01*
X130173021Y-107652130D01*
X130170642Y-107656808D01*
X130170642Y-107656809D01*
X130116475Y-107763349D01*
X130065305Y-107863993D01*
X130063746Y-107869013D01*
X130063745Y-107869016D01*
X130014580Y-108027355D01*
X129994825Y-108090976D01*
X129963596Y-108326589D01*
X127183532Y-108326589D01*
X127169698Y-108027355D01*
X127170852Y-108009385D01*
X127170852Y-108003484D01*
X127172736Y-107992800D01*
X127169984Y-107977191D01*
X127168100Y-107955661D01*
X127168100Y-102687011D01*
X142333194Y-102687011D01*
X142351799Y-102855535D01*
X142354365Y-102862547D01*
X142354366Y-102862551D01*
X142392471Y-102966675D01*
X142410066Y-103014756D01*
X142414233Y-103020958D01*
X142414235Y-103020961D01*
X142448268Y-103071607D01*
X142504630Y-103155483D01*
X142510160Y-103160515D01*
X142624502Y-103264559D01*
X142624506Y-103264562D01*
X142630033Y-103269591D01*
X142779035Y-103350492D01*
X142874385Y-103375507D01*
X142935805Y-103391620D01*
X142935807Y-103391620D01*
X142943033Y-103393516D01*
X143025978Y-103394819D01*
X143105090Y-103396062D01*
X143105093Y-103396062D01*
X143112560Y-103396179D01*
X143235009Y-103368135D01*
X143270538Y-103359998D01*
X143270539Y-103359998D01*
X143277829Y-103358328D01*
X143352911Y-103320566D01*
X143422620Y-103285506D01*
X143422622Y-103285505D01*
X143429298Y-103282147D01*
X143434980Y-103277294D01*
X143434983Y-103277292D01*
X143555207Y-103174610D01*
X143618968Y-103146039D01*
X143635739Y-103144900D01*
X152859897Y-103144900D01*
X152874471Y-103145759D01*
X152899105Y-103148675D01*
X152899108Y-103148675D01*
X152908310Y-103149764D01*
X152944974Y-103143068D01*
X152966022Y-103139224D01*
X152969864Y-103138584D01*
X153003017Y-103133599D01*
X153027962Y-103129849D01*
X153034475Y-103126721D01*
X153041573Y-103125425D01*
X153049799Y-103121152D01*
X153093663Y-103098367D01*
X153097146Y-103096627D01*
X153150079Y-103071209D01*
X153155299Y-103066384D01*
X153155520Y-103066235D01*
X153161788Y-103062979D01*
X153166828Y-103058675D01*
X153204097Y-103021406D01*
X153207607Y-103018031D01*
X153242749Y-102985547D01*
X153242751Y-102985544D01*
X153249556Y-102979254D01*
X153253237Y-102972916D01*
X153258828Y-102966675D01*
X153505536Y-102719967D01*
X153566859Y-102686482D01*
X153595164Y-102683663D01*
X153671490Y-102684862D01*
X153671493Y-102684862D01*
X153678960Y-102684979D01*
X153801409Y-102656935D01*
X153836938Y-102648798D01*
X153836939Y-102648798D01*
X153844229Y-102647128D01*
X153919311Y-102609366D01*
X153989020Y-102574306D01*
X153989022Y-102574305D01*
X153995698Y-102570947D01*
X154001380Y-102566094D01*
X154001383Y-102566092D01*
X154118941Y-102465687D01*
X154124623Y-102460834D01*
X154223561Y-102323147D01*
X154286801Y-102165834D01*
X154293938Y-102115688D01*
X154310118Y-102002000D01*
X154310118Y-102001994D01*
X154310690Y-101997978D01*
X154310738Y-101993470D01*
X154310802Y-101987265D01*
X154310845Y-101983200D01*
X154290476Y-101814880D01*
X154230545Y-101656277D01*
X154221857Y-101643636D01*
X154138749Y-101522713D01*
X154138746Y-101522710D01*
X154134512Y-101516549D01*
X154007921Y-101403760D01*
X153993547Y-101396149D01*
X153864689Y-101327923D01*
X153858081Y-101324424D01*
X153693641Y-101283119D01*
X153607448Y-101282668D01*
X153531568Y-101282270D01*
X153531567Y-101282270D01*
X153524095Y-101282231D01*
X153502435Y-101287431D01*
X153366495Y-101320068D01*
X153366493Y-101320069D01*
X153359232Y-101321812D01*
X153352599Y-101325235D01*
X153352595Y-101325237D01*
X153285665Y-101359783D01*
X153208569Y-101399575D01*
X153080804Y-101511031D01*
X152983313Y-101649747D01*
X152921724Y-101807713D01*
X152899594Y-101975811D01*
X152900605Y-101984972D01*
X152900383Y-101986225D01*
X152900336Y-101990716D01*
X152899587Y-101990708D01*
X152888399Y-102053763D01*
X152865036Y-102086261D01*
X152743716Y-102207581D01*
X152682393Y-102241066D01*
X152656035Y-102243900D01*
X143633467Y-102243900D01*
X143566428Y-102224215D01*
X143550978Y-102212483D01*
X143447103Y-102119933D01*
X143447101Y-102119932D01*
X143441521Y-102114960D01*
X143427147Y-102107349D01*
X143366601Y-102075292D01*
X143291681Y-102035624D01*
X143127241Y-101994319D01*
X143041048Y-101993868D01*
X142965168Y-101993470D01*
X142965167Y-101993470D01*
X142957695Y-101993431D01*
X142938756Y-101997978D01*
X142800095Y-102031268D01*
X142800093Y-102031269D01*
X142792832Y-102033012D01*
X142786199Y-102036435D01*
X142786195Y-102036437D01*
X142719265Y-102070983D01*
X142642169Y-102110775D01*
X142636537Y-102115688D01*
X142531198Y-102207581D01*
X142514404Y-102222231D01*
X142416913Y-102360947D01*
X142355324Y-102518913D01*
X142354348Y-102526323D01*
X142354348Y-102526325D01*
X142344259Y-102602962D01*
X142333194Y-102687011D01*
X127168100Y-102687011D01*
X127168100Y-93187938D01*
X144607858Y-93187938D01*
X144608678Y-93195366D01*
X144608678Y-93195368D01*
X144613660Y-93240497D01*
X144625135Y-93344433D01*
X144627701Y-93351445D01*
X144627702Y-93351449D01*
X144628812Y-93354482D01*
X144679243Y-93492290D01*
X144767058Y-93622972D01*
X144821793Y-93672777D01*
X144877978Y-93723902D01*
X144877982Y-93723905D01*
X144883510Y-93728935D01*
X145021876Y-93804062D01*
X145124131Y-93830888D01*
X145166941Y-93842119D01*
X145166943Y-93842119D01*
X145174169Y-93844015D01*
X145251227Y-93845225D01*
X145324125Y-93846371D01*
X145324128Y-93846371D01*
X145331595Y-93846488D01*
X145338876Y-93844820D01*
X145338880Y-93844820D01*
X145477781Y-93813007D01*
X145485068Y-93811338D01*
X145625725Y-93740595D01*
X145731787Y-93650009D01*
X145795549Y-93621439D01*
X145812319Y-93620300D01*
X147368650Y-93620300D01*
X147435689Y-93639985D01*
X147452099Y-93652582D01*
X147536010Y-93728935D01*
X147674376Y-93804062D01*
X147776631Y-93830888D01*
X147819441Y-93842119D01*
X147819443Y-93842119D01*
X147826669Y-93844015D01*
X147903727Y-93845225D01*
X147976625Y-93846371D01*
X147976628Y-93846371D01*
X147984095Y-93846488D01*
X147991376Y-93844820D01*
X147991380Y-93844820D01*
X148130281Y-93813007D01*
X148137568Y-93811338D01*
X148278225Y-93740595D01*
X148283906Y-93735743D01*
X148283909Y-93735741D01*
X148392266Y-93643195D01*
X148392267Y-93643194D01*
X148397948Y-93638342D01*
X148408993Y-93622972D01*
X148429398Y-93594575D01*
X148489824Y-93510483D01*
X148548550Y-93364398D01*
X148549603Y-93357001D01*
X148570162Y-93212544D01*
X148570162Y-93212540D01*
X148570734Y-93208523D01*
X148570878Y-93194800D01*
X148564279Y-93140266D01*
X148552862Y-93045919D01*
X148552861Y-93045915D01*
X148551963Y-93038494D01*
X148496310Y-92891212D01*
X148469654Y-92852427D01*
X148411368Y-92767621D01*
X148411365Y-92767618D01*
X148407131Y-92761457D01*
X148307212Y-92672432D01*
X148295159Y-92661693D01*
X148295158Y-92661692D01*
X148289576Y-92656719D01*
X148150431Y-92583045D01*
X147997728Y-92544689D01*
X147915929Y-92544261D01*
X147847758Y-92543904D01*
X147847757Y-92543904D01*
X147840284Y-92543865D01*
X147833021Y-92545609D01*
X147833018Y-92545609D01*
X147766058Y-92561685D01*
X147687188Y-92580620D01*
X147547279Y-92652832D01*
X147541648Y-92657745D01*
X147541647Y-92657745D01*
X147526596Y-92670875D01*
X147478113Y-92713170D01*
X147448799Y-92738742D01*
X147385340Y-92767978D01*
X147367284Y-92769300D01*
X145810661Y-92769300D01*
X145743622Y-92749615D01*
X145728172Y-92737883D01*
X145642659Y-92661693D01*
X145642658Y-92661692D01*
X145637076Y-92656719D01*
X145497931Y-92583045D01*
X145345228Y-92544689D01*
X145263429Y-92544261D01*
X145195258Y-92543904D01*
X145195257Y-92543904D01*
X145187784Y-92543865D01*
X145180521Y-92545609D01*
X145180518Y-92545609D01*
X145113558Y-92561685D01*
X145034688Y-92580620D01*
X144894779Y-92652832D01*
X144889148Y-92657745D01*
X144889147Y-92657745D01*
X144874096Y-92670875D01*
X144776134Y-92756333D01*
X144685601Y-92885148D01*
X144628409Y-93031839D01*
X144607858Y-93187938D01*
X127168100Y-93187938D01*
X127168100Y-91663938D01*
X148276358Y-91663938D01*
X148277178Y-91671366D01*
X148277178Y-91671368D01*
X148290414Y-91791259D01*
X148293635Y-91820433D01*
X148296201Y-91827445D01*
X148296202Y-91827449D01*
X148325806Y-91908344D01*
X148347743Y-91968290D01*
X148435558Y-92098972D01*
X148472536Y-92132619D01*
X148546478Y-92199902D01*
X148546482Y-92199905D01*
X148552010Y-92204935D01*
X148690376Y-92280062D01*
X148792631Y-92306888D01*
X148835441Y-92318119D01*
X148835443Y-92318119D01*
X148842669Y-92320015D01*
X148919727Y-92321225D01*
X148992625Y-92322371D01*
X148992628Y-92322371D01*
X149000095Y-92322488D01*
X149007376Y-92320820D01*
X149007380Y-92320820D01*
X149146281Y-92289007D01*
X149153568Y-92287338D01*
X149294225Y-92216595D01*
X149349613Y-92169290D01*
X149400288Y-92126009D01*
X149464049Y-92097439D01*
X149480819Y-92096300D01*
X149879890Y-92096300D01*
X149946929Y-92115985D01*
X149967571Y-92132619D01*
X150448766Y-92613814D01*
X150482251Y-92675137D01*
X150484322Y-92695398D01*
X150484252Y-92695932D01*
X150501529Y-92852427D01*
X150504095Y-92859439D01*
X150504096Y-92859443D01*
X150508835Y-92872392D01*
X150555637Y-93000284D01*
X150643452Y-93130966D01*
X150665677Y-93151189D01*
X150754372Y-93231896D01*
X150754376Y-93231899D01*
X150759904Y-93236929D01*
X150898270Y-93312056D01*
X150993371Y-93337005D01*
X151043335Y-93350113D01*
X151043337Y-93350113D01*
X151050563Y-93352009D01*
X151127621Y-93353219D01*
X151200519Y-93354365D01*
X151200522Y-93354365D01*
X151207989Y-93354482D01*
X151215270Y-93352814D01*
X151215274Y-93352814D01*
X151354175Y-93321001D01*
X151361462Y-93319332D01*
X151502119Y-93248589D01*
X151507800Y-93243737D01*
X151507803Y-93243735D01*
X151616160Y-93151189D01*
X151616161Y-93151188D01*
X151621842Y-93146336D01*
X151632887Y-93130966D01*
X151704362Y-93031497D01*
X151713718Y-93018477D01*
X151772444Y-92872392D01*
X151786053Y-92776766D01*
X151814987Y-92713170D01*
X151873711Y-92675311D01*
X151888353Y-92672406D01*
X151890039Y-92672432D01*
X152043512Y-92637282D01*
X152184169Y-92566539D01*
X152189850Y-92561687D01*
X152189853Y-92561685D01*
X152298210Y-92469139D01*
X152298211Y-92469138D01*
X152303892Y-92464286D01*
X152395768Y-92336427D01*
X152454494Y-92190342D01*
X152463650Y-92126009D01*
X152476106Y-92038488D01*
X152476106Y-92038484D01*
X152476678Y-92034467D01*
X152476822Y-92020744D01*
X152471226Y-91974497D01*
X152458806Y-91871863D01*
X152458805Y-91871859D01*
X152457907Y-91864438D01*
X152402254Y-91717156D01*
X152398017Y-91710991D01*
X152317312Y-91593565D01*
X152317309Y-91593562D01*
X152313075Y-91587401D01*
X152223777Y-91507839D01*
X152201103Y-91487637D01*
X152201102Y-91487636D01*
X152195520Y-91482663D01*
X152056375Y-91408989D01*
X151903672Y-91370633D01*
X151870070Y-91370457D01*
X151859016Y-91370399D01*
X151792081Y-91350364D01*
X151771985Y-91334082D01*
X151052267Y-90614364D01*
X151042569Y-90603451D01*
X151027211Y-90583970D01*
X151021472Y-90576690D01*
X150973154Y-90543295D01*
X150970054Y-90541081D01*
X150922784Y-90506166D01*
X150915968Y-90503773D01*
X150910031Y-90499669D01*
X150854081Y-90481974D01*
X150850391Y-90480743D01*
X150803716Y-90464352D01*
X150803712Y-90464351D01*
X150794969Y-90461281D01*
X150787865Y-90461002D01*
X150787614Y-90460953D01*
X150780870Y-90458820D01*
X150774263Y-90458300D01*
X150721532Y-90458300D01*
X150716663Y-90458204D01*
X150668873Y-90456326D01*
X150668872Y-90456326D01*
X150659606Y-90455962D01*
X150652522Y-90457840D01*
X150644162Y-90458300D01*
X150467102Y-90458300D01*
X150400063Y-90438615D01*
X150384613Y-90426883D01*
X150327159Y-90375693D01*
X150327157Y-90375692D01*
X150321576Y-90370719D01*
X150182431Y-90297045D01*
X150029728Y-90258689D01*
X149947929Y-90258261D01*
X149879758Y-90257904D01*
X149879757Y-90257904D01*
X149872284Y-90257865D01*
X149865021Y-90259609D01*
X149865018Y-90259609D01*
X149795736Y-90276242D01*
X149719188Y-90294620D01*
X149579279Y-90366832D01*
X149460634Y-90470333D01*
X149370101Y-90599148D01*
X149367385Y-90606113D01*
X149367385Y-90606114D01*
X149341505Y-90672494D01*
X149312909Y-90745839D01*
X149292358Y-90901938D01*
X149293178Y-90909366D01*
X149293178Y-90909370D01*
X149294211Y-90918725D01*
X149282001Y-90987520D01*
X149234537Y-91038792D01*
X149166887Y-91056264D01*
X149140752Y-91052595D01*
X149020978Y-91022510D01*
X149013728Y-91020689D01*
X148931929Y-91020261D01*
X148863758Y-91019904D01*
X148863757Y-91019904D01*
X148856284Y-91019865D01*
X148849021Y-91021609D01*
X148849018Y-91021609D01*
X148779736Y-91038242D01*
X148703188Y-91056620D01*
X148563279Y-91128832D01*
X148444634Y-91232333D01*
X148354101Y-91361148D01*
X148351385Y-91368113D01*
X148351385Y-91368114D01*
X148325505Y-91434494D01*
X148296909Y-91507839D01*
X148276358Y-91663938D01*
X127168100Y-91663938D01*
X127168100Y-89416211D01*
X135537994Y-89416211D01*
X135538814Y-89423639D01*
X135538814Y-89423641D01*
X135540441Y-89438378D01*
X135556599Y-89584735D01*
X135559165Y-89591747D01*
X135559166Y-89591751D01*
X135612297Y-89736936D01*
X135614866Y-89743956D01*
X135619033Y-89750158D01*
X135619035Y-89750161D01*
X135632110Y-89769618D01*
X135709430Y-89884683D01*
X135714960Y-89889715D01*
X135829302Y-89993759D01*
X135829306Y-89993762D01*
X135834833Y-89998791D01*
X135983835Y-90079692D01*
X136079185Y-90104707D01*
X136140605Y-90120820D01*
X136140607Y-90120820D01*
X136147833Y-90122716D01*
X136230778Y-90124019D01*
X136309890Y-90125262D01*
X136309893Y-90125262D01*
X136317360Y-90125379D01*
X136439809Y-90097335D01*
X136475338Y-90089198D01*
X136475339Y-90089198D01*
X136482629Y-90087528D01*
X136557711Y-90049765D01*
X136627420Y-90014706D01*
X136627422Y-90014705D01*
X136634098Y-90011347D01*
X136639780Y-90006494D01*
X136639783Y-90006492D01*
X136757341Y-89906087D01*
X136763023Y-89901234D01*
X136861961Y-89763547D01*
X136925201Y-89606234D01*
X136949090Y-89438378D01*
X136949245Y-89423600D01*
X136928876Y-89255280D01*
X136868945Y-89096677D01*
X136860257Y-89084036D01*
X136777149Y-88963113D01*
X136777146Y-88963110D01*
X136772912Y-88956949D01*
X136735611Y-88923715D01*
X136698652Y-88864421D01*
X136694100Y-88831132D01*
X136694100Y-88361938D01*
X153864358Y-88361938D01*
X153865178Y-88369366D01*
X153865178Y-88369368D01*
X153872567Y-88436296D01*
X153881635Y-88518433D01*
X153884201Y-88525445D01*
X153884202Y-88525449D01*
X153903334Y-88577728D01*
X153935743Y-88666290D01*
X154023558Y-88796972D01*
X154078293Y-88846777D01*
X154134478Y-88897902D01*
X154134482Y-88897905D01*
X154140010Y-88902935D01*
X154146580Y-88906502D01*
X154146581Y-88906503D01*
X154271808Y-88974496D01*
X154278376Y-88978062D01*
X154380631Y-89004888D01*
X154423441Y-89016119D01*
X154423443Y-89016119D01*
X154430669Y-89018015D01*
X154507727Y-89019225D01*
X154580625Y-89020371D01*
X154580628Y-89020371D01*
X154588095Y-89020488D01*
X154595376Y-89018820D01*
X154595380Y-89018820D01*
X154734281Y-88987007D01*
X154741568Y-88985338D01*
X154882225Y-88914595D01*
X154887906Y-88909743D01*
X154887909Y-88909741D01*
X154996266Y-88817195D01*
X154996267Y-88817194D01*
X155001948Y-88812342D01*
X155012993Y-88796972D01*
X155033398Y-88768575D01*
X155093824Y-88684483D01*
X155152550Y-88538398D01*
X155154042Y-88527913D01*
X155174162Y-88386544D01*
X155174162Y-88386540D01*
X155174734Y-88382523D01*
X155174878Y-88368800D01*
X155168690Y-88317661D01*
X155156862Y-88219919D01*
X155156861Y-88219915D01*
X155155963Y-88212494D01*
X155144448Y-88182020D01*
X155102954Y-88072208D01*
X155102952Y-88072205D01*
X155100310Y-88065212D01*
X155066739Y-88016366D01*
X155015368Y-87941621D01*
X155015365Y-87941618D01*
X155011131Y-87935457D01*
X155005550Y-87930485D01*
X155005547Y-87930481D01*
X154986610Y-87913609D01*
X154949652Y-87854315D01*
X154945100Y-87821027D01*
X154945100Y-87140060D01*
X154964785Y-87073021D01*
X154988567Y-87045771D01*
X154996265Y-87039196D01*
X154996266Y-87039195D01*
X155001948Y-87034342D01*
X155012993Y-87018972D01*
X155082887Y-86921703D01*
X155093824Y-86906483D01*
X155152550Y-86760398D01*
X155154393Y-86747449D01*
X155174162Y-86608544D01*
X155174162Y-86608540D01*
X155174734Y-86604523D01*
X155174878Y-86590800D01*
X155173151Y-86576527D01*
X155156862Y-86441919D01*
X155156861Y-86441915D01*
X155155963Y-86434494D01*
X155100310Y-86287212D01*
X155045219Y-86207055D01*
X155015368Y-86163621D01*
X155015365Y-86163618D01*
X155011131Y-86157457D01*
X154964851Y-86116223D01*
X154899159Y-86057693D01*
X154899158Y-86057692D01*
X154893576Y-86052719D01*
X154754431Y-85979045D01*
X154601728Y-85940689D01*
X154519929Y-85940261D01*
X154451758Y-85939904D01*
X154451757Y-85939904D01*
X154444284Y-85939865D01*
X154437021Y-85941609D01*
X154437018Y-85941609D01*
X154367736Y-85958243D01*
X154291188Y-85976620D01*
X154151279Y-86048832D01*
X154032634Y-86152333D01*
X153942101Y-86281148D01*
X153884909Y-86427839D01*
X153864358Y-86583938D01*
X153865178Y-86591366D01*
X153865178Y-86591368D01*
X153870519Y-86639742D01*
X153881635Y-86740433D01*
X153884201Y-86747445D01*
X153884202Y-86747449D01*
X153886234Y-86753001D01*
X153935743Y-86888290D01*
X154023558Y-87018972D01*
X154053555Y-87046267D01*
X154089890Y-87105942D01*
X154094100Y-87137979D01*
X154094100Y-87820334D01*
X154074415Y-87887373D01*
X154051618Y-87913772D01*
X154032634Y-87930333D01*
X153942101Y-88059148D01*
X153884909Y-88205839D01*
X153864358Y-88361938D01*
X136694100Y-88361938D01*
X136694100Y-86075938D01*
X144607858Y-86075938D01*
X144608678Y-86083366D01*
X144608678Y-86083368D01*
X144616292Y-86152333D01*
X144625135Y-86232433D01*
X144627701Y-86239445D01*
X144627702Y-86239449D01*
X144642925Y-86281047D01*
X144679243Y-86380290D01*
X144767058Y-86510972D01*
X144821793Y-86560777D01*
X144877978Y-86611902D01*
X144877982Y-86611905D01*
X144883510Y-86616935D01*
X144890080Y-86620502D01*
X144890081Y-86620503D01*
X145006247Y-86683576D01*
X145021876Y-86692062D01*
X145124131Y-86718888D01*
X145166941Y-86730119D01*
X145166943Y-86730119D01*
X145174169Y-86732015D01*
X145251227Y-86733225D01*
X145324125Y-86734371D01*
X145324128Y-86734371D01*
X145331595Y-86734488D01*
X145338876Y-86732820D01*
X145338880Y-86732820D01*
X145477781Y-86701007D01*
X145485068Y-86699338D01*
X145625725Y-86628595D01*
X145731787Y-86538009D01*
X145795549Y-86509439D01*
X145812319Y-86508300D01*
X146465150Y-86508300D01*
X146532189Y-86527985D01*
X146548599Y-86540582D01*
X146632510Y-86616935D01*
X146639080Y-86620502D01*
X146639081Y-86620503D01*
X146755247Y-86683576D01*
X146770876Y-86692062D01*
X146873131Y-86718888D01*
X146915941Y-86730119D01*
X146915943Y-86730119D01*
X146923169Y-86732015D01*
X147000227Y-86733225D01*
X147073125Y-86734371D01*
X147073128Y-86734371D01*
X147080595Y-86734488D01*
X147087876Y-86732820D01*
X147087880Y-86732820D01*
X147226781Y-86701007D01*
X147234068Y-86699338D01*
X147374725Y-86628595D01*
X147380406Y-86623743D01*
X147380409Y-86623741D01*
X147488766Y-86531195D01*
X147488767Y-86531194D01*
X147494448Y-86526342D01*
X147505493Y-86510972D01*
X147525898Y-86482575D01*
X147586324Y-86398483D01*
X147645050Y-86252398D01*
X147646893Y-86239449D01*
X147666662Y-86100544D01*
X147666662Y-86100540D01*
X147667234Y-86096523D01*
X147667378Y-86082800D01*
X147663315Y-86049221D01*
X147649362Y-85933919D01*
X147649361Y-85933915D01*
X147648463Y-85926494D01*
X147639376Y-85902446D01*
X147595454Y-85786208D01*
X147595452Y-85786205D01*
X147592810Y-85779212D01*
X147584437Y-85767029D01*
X147507868Y-85655621D01*
X147507865Y-85655618D01*
X147503631Y-85649457D01*
X147386076Y-85544719D01*
X147246931Y-85471045D01*
X147094228Y-85432689D01*
X147012429Y-85432261D01*
X146944258Y-85431904D01*
X146944257Y-85431904D01*
X146936784Y-85431865D01*
X146929521Y-85433609D01*
X146929518Y-85433609D01*
X146860236Y-85450243D01*
X146783688Y-85468620D01*
X146643779Y-85540832D01*
X146638148Y-85545745D01*
X146638147Y-85545745D01*
X146545299Y-85626742D01*
X146481840Y-85655978D01*
X146463784Y-85657300D01*
X145810661Y-85657300D01*
X145743622Y-85637615D01*
X145728172Y-85625883D01*
X145642659Y-85549693D01*
X145642658Y-85549692D01*
X145637076Y-85544719D01*
X145497931Y-85471045D01*
X145345228Y-85432689D01*
X145263429Y-85432261D01*
X145195258Y-85431904D01*
X145195257Y-85431904D01*
X145187784Y-85431865D01*
X145180521Y-85433609D01*
X145180518Y-85433609D01*
X145111236Y-85450243D01*
X145034688Y-85468620D01*
X144894779Y-85540832D01*
X144776134Y-85644333D01*
X144685601Y-85773148D01*
X144628409Y-85919839D01*
X144607858Y-86075938D01*
X136694100Y-86075938D01*
X136694100Y-77896611D01*
X138777194Y-77896611D01*
X138778014Y-77904039D01*
X138778014Y-77904041D01*
X138779641Y-77918778D01*
X138795799Y-78065135D01*
X138798365Y-78072147D01*
X138798366Y-78072151D01*
X138851497Y-78217336D01*
X138854066Y-78224356D01*
X138858233Y-78230558D01*
X138858235Y-78230561D01*
X138871310Y-78250018D01*
X138948630Y-78365083D01*
X138954160Y-78370115D01*
X139068502Y-78474159D01*
X139068506Y-78474162D01*
X139074033Y-78479191D01*
X139223035Y-78560092D01*
X139318385Y-78585107D01*
X139379805Y-78601220D01*
X139379807Y-78601220D01*
X139387033Y-78603116D01*
X139469978Y-78604419D01*
X139549090Y-78605662D01*
X139549093Y-78605662D01*
X139556560Y-78605779D01*
X139679009Y-78577735D01*
X139714538Y-78569598D01*
X139714539Y-78569598D01*
X139721829Y-78567928D01*
X139796911Y-78530165D01*
X139866620Y-78495106D01*
X139866622Y-78495105D01*
X139873298Y-78491747D01*
X139878980Y-78486894D01*
X139878983Y-78486892D01*
X139996541Y-78386487D01*
X140002223Y-78381634D01*
X140101161Y-78243947D01*
X140164401Y-78086634D01*
X140188290Y-77918778D01*
X140188445Y-77904000D01*
X140168076Y-77735680D01*
X140108145Y-77577077D01*
X140055109Y-77499910D01*
X140033300Y-77429675D01*
X140033300Y-73832611D01*
X141977594Y-73832611D01*
X141996199Y-74001135D01*
X141998765Y-74008147D01*
X141998766Y-74008151D01*
X142051897Y-74153336D01*
X142054466Y-74160356D01*
X142058633Y-74166558D01*
X142058635Y-74166561D01*
X142119621Y-74257317D01*
X142149030Y-74301083D01*
X142154560Y-74306115D01*
X142268902Y-74410159D01*
X142268906Y-74410162D01*
X142274433Y-74415191D01*
X142423435Y-74496092D01*
X142518785Y-74521107D01*
X142580205Y-74537220D01*
X142580207Y-74537220D01*
X142587433Y-74539116D01*
X142733432Y-74541409D01*
X142800153Y-74562144D01*
X142819165Y-74577713D01*
X142887180Y-74645728D01*
X142908697Y-74656691D01*
X142925281Y-74666854D01*
X142936927Y-74675316D01*
X142936931Y-74675318D01*
X142944819Y-74681049D01*
X142954098Y-74684064D01*
X142967784Y-74688511D01*
X142985753Y-74695954D01*
X143007274Y-74706919D01*
X143016911Y-74708445D01*
X143016913Y-74708446D01*
X143031121Y-74710696D01*
X143050036Y-74715236D01*
X143073007Y-74722700D01*
X148107930Y-74722700D01*
X148174969Y-74742385D01*
X148193812Y-74758743D01*
X148194230Y-74758283D01*
X148314102Y-74867359D01*
X148314106Y-74867362D01*
X148319633Y-74872391D01*
X148468635Y-74953292D01*
X148563985Y-74978307D01*
X148625405Y-74994420D01*
X148625407Y-74994420D01*
X148632633Y-74996316D01*
X148715578Y-74997619D01*
X148794690Y-74998862D01*
X148794693Y-74998862D01*
X148802160Y-74998979D01*
X148924609Y-74970935D01*
X148960138Y-74962798D01*
X148960139Y-74962798D01*
X148967429Y-74961128D01*
X149042511Y-74923366D01*
X149112220Y-74888306D01*
X149112222Y-74888305D01*
X149118898Y-74884947D01*
X149124580Y-74880094D01*
X149124583Y-74880092D01*
X149242141Y-74779687D01*
X149247823Y-74774834D01*
X149346761Y-74637147D01*
X149410001Y-74479834D01*
X149433890Y-74311978D01*
X149433952Y-74306115D01*
X149434002Y-74301265D01*
X149434045Y-74297200D01*
X149413676Y-74128880D01*
X149404654Y-74105005D01*
X149356389Y-73977273D01*
X149356387Y-73977270D01*
X149353745Y-73970277D01*
X149349508Y-73964112D01*
X149261949Y-73836713D01*
X149261946Y-73836710D01*
X149257712Y-73830549D01*
X149131121Y-73717760D01*
X149116747Y-73710149D01*
X149056201Y-73678092D01*
X148981281Y-73638424D01*
X148816841Y-73597119D01*
X148730648Y-73596668D01*
X148654768Y-73596270D01*
X148654767Y-73596270D01*
X148647295Y-73596231D01*
X148625635Y-73601431D01*
X148489695Y-73634068D01*
X148489693Y-73634069D01*
X148482432Y-73635812D01*
X148475799Y-73639235D01*
X148475795Y-73639237D01*
X148440315Y-73657550D01*
X148331769Y-73713575D01*
X148204004Y-73825031D01*
X148199967Y-73830775D01*
X148140644Y-73867321D01*
X148107983Y-73871700D01*
X143502580Y-73871700D01*
X143435541Y-73852015D01*
X143389786Y-73799211D01*
X143379478Y-73762597D01*
X143369375Y-73679105D01*
X143369374Y-73679101D01*
X143368476Y-73671680D01*
X143308545Y-73513077D01*
X143299857Y-73500436D01*
X143216749Y-73379513D01*
X143216746Y-73379510D01*
X143212512Y-73373349D01*
X143085921Y-73260560D01*
X143071547Y-73252949D01*
X142942689Y-73184723D01*
X142936081Y-73181224D01*
X142771641Y-73139919D01*
X142685448Y-73139468D01*
X142609568Y-73139070D01*
X142609567Y-73139070D01*
X142602095Y-73139031D01*
X142580435Y-73144231D01*
X142444495Y-73176868D01*
X142444493Y-73176869D01*
X142437232Y-73178612D01*
X142430599Y-73182035D01*
X142430595Y-73182037D01*
X142363665Y-73216583D01*
X142286569Y-73256375D01*
X142158804Y-73367831D01*
X142061313Y-73506547D01*
X141999724Y-73664513D01*
X141977594Y-73832611D01*
X140033300Y-73832611D01*
X140033300Y-72891918D01*
X140056602Y-72819559D01*
X140096799Y-72763619D01*
X140096803Y-72763612D01*
X140101161Y-72757547D01*
X140164401Y-72600234D01*
X140179924Y-72491165D01*
X140187718Y-72436400D01*
X140187718Y-72436394D01*
X140188290Y-72432378D01*
X140188445Y-72417600D01*
X140186654Y-72402799D01*
X140168975Y-72256705D01*
X140168974Y-72256701D01*
X140168076Y-72249280D01*
X140115671Y-72110594D01*
X140110789Y-72097673D01*
X140110787Y-72097670D01*
X140108145Y-72090677D01*
X140099457Y-72078036D01*
X140016349Y-71957113D01*
X140016346Y-71957110D01*
X140012112Y-71950949D01*
X139885521Y-71838160D01*
X139871147Y-71830549D01*
X139742289Y-71762323D01*
X139735681Y-71758824D01*
X139571241Y-71717519D01*
X139485048Y-71717068D01*
X139409168Y-71716670D01*
X139409167Y-71716670D01*
X139401695Y-71716631D01*
X139380035Y-71721831D01*
X139244095Y-71754468D01*
X139244093Y-71754469D01*
X139236832Y-71756212D01*
X139230199Y-71759635D01*
X139230195Y-71759637D01*
X139163265Y-71794183D01*
X139086169Y-71833975D01*
X139080537Y-71838888D01*
X138992479Y-71915706D01*
X138958404Y-71945431D01*
X138860913Y-72084147D01*
X138799324Y-72242113D01*
X138798348Y-72249523D01*
X138798348Y-72249525D01*
X138797698Y-72254463D01*
X138777194Y-72410211D01*
X138778014Y-72417639D01*
X138778014Y-72417641D01*
X138779641Y-72432378D01*
X138795799Y-72578735D01*
X138798365Y-72585747D01*
X138798366Y-72585751D01*
X138851497Y-72730936D01*
X138854066Y-72737956D01*
X138858233Y-72744157D01*
X138858238Y-72744167D01*
X138911221Y-72823013D01*
X138932300Y-72892173D01*
X138932300Y-77429757D01*
X138909751Y-77501057D01*
X138860913Y-77570547D01*
X138799324Y-77728513D01*
X138777194Y-77896611D01*
X136694100Y-77896611D01*
X136694100Y-72491165D01*
X136713785Y-72424126D01*
X136730419Y-72403484D01*
X136843136Y-72290767D01*
X136904459Y-72257282D01*
X136932764Y-72254463D01*
X137009090Y-72255662D01*
X137009093Y-72255662D01*
X137016560Y-72255779D01*
X137139009Y-72227735D01*
X137174538Y-72219598D01*
X137174539Y-72219598D01*
X137181829Y-72217928D01*
X137267092Y-72175045D01*
X137326620Y-72145106D01*
X137326622Y-72145105D01*
X137333298Y-72141747D01*
X137338980Y-72136894D01*
X137338983Y-72136892D01*
X137456541Y-72036487D01*
X137462223Y-72031634D01*
X137561161Y-71893947D01*
X137624401Y-71736634D01*
X137625454Y-71729237D01*
X137647718Y-71572800D01*
X137647718Y-71572794D01*
X137648290Y-71568778D01*
X137648445Y-71554000D01*
X137641584Y-71497300D01*
X137628975Y-71393105D01*
X137628974Y-71393101D01*
X137628076Y-71385680D01*
X137592220Y-71290790D01*
X137570789Y-71234073D01*
X137570787Y-71234070D01*
X137568145Y-71227077D01*
X137521329Y-71158959D01*
X137476349Y-71093513D01*
X137476346Y-71093510D01*
X137472112Y-71087349D01*
X137345521Y-70974560D01*
X137331147Y-70966949D01*
X137221994Y-70909156D01*
X137195681Y-70895224D01*
X137031241Y-70853919D01*
X136945048Y-70853468D01*
X136869168Y-70853070D01*
X136869167Y-70853070D01*
X136861695Y-70853031D01*
X136840035Y-70858231D01*
X136704095Y-70890868D01*
X136704093Y-70890869D01*
X136696832Y-70892612D01*
X136690199Y-70896035D01*
X136690195Y-70896037D01*
X136623265Y-70930583D01*
X136546169Y-70970375D01*
X136540537Y-70975288D01*
X136449259Y-71054915D01*
X136418404Y-71081831D01*
X136320913Y-71220547D01*
X136259324Y-71378513D01*
X136258348Y-71385923D01*
X136258348Y-71385925D01*
X136251316Y-71439338D01*
X136237194Y-71546611D01*
X136238205Y-71555772D01*
X136237983Y-71557025D01*
X136237936Y-71561516D01*
X136237187Y-71561508D01*
X136225999Y-71624563D01*
X136202636Y-71657061D01*
X135949164Y-71910533D01*
X135938251Y-71920231D01*
X135911490Y-71941328D01*
X135906220Y-71948953D01*
X135878110Y-71989626D01*
X135875881Y-71992746D01*
X135840966Y-72040016D01*
X135838573Y-72046832D01*
X135834469Y-72052769D01*
X135816775Y-72108716D01*
X135815543Y-72112409D01*
X135799152Y-72159084D01*
X135799151Y-72159088D01*
X135796081Y-72167831D01*
X135795802Y-72174935D01*
X135795753Y-72175186D01*
X135793620Y-72181930D01*
X135793100Y-72188537D01*
X135793100Y-72241268D01*
X135793004Y-72246137D01*
X135792881Y-72249280D01*
X135790762Y-72303194D01*
X135792640Y-72310278D01*
X135793100Y-72318638D01*
X135793100Y-88830589D01*
X135773415Y-88897628D01*
X135750615Y-88924030D01*
X135719204Y-88951431D01*
X135621713Y-89090147D01*
X135560124Y-89248113D01*
X135537994Y-89416211D01*
X127168100Y-89416211D01*
X127168100Y-85875159D01*
X129142344Y-85875159D01*
X129174254Y-86000802D01*
X129178027Y-86011457D01*
X129263683Y-86197259D01*
X129269339Y-86207055D01*
X129387416Y-86374131D01*
X129394765Y-86382735D01*
X129541308Y-86525491D01*
X129550110Y-86532619D01*
X129695798Y-86629964D01*
X129740603Y-86683576D01*
X129749310Y-86752901D01*
X129719156Y-86815928D01*
X129704606Y-86829704D01*
X129602176Y-86912060D01*
X129479207Y-87058608D01*
X129387045Y-87226250D01*
X129385211Y-87232032D01*
X129385210Y-87232034D01*
X129381203Y-87244667D01*
X129329200Y-87408601D01*
X129307876Y-87598714D01*
X129323884Y-87789348D01*
X129325554Y-87795170D01*
X129325554Y-87795173D01*
X129333691Y-87823550D01*
X129376614Y-87973243D01*
X129464060Y-88143393D01*
X129582889Y-88293318D01*
X129728575Y-88417307D01*
X129895570Y-88510637D01*
X130077512Y-88569754D01*
X130083530Y-88570472D01*
X130083532Y-88570472D01*
X130220618Y-88586818D01*
X130267472Y-88592405D01*
X130273516Y-88591940D01*
X130273517Y-88591940D01*
X130332050Y-88587436D01*
X130458213Y-88577728D01*
X130578838Y-88544049D01*
X130636631Y-88527913D01*
X130636633Y-88527912D01*
X130642472Y-88526282D01*
X130813228Y-88440027D01*
X130963979Y-88322248D01*
X130967935Y-88317664D01*
X130967939Y-88317661D01*
X131085020Y-88182020D01*
X131088982Y-88177430D01*
X131183476Y-88011091D01*
X131224631Y-87887373D01*
X131241948Y-87835318D01*
X131241949Y-87835314D01*
X131243861Y-87829566D01*
X131267838Y-87639769D01*
X131268220Y-87612400D01*
X131249552Y-87422008D01*
X131194259Y-87238867D01*
X131104446Y-87069955D01*
X130983535Y-86921703D01*
X130869202Y-86827119D01*
X130830094Y-86769219D01*
X130828498Y-86699368D01*
X130864919Y-86639742D01*
X130887653Y-86623385D01*
X130951426Y-86587671D01*
X130960745Y-86581266D01*
X131118043Y-86450442D01*
X131126042Y-86442443D01*
X131256866Y-86285145D01*
X131263271Y-86275826D01*
X131363236Y-86097325D01*
X131367845Y-86086973D01*
X131433600Y-85893264D01*
X131436246Y-85882241D01*
X131436565Y-85880045D01*
X131434609Y-85866329D01*
X131421257Y-85862400D01*
X129156934Y-85862400D01*
X129143617Y-85866310D01*
X129142344Y-85875159D01*
X127168100Y-85875159D01*
X127168100Y-85359251D01*
X129140271Y-85359251D01*
X129146894Y-85362400D01*
X131420585Y-85362400D01*
X131433902Y-85358490D01*
X131435054Y-85350482D01*
X131391199Y-85194983D01*
X131387143Y-85184416D01*
X131296660Y-85000937D01*
X131290741Y-84991277D01*
X131168335Y-84827355D01*
X131160763Y-84818945D01*
X131010534Y-84680076D01*
X131001549Y-84673181D01*
X130881347Y-84597339D01*
X130835154Y-84544918D01*
X130824634Y-84475845D01*
X130853129Y-84412050D01*
X130871174Y-84394755D01*
X130959200Y-84325982D01*
X130959201Y-84325981D01*
X130963979Y-84322248D01*
X130967935Y-84317664D01*
X130967939Y-84317661D01*
X131085020Y-84182020D01*
X131088982Y-84177430D01*
X131183476Y-84011091D01*
X131243861Y-83829566D01*
X131267838Y-83639769D01*
X131268220Y-83612400D01*
X131249552Y-83422008D01*
X131194259Y-83238867D01*
X131104446Y-83069955D01*
X130983535Y-82921703D01*
X130845419Y-82807444D01*
X130806311Y-82749544D01*
X130804715Y-82679693D01*
X130841136Y-82620067D01*
X130904012Y-82589597D01*
X130924459Y-82587900D01*
X131007646Y-82587900D01*
X131011300Y-82587465D01*
X131011302Y-82587465D01*
X131016266Y-82586874D01*
X131033846Y-82584782D01*
X131136153Y-82539339D01*
X131215241Y-82460113D01*
X131260506Y-82357727D01*
X131263500Y-82332046D01*
X131263500Y-80892754D01*
X131260382Y-80866554D01*
X131214939Y-80764247D01*
X131135713Y-80685159D01*
X131125242Y-80680530D01*
X131125241Y-80680529D01*
X131041853Y-80643663D01*
X131041851Y-80643662D01*
X131033327Y-80639894D01*
X131007646Y-80636900D01*
X129568354Y-80636900D01*
X129564700Y-80637335D01*
X129564698Y-80637335D01*
X129559734Y-80637926D01*
X129542154Y-80640018D01*
X129439847Y-80685461D01*
X129360759Y-80764687D01*
X129315494Y-80867073D01*
X129312500Y-80892754D01*
X129312500Y-82332046D01*
X129315618Y-82358246D01*
X129361061Y-82460553D01*
X129440287Y-82539641D01*
X129450758Y-82544270D01*
X129450759Y-82544271D01*
X129534147Y-82581137D01*
X129534149Y-82581138D01*
X129542673Y-82584906D01*
X129568354Y-82587900D01*
X129653232Y-82587900D01*
X129720271Y-82607585D01*
X129766026Y-82660389D01*
X129775970Y-82729547D01*
X129746945Y-82793103D01*
X129730931Y-82808538D01*
X129602176Y-82912060D01*
X129479207Y-83058608D01*
X129387045Y-83226250D01*
X129385211Y-83232032D01*
X129385210Y-83232034D01*
X129381203Y-83244667D01*
X129329200Y-83408601D01*
X129307876Y-83598714D01*
X129323884Y-83789348D01*
X129376614Y-83973243D01*
X129464060Y-84143393D01*
X129582889Y-84293318D01*
X129587504Y-84297246D01*
X129587513Y-84297255D01*
X129707615Y-84399470D01*
X129745910Y-84457910D01*
X129746531Y-84527777D01*
X129709280Y-84586888D01*
X129690648Y-84600467D01*
X129599277Y-84654826D01*
X129590119Y-84661480D01*
X129436306Y-84796371D01*
X129428516Y-84804580D01*
X129301859Y-84965243D01*
X129295694Y-84974736D01*
X129200437Y-85155792D01*
X129196104Y-85166253D01*
X129140486Y-85345373D01*
X129140271Y-85359251D01*
X127168100Y-85359251D01*
X127168100Y-70581411D01*
X146905194Y-70581411D01*
X146923799Y-70749935D01*
X146926365Y-70756947D01*
X146926366Y-70756951D01*
X146961527Y-70853031D01*
X146982066Y-70909156D01*
X146986233Y-70915358D01*
X146986235Y-70915361D01*
X147029357Y-70979533D01*
X147076630Y-71049883D01*
X147082160Y-71054915D01*
X147196502Y-71158959D01*
X147196506Y-71158962D01*
X147202033Y-71163991D01*
X147351035Y-71244892D01*
X147446385Y-71269907D01*
X147507805Y-71286020D01*
X147507807Y-71286020D01*
X147515033Y-71287916D01*
X147593003Y-71289141D01*
X147677087Y-71290462D01*
X147677090Y-71290462D01*
X147684560Y-71290579D01*
X147684557Y-71290790D01*
X147749420Y-71302653D01*
X147781331Y-71325723D01*
X147880458Y-71424850D01*
X147900194Y-71434906D01*
X147900196Y-71434907D01*
X147916786Y-71445074D01*
X147934710Y-71458096D01*
X147955777Y-71464941D01*
X147973752Y-71472386D01*
X147984799Y-71478015D01*
X147984801Y-71478016D01*
X147993496Y-71482446D01*
X148015394Y-71485914D01*
X148034290Y-71490451D01*
X148055367Y-71497299D01*
X148087277Y-71497299D01*
X148087281Y-71497300D01*
X149325133Y-71497300D01*
X149346199Y-71490455D01*
X149365124Y-71485911D01*
X149387004Y-71482446D01*
X149395697Y-71478017D01*
X149395702Y-71478015D01*
X149406748Y-71472387D01*
X149424719Y-71464943D01*
X149433353Y-71462137D01*
X149445790Y-71458096D01*
X149463716Y-71445072D01*
X149480302Y-71434908D01*
X149500042Y-71424850D01*
X149506946Y-71417946D01*
X149513163Y-71413429D01*
X149578969Y-71389949D01*
X149587995Y-71389762D01*
X149608783Y-71390089D01*
X149734390Y-71392062D01*
X149734393Y-71392062D01*
X149741860Y-71392179D01*
X149864309Y-71364135D01*
X149899838Y-71355998D01*
X149899839Y-71355998D01*
X149907129Y-71354328D01*
X149982211Y-71316566D01*
X150051920Y-71281506D01*
X150051922Y-71281505D01*
X150058598Y-71278147D01*
X150064280Y-71273294D01*
X150064283Y-71273292D01*
X150181841Y-71172887D01*
X150187523Y-71168034D01*
X150286461Y-71030347D01*
X150349701Y-70873034D01*
X150350754Y-70865637D01*
X150373018Y-70709200D01*
X150373018Y-70709194D01*
X150373590Y-70705178D01*
X150373745Y-70690400D01*
X150365687Y-70623811D01*
X150354275Y-70529505D01*
X150354274Y-70529501D01*
X150353376Y-70522080D01*
X150344354Y-70498205D01*
X150296089Y-70370473D01*
X150296087Y-70370470D01*
X150293445Y-70363477D01*
X150214929Y-70249236D01*
X150201649Y-70229913D01*
X150201646Y-70229910D01*
X150197412Y-70223749D01*
X150155440Y-70186353D01*
X150076403Y-70115933D01*
X150076401Y-70115932D01*
X150070821Y-70110960D01*
X150056447Y-70103349D01*
X149927589Y-70035123D01*
X149920981Y-70031624D01*
X149756541Y-69990319D01*
X149670348Y-69989868D01*
X149594468Y-69989470D01*
X149594467Y-69989470D01*
X149586995Y-69989431D01*
X149565335Y-69994631D01*
X149429395Y-70027268D01*
X149429393Y-70027269D01*
X149422132Y-70029012D01*
X149415499Y-70032435D01*
X149415495Y-70032437D01*
X149348565Y-70066983D01*
X149271469Y-70106775D01*
X149143704Y-70218231D01*
X149046213Y-70356947D01*
X148984624Y-70514913D01*
X148983648Y-70522323D01*
X148983648Y-70522325D01*
X148974938Y-70588485D01*
X148946672Y-70652382D01*
X148888347Y-70690853D01*
X148851999Y-70696300D01*
X148439353Y-70696300D01*
X148372314Y-70676615D01*
X148326559Y-70623811D01*
X148316251Y-70587197D01*
X148296975Y-70427905D01*
X148296974Y-70427901D01*
X148296076Y-70420480D01*
X148277180Y-70370473D01*
X148238789Y-70268873D01*
X148238787Y-70268870D01*
X148236145Y-70261877D01*
X148206148Y-70218231D01*
X148144349Y-70128313D01*
X148144346Y-70128310D01*
X148140112Y-70122149D01*
X148039422Y-70032437D01*
X148019103Y-70014333D01*
X148019101Y-70014332D01*
X148013521Y-70009360D01*
X147999147Y-70001749D01*
X147870289Y-69933523D01*
X147863681Y-69930024D01*
X147699241Y-69888719D01*
X147613048Y-69888268D01*
X147537168Y-69887870D01*
X147537167Y-69887870D01*
X147529695Y-69887831D01*
X147508035Y-69893031D01*
X147372095Y-69925668D01*
X147372093Y-69925669D01*
X147364832Y-69927412D01*
X147358199Y-69930835D01*
X147358195Y-69930837D01*
X147291265Y-69965383D01*
X147214169Y-70005175D01*
X147208537Y-70010088D01*
X147092905Y-70110960D01*
X147086404Y-70116631D01*
X146988913Y-70255347D01*
X146927324Y-70413313D01*
X146905194Y-70581411D01*
X127168100Y-70581411D01*
X127168100Y-68367955D01*
X143497100Y-68367955D01*
X143497487Y-68371402D01*
X143497487Y-68371408D01*
X143511281Y-68494381D01*
X143512054Y-68501272D01*
X143571115Y-68670873D01*
X143666284Y-68823175D01*
X143792830Y-68950607D01*
X143944464Y-69046837D01*
X143950999Y-69049164D01*
X144107121Y-69104757D01*
X144107125Y-69104758D01*
X144113649Y-69107081D01*
X144291976Y-69128345D01*
X144298865Y-69127621D01*
X144298868Y-69127621D01*
X144463687Y-69110298D01*
X144463689Y-69110298D01*
X144470583Y-69109573D01*
X144477144Y-69107339D01*
X144477146Y-69107339D01*
X144563882Y-69077811D01*
X144640593Y-69051697D01*
X144793555Y-68957594D01*
X144921868Y-68831941D01*
X145019154Y-68680983D01*
X145080578Y-68512222D01*
X145098100Y-68373517D01*
X145098100Y-67796268D01*
X145117785Y-67729229D01*
X145170589Y-67683474D01*
X145239747Y-67673530D01*
X145306984Y-67705877D01*
X145321896Y-67719880D01*
X145351331Y-67747522D01*
X145351333Y-67747524D01*
X145357018Y-67752862D01*
X145363853Y-67756620D01*
X145363855Y-67756621D01*
X145400832Y-67776949D01*
X145495508Y-67828997D01*
X145572045Y-67848649D01*
X145641024Y-67866360D01*
X145641027Y-67866360D01*
X145648581Y-67868300D01*
X145766950Y-67868300D01*
X145770810Y-67867812D01*
X145770816Y-67867812D01*
X145876654Y-67854442D01*
X145876658Y-67854441D01*
X145884392Y-67853464D01*
X145891642Y-67850594D01*
X145891644Y-67850593D01*
X146024083Y-67798156D01*
X146024082Y-67798156D01*
X146031332Y-67795286D01*
X146159187Y-67702394D01*
X146228996Y-67618009D01*
X146254951Y-67586635D01*
X146254953Y-67586632D01*
X146259924Y-67580623D01*
X146272566Y-67553759D01*
X146323892Y-67444686D01*
X146323892Y-67444684D01*
X146327214Y-67437626D01*
X146335061Y-67396493D01*
X146355366Y-67290046D01*
X146356827Y-67282388D01*
X146351846Y-67203212D01*
X150878373Y-67203212D01*
X150888296Y-67360938D01*
X150890705Y-67368352D01*
X150890706Y-67368357D01*
X150901139Y-67400464D01*
X150937133Y-67511241D01*
X151021814Y-67644677D01*
X151076873Y-67696381D01*
X151131331Y-67747522D01*
X151131333Y-67747524D01*
X151137018Y-67752862D01*
X151143853Y-67756620D01*
X151143855Y-67756621D01*
X151180832Y-67776949D01*
X151275508Y-67828997D01*
X151352045Y-67848649D01*
X151421024Y-67866360D01*
X151421027Y-67866360D01*
X151428581Y-67868300D01*
X151546950Y-67868300D01*
X151550810Y-67867812D01*
X151550816Y-67867812D01*
X151656654Y-67854442D01*
X151656658Y-67854441D01*
X151664392Y-67853464D01*
X151671642Y-67850594D01*
X151671644Y-67850593D01*
X151804083Y-67798156D01*
X151804082Y-67798156D01*
X151811332Y-67795286D01*
X151939187Y-67702394D01*
X151940996Y-67704884D01*
X151990583Y-67679808D01*
X152060083Y-67686992D01*
X152114665Y-67730610D01*
X152137100Y-67801747D01*
X152137100Y-68367955D01*
X152137487Y-68371402D01*
X152137487Y-68371408D01*
X152151281Y-68494381D01*
X152152054Y-68501272D01*
X152211115Y-68670873D01*
X152306284Y-68823175D01*
X152432830Y-68950607D01*
X152584464Y-69046837D01*
X152590999Y-69049164D01*
X152747121Y-69104757D01*
X152747125Y-69104758D01*
X152753649Y-69107081D01*
X152931976Y-69128345D01*
X152938865Y-69127621D01*
X152938868Y-69127621D01*
X153103687Y-69110298D01*
X153103689Y-69110298D01*
X153110583Y-69109573D01*
X153117144Y-69107339D01*
X153117146Y-69107339D01*
X153203882Y-69077811D01*
X153280593Y-69051697D01*
X153433555Y-68957594D01*
X153561868Y-68831941D01*
X153659154Y-68680983D01*
X153720578Y-68512222D01*
X153738100Y-68373517D01*
X153738100Y-67177645D01*
X153737043Y-67168217D01*
X153723919Y-67051219D01*
X153723146Y-67044328D01*
X153664085Y-66874727D01*
X153568916Y-66722425D01*
X153478284Y-66631158D01*
X153447253Y-66599910D01*
X153447252Y-66599909D01*
X153442370Y-66594993D01*
X153290736Y-66498763D01*
X153270819Y-66491671D01*
X153128079Y-66440843D01*
X153128075Y-66440842D01*
X153121551Y-66438519D01*
X152943224Y-66417255D01*
X152936335Y-66417979D01*
X152936332Y-66417979D01*
X152771513Y-66435302D01*
X152771511Y-66435302D01*
X152764617Y-66436027D01*
X152758056Y-66438261D01*
X152758054Y-66438261D01*
X152712500Y-66453769D01*
X152594607Y-66493903D01*
X152588705Y-66497534D01*
X152480512Y-66564095D01*
X152441645Y-66588006D01*
X152313332Y-66713659D01*
X152297595Y-66738078D01*
X152216469Y-66863960D01*
X152163607Y-66909648D01*
X152094436Y-66919503D01*
X152030917Y-66890398D01*
X152007544Y-66863233D01*
X151993386Y-66840923D01*
X151927040Y-66778619D01*
X151883869Y-66738078D01*
X151883867Y-66738076D01*
X151878182Y-66732738D01*
X151871347Y-66728980D01*
X151871345Y-66728979D01*
X151808852Y-66694624D01*
X151739692Y-66656603D01*
X151640592Y-66631158D01*
X151594176Y-66619240D01*
X151594173Y-66619240D01*
X151586619Y-66617300D01*
X151468250Y-66617300D01*
X151464390Y-66617788D01*
X151464384Y-66617788D01*
X151358546Y-66631158D01*
X151358542Y-66631159D01*
X151350808Y-66632136D01*
X151343558Y-66635006D01*
X151343556Y-66635007D01*
X151245074Y-66673999D01*
X151203868Y-66690314D01*
X151076013Y-66783206D01*
X151071039Y-66789219D01*
X150980249Y-66898965D01*
X150980247Y-66898968D01*
X150975276Y-66904977D01*
X150971954Y-66912036D01*
X150971953Y-66912038D01*
X150967450Y-66921607D01*
X150907986Y-67047974D01*
X150878373Y-67203212D01*
X146351846Y-67203212D01*
X146346904Y-67124662D01*
X146344495Y-67117248D01*
X146344494Y-67117243D01*
X146300477Y-66981777D01*
X146298067Y-66974359D01*
X146213386Y-66840923D01*
X146147040Y-66778619D01*
X146103869Y-66738078D01*
X146103867Y-66738076D01*
X146098182Y-66732738D01*
X146091347Y-66728980D01*
X146091345Y-66728979D01*
X146028852Y-66694624D01*
X145959692Y-66656603D01*
X145860592Y-66631158D01*
X145814176Y-66619240D01*
X145814173Y-66619240D01*
X145806619Y-66617300D01*
X145688250Y-66617300D01*
X145684390Y-66617788D01*
X145684384Y-66617788D01*
X145578546Y-66631158D01*
X145578542Y-66631159D01*
X145570808Y-66632136D01*
X145563558Y-66635006D01*
X145563556Y-66635007D01*
X145465074Y-66673999D01*
X145423868Y-66690314D01*
X145296013Y-66783206D01*
X145228664Y-66864617D01*
X145218111Y-66877374D01*
X145160211Y-66916482D01*
X145090360Y-66918078D01*
X145030734Y-66881657D01*
X145017412Y-66864048D01*
X144928916Y-66722425D01*
X144838284Y-66631158D01*
X144807253Y-66599910D01*
X144807252Y-66599909D01*
X144802370Y-66594993D01*
X144650736Y-66498763D01*
X144630819Y-66491671D01*
X144488079Y-66440843D01*
X144488075Y-66440842D01*
X144481551Y-66438519D01*
X144303224Y-66417255D01*
X144296335Y-66417979D01*
X144296332Y-66417979D01*
X144131513Y-66435302D01*
X144131511Y-66435302D01*
X144124617Y-66436027D01*
X144118056Y-66438261D01*
X144118054Y-66438261D01*
X144072500Y-66453769D01*
X143954607Y-66493903D01*
X143948705Y-66497534D01*
X143840512Y-66564095D01*
X143801645Y-66588006D01*
X143673332Y-66713659D01*
X143657595Y-66738078D01*
X143587073Y-66847507D01*
X143576046Y-66864617D01*
X143563544Y-66898965D01*
X143522083Y-67012880D01*
X143514622Y-67033378D01*
X143497100Y-67172083D01*
X143497100Y-68367955D01*
X127168100Y-68367955D01*
X127168100Y-66379939D01*
X127169984Y-66358406D01*
X127170852Y-66353483D01*
X127172736Y-66342800D01*
X127170852Y-66332116D01*
X127170852Y-66326589D01*
X129963596Y-66326589D01*
X129972513Y-66564095D01*
X129973590Y-66569230D01*
X129973591Y-66569235D01*
X130009018Y-66738078D01*
X130021319Y-66796704D01*
X130023248Y-66801588D01*
X130023249Y-66801592D01*
X130050711Y-66871129D01*
X130108620Y-67017763D01*
X130111341Y-67022247D01*
X130111343Y-67022251D01*
X130178213Y-67132449D01*
X130231919Y-67220953D01*
X130387690Y-67400464D01*
X130571480Y-67551162D01*
X130576041Y-67553758D01*
X130576042Y-67553759D01*
X130773475Y-67666145D01*
X130773480Y-67666147D01*
X130778033Y-67668739D01*
X131001444Y-67749834D01*
X131235325Y-67792126D01*
X131260219Y-67793300D01*
X131427280Y-67793300D01*
X131429896Y-67793078D01*
X131429897Y-67793078D01*
X131599190Y-67778713D01*
X131604423Y-67778269D01*
X131834474Y-67718560D01*
X132051176Y-67620943D01*
X132248332Y-67488209D01*
X132420305Y-67324155D01*
X132562179Y-67133470D01*
X132601752Y-67055636D01*
X132667513Y-66926293D01*
X132667515Y-66926288D01*
X132669895Y-66921607D01*
X132671487Y-66916482D01*
X132738815Y-66699648D01*
X132740375Y-66694624D01*
X132744916Y-66660362D01*
X132770915Y-66464212D01*
X132770915Y-66464208D01*
X132771604Y-66459011D01*
X132766632Y-66326589D01*
X164963596Y-66326589D01*
X164972513Y-66564095D01*
X164973590Y-66569230D01*
X164973591Y-66569235D01*
X165009018Y-66738078D01*
X165021319Y-66796704D01*
X165023248Y-66801588D01*
X165023249Y-66801592D01*
X165050711Y-66871129D01*
X165108620Y-67017763D01*
X165111341Y-67022247D01*
X165111343Y-67022251D01*
X165178213Y-67132449D01*
X165231919Y-67220953D01*
X165387690Y-67400464D01*
X165571480Y-67551162D01*
X165576041Y-67553758D01*
X165576042Y-67553759D01*
X165773475Y-67666145D01*
X165773480Y-67666147D01*
X165778033Y-67668739D01*
X166001444Y-67749834D01*
X166235325Y-67792126D01*
X166260219Y-67793300D01*
X166427280Y-67793300D01*
X166429896Y-67793078D01*
X166429897Y-67793078D01*
X166599190Y-67778713D01*
X166604423Y-67778269D01*
X166834474Y-67718560D01*
X167051176Y-67620943D01*
X167248332Y-67488209D01*
X167420305Y-67324155D01*
X167562179Y-67133470D01*
X167601752Y-67055636D01*
X167667513Y-66926293D01*
X167667515Y-66926288D01*
X167669895Y-66921607D01*
X167671487Y-66916482D01*
X167738815Y-66699648D01*
X167740375Y-66694624D01*
X167744916Y-66660362D01*
X167770915Y-66464212D01*
X167770915Y-66464208D01*
X167771604Y-66459011D01*
X167762687Y-66221505D01*
X167735300Y-66090976D01*
X167714961Y-65994042D01*
X167714960Y-65994039D01*
X167713881Y-65988896D01*
X167626580Y-65767837D01*
X167559207Y-65656809D01*
X167506008Y-65569141D01*
X167503281Y-65564647D01*
X167347510Y-65385136D01*
X167163720Y-65234438D01*
X167159158Y-65231841D01*
X166961725Y-65119455D01*
X166961720Y-65119453D01*
X166957167Y-65116861D01*
X166733756Y-65035766D01*
X166499875Y-64993474D01*
X166474981Y-64992300D01*
X166307920Y-64992300D01*
X166305304Y-64992522D01*
X166305303Y-64992522D01*
X166294084Y-64993474D01*
X166130777Y-65007331D01*
X165900726Y-65067040D01*
X165684024Y-65164657D01*
X165486868Y-65297391D01*
X165314895Y-65461445D01*
X165173021Y-65652130D01*
X165170642Y-65656808D01*
X165170642Y-65656809D01*
X165116475Y-65763349D01*
X165065305Y-65863993D01*
X165063746Y-65869013D01*
X165063745Y-65869016D01*
X165035170Y-65961044D01*
X164994825Y-66090976D01*
X164963596Y-66326589D01*
X132766632Y-66326589D01*
X132762687Y-66221505D01*
X132735300Y-66090976D01*
X132714961Y-65994042D01*
X132714960Y-65994039D01*
X132713881Y-65988896D01*
X132626580Y-65767837D01*
X132559207Y-65656809D01*
X132506008Y-65569141D01*
X132503281Y-65564647D01*
X132347510Y-65385136D01*
X132163720Y-65234438D01*
X132159158Y-65231841D01*
X131961725Y-65119455D01*
X131961720Y-65119453D01*
X131957167Y-65116861D01*
X131733756Y-65035766D01*
X131499875Y-64993474D01*
X131474981Y-64992300D01*
X131307920Y-64992300D01*
X131305304Y-64992522D01*
X131305303Y-64992522D01*
X131294084Y-64993474D01*
X131130777Y-65007331D01*
X130900726Y-65067040D01*
X130684024Y-65164657D01*
X130486868Y-65297391D01*
X130314895Y-65461445D01*
X130173021Y-65652130D01*
X130170642Y-65656808D01*
X130170642Y-65656809D01*
X130116475Y-65763349D01*
X130065305Y-65863993D01*
X130063746Y-65869013D01*
X130063745Y-65869016D01*
X130035170Y-65961044D01*
X129994825Y-66090976D01*
X129963596Y-66326589D01*
X127170852Y-66326589D01*
X127170852Y-66326215D01*
X127169698Y-66308245D01*
X127184224Y-65994042D01*
X127185750Y-65961037D01*
X127186806Y-65949639D01*
X127190381Y-65924010D01*
X127238813Y-65576811D01*
X127240917Y-65565560D01*
X127327100Y-65199136D01*
X127330234Y-65188120D01*
X127449863Y-64831197D01*
X127454001Y-64820517D01*
X127606045Y-64476170D01*
X127611150Y-64465917D01*
X127794321Y-64137060D01*
X127800350Y-64127322D01*
X127826782Y-64088737D01*
X127930070Y-63937955D01*
X143497100Y-63937955D01*
X143497487Y-63941402D01*
X143497487Y-63941408D01*
X143511281Y-64064381D01*
X143512054Y-64071272D01*
X143571115Y-64240873D01*
X143666284Y-64393175D01*
X143792830Y-64520607D01*
X143944464Y-64616837D01*
X143950999Y-64619164D01*
X144107121Y-64674757D01*
X144107125Y-64674758D01*
X144113649Y-64677081D01*
X144291976Y-64698345D01*
X144298865Y-64697621D01*
X144298868Y-64697621D01*
X144463687Y-64680298D01*
X144463689Y-64680298D01*
X144470583Y-64679573D01*
X144477144Y-64677339D01*
X144477146Y-64677339D01*
X144563882Y-64647811D01*
X144640593Y-64621697D01*
X144793555Y-64527594D01*
X144921868Y-64401941D01*
X145019154Y-64250983D01*
X145080578Y-64082222D01*
X145098100Y-63943517D01*
X145098100Y-63937955D01*
X152137100Y-63937955D01*
X152137487Y-63941402D01*
X152137487Y-63941408D01*
X152151281Y-64064381D01*
X152152054Y-64071272D01*
X152211115Y-64240873D01*
X152306284Y-64393175D01*
X152432830Y-64520607D01*
X152584464Y-64616837D01*
X152590999Y-64619164D01*
X152747121Y-64674757D01*
X152747125Y-64674758D01*
X152753649Y-64677081D01*
X152931976Y-64698345D01*
X152938865Y-64697621D01*
X152938868Y-64697621D01*
X153103687Y-64680298D01*
X153103689Y-64680298D01*
X153110583Y-64679573D01*
X153117144Y-64677339D01*
X153117146Y-64677339D01*
X153203882Y-64647811D01*
X153280593Y-64621697D01*
X153433555Y-64527594D01*
X153561868Y-64401941D01*
X153659154Y-64250983D01*
X153720578Y-64082222D01*
X153738100Y-63943517D01*
X153738100Y-63247645D01*
X153737043Y-63238217D01*
X153723919Y-63121219D01*
X153723146Y-63114328D01*
X153664085Y-62944727D01*
X153568916Y-62792425D01*
X153442370Y-62664993D01*
X153318449Y-62586350D01*
X153296590Y-62572478D01*
X153290736Y-62568763D01*
X153270819Y-62561671D01*
X153128079Y-62510843D01*
X153128075Y-62510842D01*
X153121551Y-62508519D01*
X152943224Y-62487255D01*
X152936335Y-62487979D01*
X152936332Y-62487979D01*
X152771513Y-62505302D01*
X152771511Y-62505302D01*
X152764617Y-62506027D01*
X152758056Y-62508261D01*
X152758054Y-62508261D01*
X152671318Y-62537789D01*
X152594607Y-62563903D01*
X152441645Y-62658006D01*
X152313332Y-62783659D01*
X152216046Y-62934617D01*
X152154622Y-63103378D01*
X152137100Y-63242083D01*
X152137100Y-63937955D01*
X145098100Y-63937955D01*
X145098100Y-63247645D01*
X145097043Y-63238217D01*
X145083919Y-63121219D01*
X145083146Y-63114328D01*
X145024085Y-62944727D01*
X144928916Y-62792425D01*
X144802370Y-62664993D01*
X144678449Y-62586350D01*
X144656590Y-62572478D01*
X144650736Y-62568763D01*
X144630819Y-62561671D01*
X144488079Y-62510843D01*
X144488075Y-62510842D01*
X144481551Y-62508519D01*
X144303224Y-62487255D01*
X144296335Y-62487979D01*
X144296332Y-62487979D01*
X144131513Y-62505302D01*
X144131511Y-62505302D01*
X144124617Y-62506027D01*
X144118056Y-62508261D01*
X144118054Y-62508261D01*
X144031318Y-62537789D01*
X143954607Y-62563903D01*
X143801645Y-62658006D01*
X143673332Y-62783659D01*
X143576046Y-62934617D01*
X143514622Y-63103378D01*
X143497100Y-63242083D01*
X143497100Y-63937955D01*
X127930070Y-63937955D01*
X128013088Y-63816764D01*
X128019989Y-63807627D01*
X128260476Y-63518019D01*
X128268192Y-63509555D01*
X128534355Y-63243392D01*
X128542819Y-63235676D01*
X128832427Y-62995189D01*
X128841567Y-62988286D01*
X128905155Y-62944727D01*
X129152128Y-62775546D01*
X129161854Y-62769524D01*
X129490717Y-62586350D01*
X129500970Y-62581245D01*
X129845317Y-62429201D01*
X129855997Y-62425063D01*
X130212920Y-62305434D01*
X130223936Y-62302300D01*
X130407148Y-62259209D01*
X130590367Y-62216116D01*
X130601611Y-62214013D01*
X130974446Y-62162005D01*
X130985837Y-62160950D01*
X131127680Y-62154392D01*
X131333045Y-62144898D01*
X131351015Y-62146052D01*
X131356916Y-62146052D01*
X131367600Y-62147936D01*
X131383209Y-62145184D01*
X131404739Y-62143300D01*
X166330461Y-62143300D01*
X166351991Y-62145184D01*
G37*
%TD.AperFunction*%
%TD*%
M02*
