%TF.GenerationSoftware,KiCad,Pcbnew,(6.0.7-1)-1*%
%TF.CreationDate,2023-05-14T20:29:57-05:00*%
%TF.ProjectId,ESP32-C3,45535033-322d-4433-932e-6b696361645f,1.0*%
%TF.SameCoordinates,Original*%
%TF.FileFunction,Legend,Bot*%
%TF.FilePolarity,Positive*%
%FSLAX46Y46*%
G04 Gerber Fmt 4.6, Leading zero omitted, Abs format (unit mm)*
G04 Created by KiCad (PCBNEW (6.0.7-1)-1) date 2023-05-14 20:29:57*
%MOMM*%
%LPD*%
G01*
G04 APERTURE LIST*
%ADD10C,0.250000*%
G04 APERTURE END LIST*
D10*
X150099809Y-63140180D02*
X149766476Y-64140180D01*
X149433142Y-63140180D01*
X148576000Y-64140180D02*
X149147428Y-64140180D01*
X148861714Y-64140180D02*
X148861714Y-63140180D01*
X148956952Y-63283038D01*
X149052190Y-63378276D01*
X149147428Y-63425895D01*
X148147428Y-64044942D02*
X148099809Y-64092561D01*
X148147428Y-64140180D01*
X148195047Y-64092561D01*
X148147428Y-64044942D01*
X148147428Y-64140180D01*
X147480761Y-63140180D02*
X147385523Y-63140180D01*
X147290285Y-63187800D01*
X147242666Y-63235419D01*
X147195047Y-63330657D01*
X147147428Y-63521133D01*
X147147428Y-63759228D01*
X147195047Y-63949704D01*
X147242666Y-64044942D01*
X147290285Y-64092561D01*
X147385523Y-64140180D01*
X147480761Y-64140180D01*
X147576000Y-64092561D01*
X147623619Y-64044942D01*
X147671238Y-63949704D01*
X147718857Y-63759228D01*
X147718857Y-63521133D01*
X147671238Y-63330657D01*
X147623619Y-63235419D01*
X147576000Y-63187800D01*
X147480761Y-63140180D01*
X152028380Y-65750180D02*
X152028380Y-64750180D01*
X151695047Y-65464466D01*
X151361714Y-64750180D01*
X151361714Y-65750180D01*
X150456952Y-65750180D02*
X150456952Y-65226371D01*
X150504571Y-65131133D01*
X150599809Y-65083514D01*
X150790285Y-65083514D01*
X150885523Y-65131133D01*
X150456952Y-65702561D02*
X150552190Y-65750180D01*
X150790285Y-65750180D01*
X150885523Y-65702561D01*
X150933142Y-65607323D01*
X150933142Y-65512085D01*
X150885523Y-65416847D01*
X150790285Y-65369228D01*
X150552190Y-65369228D01*
X150456952Y-65321609D01*
X150076000Y-65083514D02*
X149837904Y-65750180D01*
X149599809Y-65083514D02*
X149837904Y-65750180D01*
X149933142Y-65988276D01*
X149980761Y-66035895D01*
X150076000Y-66083514D01*
X148504571Y-64845419D02*
X148456952Y-64797800D01*
X148361714Y-64750180D01*
X148123619Y-64750180D01*
X148028380Y-64797800D01*
X147980761Y-64845419D01*
X147933142Y-64940657D01*
X147933142Y-65035895D01*
X147980761Y-65178752D01*
X148552190Y-65750180D01*
X147933142Y-65750180D01*
X147314095Y-64750180D02*
X147218857Y-64750180D01*
X147123619Y-64797800D01*
X147076000Y-64845419D01*
X147028380Y-64940657D01*
X146980761Y-65131133D01*
X146980761Y-65369228D01*
X147028380Y-65559704D01*
X147076000Y-65654942D01*
X147123619Y-65702561D01*
X147218857Y-65750180D01*
X147314095Y-65750180D01*
X147409333Y-65702561D01*
X147456952Y-65654942D01*
X147504571Y-65559704D01*
X147552190Y-65369228D01*
X147552190Y-65131133D01*
X147504571Y-64940657D01*
X147456952Y-64845419D01*
X147409333Y-64797800D01*
X147314095Y-64750180D01*
X146599809Y-64845419D02*
X146552190Y-64797800D01*
X146456952Y-64750180D01*
X146218857Y-64750180D01*
X146123619Y-64797800D01*
X146076000Y-64845419D01*
X146028380Y-64940657D01*
X146028380Y-65035895D01*
X146076000Y-65178752D01*
X146647428Y-65750180D01*
X146028380Y-65750180D01*
X145695047Y-64750180D02*
X145076000Y-64750180D01*
X145409333Y-65131133D01*
X145266476Y-65131133D01*
X145171238Y-65178752D01*
X145123619Y-65226371D01*
X145076000Y-65321609D01*
X145076000Y-65559704D01*
X145123619Y-65654942D01*
X145171238Y-65702561D01*
X145266476Y-65750180D01*
X145552190Y-65750180D01*
X145647428Y-65702561D01*
X145695047Y-65654942D01*
%TO.C,G\u002A\u002A\u002A*%
G36*
X165935445Y-96064457D02*
G01*
X165932249Y-96110297D01*
X165911707Y-96123776D01*
X165902751Y-96107786D01*
X165908139Y-96037151D01*
X165924407Y-96016231D01*
X165935445Y-96064457D01*
G37*
G36*
X167263196Y-88416879D02*
G01*
X167285908Y-88489636D01*
X167294885Y-88610928D01*
X167292811Y-88671708D01*
X167276643Y-88773913D01*
X167249689Y-88814308D01*
X167236183Y-88804976D01*
X167213470Y-88732219D01*
X167204494Y-88610928D01*
X167206567Y-88550147D01*
X167222736Y-88447942D01*
X167249689Y-88407547D01*
X167263196Y-88416879D01*
G37*
G36*
X167264903Y-86669179D02*
G01*
X167280985Y-86773053D01*
X167291267Y-86949193D01*
X167294885Y-87187262D01*
X167292863Y-87369821D01*
X167284207Y-87562814D01*
X167269529Y-87686189D01*
X167249689Y-87729611D01*
X167234476Y-87705346D01*
X167218393Y-87601471D01*
X167208112Y-87425332D01*
X167204494Y-87187262D01*
X167206516Y-87004703D01*
X167215172Y-86811711D01*
X167229850Y-86688335D01*
X167249689Y-86644913D01*
X167264903Y-86669179D01*
G37*
G36*
X167263196Y-81682715D02*
G01*
X167285908Y-81755472D01*
X167294885Y-81876764D01*
X167292811Y-81937544D01*
X167276643Y-82039749D01*
X167249689Y-82080145D01*
X167236183Y-82070813D01*
X167213470Y-81998055D01*
X167204494Y-81876764D01*
X167206567Y-81815984D01*
X167222736Y-81713779D01*
X167249689Y-81673383D01*
X167263196Y-81682715D01*
G37*
G36*
X167255514Y-80274931D02*
G01*
X167276139Y-80336907D01*
X167289887Y-80469393D01*
X167294885Y-80656479D01*
X167294577Y-80705992D01*
X167287286Y-80881303D01*
X167271700Y-80998156D01*
X167249689Y-81040643D01*
X167243864Y-81038028D01*
X167223240Y-80976052D01*
X167209492Y-80843565D01*
X167204494Y-80656479D01*
X167204801Y-80606967D01*
X167212093Y-80431656D01*
X167227679Y-80314802D01*
X167249689Y-80272316D01*
X167255514Y-80274931D01*
G37*
G36*
X167255514Y-75303400D02*
G01*
X167276139Y-75365377D01*
X167289887Y-75497863D01*
X167294885Y-75684949D01*
X167294577Y-75734462D01*
X167287286Y-75909772D01*
X167271700Y-76026626D01*
X167249689Y-76069113D01*
X167243864Y-76066498D01*
X167223240Y-76004521D01*
X167209492Y-75872035D01*
X167204494Y-75684949D01*
X167204801Y-75635436D01*
X167212093Y-75460126D01*
X167227679Y-75343272D01*
X167249689Y-75300785D01*
X167255514Y-75303400D01*
G37*
G36*
X167254457Y-72501332D02*
G01*
X167271479Y-72566307D01*
X167284187Y-72712769D01*
X167292137Y-72933625D01*
X167294885Y-73221782D01*
X167294718Y-73298063D01*
X167290657Y-73570421D01*
X167281503Y-73773744D01*
X167267699Y-73900939D01*
X167249689Y-73944913D01*
X167244922Y-73942232D01*
X167227899Y-73877256D01*
X167215192Y-73730795D01*
X167207242Y-73509939D01*
X167204494Y-73221782D01*
X167204661Y-73145501D01*
X167208722Y-72873142D01*
X167217876Y-72669820D01*
X167231680Y-72542625D01*
X167249689Y-72498650D01*
X167254457Y-72501332D01*
G37*
G36*
X167927625Y-88898210D02*
G01*
X167905984Y-88950158D01*
X167819172Y-89004166D01*
X167691792Y-89032955D01*
X167551887Y-89031181D01*
X167427501Y-88993501D01*
X167392297Y-88972126D01*
X167340484Y-88912415D01*
X167366709Y-88876059D01*
X167464369Y-88882876D01*
X167559745Y-88905178D01*
X167633853Y-88916047D01*
X167696725Y-88907377D01*
X167803337Y-88882876D01*
X167889962Y-88870585D01*
X167927625Y-88898210D01*
G37*
G36*
X167717870Y-88190206D02*
G01*
X167840205Y-88228354D01*
X167884010Y-88257873D01*
X167925022Y-88312688D01*
X167913848Y-88347146D01*
X167848533Y-88335986D01*
X167760268Y-88311820D01*
X167633853Y-88299950D01*
X167522380Y-88309312D01*
X167419173Y-88335986D01*
X167363580Y-88349250D01*
X167340081Y-88304664D01*
X167363233Y-88255560D01*
X167451265Y-88208100D01*
X167578850Y-88184885D01*
X167717870Y-88190206D01*
G37*
G36*
X167439451Y-87742002D02*
G01*
X167526985Y-87779034D01*
X167678048Y-87852015D01*
X167799498Y-87916189D01*
X167900769Y-87984661D01*
X167929813Y-88029742D01*
X167880927Y-88045981D01*
X167852919Y-88041309D01*
X167757201Y-88005030D01*
X167635340Y-87945221D01*
X167514574Y-87876825D01*
X167422141Y-87814785D01*
X167385277Y-87774045D01*
X167385927Y-87757399D01*
X167398185Y-87736322D01*
X167439451Y-87742002D01*
G37*
G36*
X167928203Y-86341940D02*
G01*
X167915767Y-86386417D01*
X167837912Y-86452724D01*
X167703149Y-86531163D01*
X167593730Y-86584580D01*
X167470313Y-86633705D01*
X167404633Y-86638175D01*
X167385277Y-86600479D01*
X167393793Y-86585113D01*
X167459917Y-86532597D01*
X167568930Y-86465739D01*
X167693594Y-86399482D01*
X167806672Y-86348769D01*
X167880927Y-86328543D01*
X167928203Y-86341940D01*
G37*
G36*
X167925753Y-82154573D02*
G01*
X167909098Y-82203658D01*
X167840205Y-82259338D01*
X167708824Y-82299368D01*
X167542808Y-82295930D01*
X167405285Y-82242025D01*
X167372500Y-82214415D01*
X167344321Y-82159798D01*
X167384195Y-82140349D01*
X167476862Y-82171175D01*
X167508439Y-82185736D01*
X167658720Y-82203049D01*
X167848533Y-82148915D01*
X167888252Y-82137490D01*
X167925753Y-82154573D01*
G37*
G36*
X167717614Y-81457162D02*
G01*
X167840205Y-81494190D01*
X167875410Y-81515565D01*
X167927223Y-81575277D01*
X167900997Y-81611633D01*
X167803337Y-81604816D01*
X167677211Y-81576018D01*
X167582213Y-81574369D01*
X167463561Y-81598918D01*
X167377710Y-81608917D01*
X167340081Y-81585443D01*
X167362875Y-81533999D01*
X167450728Y-81482216D01*
X167578381Y-81454887D01*
X167717614Y-81457162D01*
G37*
G36*
X167912502Y-80638289D02*
G01*
X167927625Y-80692260D01*
X167892176Y-80739687D01*
X167801642Y-80803411D01*
X167682098Y-80869894D01*
X167559623Y-80925946D01*
X167460293Y-80958375D01*
X167410186Y-80953992D01*
X167405613Y-80929990D01*
X167442269Y-80870450D01*
X167509600Y-80827102D01*
X167620136Y-80765801D01*
X167742705Y-80702838D01*
X167847129Y-80653702D01*
X167903227Y-80633881D01*
X167912502Y-80638289D01*
G37*
G36*
X167928203Y-79969342D02*
G01*
X167915767Y-80013819D01*
X167837912Y-80080126D01*
X167703149Y-80158565D01*
X167593730Y-80211982D01*
X167470313Y-80261107D01*
X167404633Y-80265577D01*
X167385277Y-80227881D01*
X167393793Y-80212515D01*
X167459917Y-80160000D01*
X167568930Y-80093141D01*
X167693594Y-80026884D01*
X167806672Y-79976171D01*
X167880927Y-79955945D01*
X167928203Y-79969342D01*
G37*
G36*
X167928203Y-75720943D02*
G01*
X167915767Y-75765420D01*
X167837912Y-75831728D01*
X167703149Y-75910166D01*
X167593730Y-75963583D01*
X167470313Y-76012708D01*
X167404633Y-76017179D01*
X167385277Y-75979483D01*
X167393793Y-75964116D01*
X167459917Y-75911601D01*
X167568930Y-75844743D01*
X167693594Y-75778485D01*
X167806672Y-75727772D01*
X167880927Y-75707547D01*
X167928203Y-75720943D01*
G37*
G36*
X167910686Y-74985463D02*
G01*
X167927625Y-75028850D01*
X167919109Y-75044216D01*
X167852985Y-75096731D01*
X167743972Y-75163590D01*
X167619308Y-75229847D01*
X167506230Y-75280560D01*
X167431975Y-75300785D01*
X167387547Y-75291321D01*
X167398278Y-75252711D01*
X167482615Y-75189393D01*
X167634854Y-75106820D01*
X167751895Y-75050608D01*
X167857203Y-75002796D01*
X167906029Y-74984415D01*
X167910686Y-74985463D01*
G37*
G36*
X167912502Y-72141492D02*
G01*
X167927625Y-72195463D01*
X167892176Y-72242890D01*
X167801642Y-72306614D01*
X167682098Y-72373097D01*
X167559623Y-72429149D01*
X167460293Y-72461578D01*
X167410186Y-72457195D01*
X167405613Y-72433192D01*
X167442269Y-72373653D01*
X167509600Y-72330304D01*
X167620136Y-72269004D01*
X167742705Y-72206041D01*
X167847129Y-72156905D01*
X167903227Y-72137084D01*
X167912502Y-72141492D01*
G37*
G36*
X167943846Y-93724198D02*
G01*
X167959420Y-93833656D01*
X167969340Y-94015657D01*
X167972821Y-94260394D01*
X167970521Y-94463154D01*
X167961764Y-94657831D01*
X167947204Y-94781829D01*
X167927625Y-94825341D01*
X167911404Y-94796590D01*
X167895830Y-94687132D01*
X167885911Y-94505131D01*
X167882430Y-94260394D01*
X167884730Y-94057633D01*
X167893486Y-93862956D01*
X167908046Y-93738959D01*
X167927625Y-93695447D01*
X167943846Y-93724198D01*
G37*
G36*
X167934939Y-90542023D02*
G01*
X167948262Y-90628705D01*
X167958830Y-90800865D01*
X167966524Y-91055204D01*
X167971227Y-91388424D01*
X167972821Y-91797227D01*
X167972454Y-92001996D01*
X167969358Y-92375056D01*
X167963210Y-92670955D01*
X167954126Y-92886396D01*
X167942225Y-93018080D01*
X167927625Y-93062707D01*
X167920312Y-93052430D01*
X167906989Y-92965748D01*
X167896421Y-92793589D01*
X167888726Y-92539249D01*
X167884023Y-92206029D01*
X167882430Y-91797227D01*
X167882797Y-91592457D01*
X167885892Y-91219398D01*
X167892041Y-90923498D01*
X167901125Y-90708057D01*
X167913025Y-90576374D01*
X167927625Y-90531746D01*
X167934939Y-90542023D01*
G37*
G36*
X167931668Y-89131884D02*
G01*
X167953104Y-89187362D01*
X167967535Y-89313188D01*
X167972821Y-89492244D01*
X167972670Y-89524589D01*
X167965736Y-89696078D01*
X167950007Y-89811524D01*
X167927625Y-89853810D01*
X167923582Y-89852605D01*
X167902146Y-89797127D01*
X167887715Y-89671301D01*
X167882430Y-89492244D01*
X167882580Y-89459899D01*
X167889515Y-89288411D01*
X167905243Y-89172965D01*
X167927625Y-89130679D01*
X167931668Y-89131884D01*
G37*
G36*
X167941132Y-88416879D02*
G01*
X167963844Y-88489636D01*
X167972821Y-88610928D01*
X167970747Y-88671708D01*
X167954579Y-88773913D01*
X167927625Y-88814308D01*
X167914119Y-88804976D01*
X167891406Y-88732219D01*
X167882430Y-88610928D01*
X167884503Y-88550147D01*
X167900672Y-88447942D01*
X167927625Y-88407547D01*
X167941132Y-88416879D01*
G37*
G36*
X167941132Y-87015812D02*
G01*
X167963844Y-87088569D01*
X167972821Y-87209860D01*
X167970747Y-87270641D01*
X167954579Y-87372845D01*
X167927625Y-87413241D01*
X167914119Y-87403909D01*
X167891406Y-87331152D01*
X167882430Y-87209860D01*
X167884503Y-87149080D01*
X167900672Y-87046875D01*
X167927625Y-87006479D01*
X167941132Y-87015812D01*
G37*
G36*
X167933432Y-83440130D02*
G01*
X167950046Y-83510172D01*
X167962424Y-83661661D01*
X167970153Y-83887788D01*
X167972821Y-84181746D01*
X167972572Y-84277561D01*
X167968327Y-84551688D01*
X167959146Y-84755921D01*
X167945441Y-84883452D01*
X167927625Y-84927476D01*
X167921818Y-84923362D01*
X167905205Y-84853320D01*
X167892827Y-84701832D01*
X167885098Y-84475705D01*
X167882430Y-84181746D01*
X167882679Y-84085932D01*
X167886924Y-83811805D01*
X167896105Y-83607572D01*
X167909810Y-83480040D01*
X167927625Y-83436017D01*
X167933432Y-83440130D01*
G37*
G36*
X167933450Y-82399130D02*
G01*
X167954075Y-82461106D01*
X167967823Y-82593592D01*
X167972821Y-82780679D01*
X167972513Y-82830191D01*
X167965222Y-83005502D01*
X167949635Y-83122356D01*
X167927625Y-83164842D01*
X167921800Y-83162227D01*
X167901176Y-83100251D01*
X167887428Y-82967765D01*
X167882430Y-82780679D01*
X167882737Y-82731166D01*
X167890029Y-82555855D01*
X167905615Y-82439002D01*
X167927625Y-82396515D01*
X167933450Y-82399130D01*
G37*
G36*
X167941132Y-81682715D02*
G01*
X167963844Y-81755472D01*
X167972821Y-81876764D01*
X167970747Y-81937544D01*
X167954579Y-82039749D01*
X167927625Y-82080145D01*
X167914119Y-82070813D01*
X167891406Y-81998055D01*
X167882430Y-81876764D01*
X167884503Y-81815984D01*
X167900672Y-81713779D01*
X167927625Y-81673383D01*
X167941132Y-81682715D01*
G37*
G36*
X167941132Y-80959584D02*
G01*
X167963844Y-81032341D01*
X167972821Y-81153632D01*
X167970747Y-81214413D01*
X167954579Y-81316618D01*
X167927625Y-81357013D01*
X167914119Y-81347681D01*
X167891406Y-81274924D01*
X167882430Y-81153632D01*
X167884503Y-81092852D01*
X167900672Y-80990647D01*
X167927625Y-80950252D01*
X167941132Y-80959584D01*
G37*
G36*
X167932393Y-78150798D02*
G01*
X167949415Y-78215773D01*
X167962123Y-78362235D01*
X167970073Y-78583091D01*
X167972821Y-78871248D01*
X167972653Y-78947529D01*
X167968592Y-79219887D01*
X167959439Y-79423210D01*
X167945635Y-79550405D01*
X167927625Y-79594380D01*
X167922858Y-79591698D01*
X167905835Y-79526723D01*
X167893128Y-79380261D01*
X167885178Y-79159405D01*
X167882430Y-78871248D01*
X167882597Y-78794967D01*
X167886658Y-78522609D01*
X167895812Y-78319286D01*
X167909616Y-78192091D01*
X167927625Y-78148116D01*
X167932393Y-78150798D01*
G37*
G36*
X167942839Y-76771314D02*
G01*
X167958921Y-76875188D01*
X167969203Y-77051328D01*
X167972821Y-77289397D01*
X167970799Y-77471957D01*
X167962143Y-77664949D01*
X167947464Y-77788324D01*
X167927625Y-77831746D01*
X167912412Y-77807481D01*
X167896329Y-77703607D01*
X167886048Y-77527467D01*
X167882430Y-77289397D01*
X167884452Y-77106838D01*
X167893108Y-76913846D01*
X167907786Y-76790471D01*
X167927625Y-76747049D01*
X167942839Y-76771314D01*
G37*
G36*
X167933450Y-73902333D02*
G01*
X167954075Y-73964309D01*
X167967823Y-74096795D01*
X167972821Y-74283881D01*
X167972513Y-74333394D01*
X167965222Y-74508705D01*
X167949635Y-74625558D01*
X167927625Y-74668045D01*
X167921800Y-74665430D01*
X167901176Y-74603454D01*
X167887428Y-74470968D01*
X167882430Y-74283881D01*
X167882737Y-74234369D01*
X167890029Y-74059058D01*
X167905615Y-73942204D01*
X167927625Y-73899718D01*
X167933450Y-73902333D01*
G37*
G36*
X167941265Y-72833505D02*
G01*
X167957648Y-72920624D01*
X167968404Y-73057123D01*
X167973005Y-73218374D01*
X167970921Y-73379747D01*
X167961623Y-73516614D01*
X167944583Y-73604346D01*
X167942290Y-73609204D01*
X167882171Y-73668490D01*
X167771599Y-73744172D01*
X167640056Y-73819261D01*
X167517021Y-73876773D01*
X167431975Y-73899718D01*
X167431957Y-73899718D01*
X167381022Y-73881904D01*
X167403344Y-73834448D01*
X167490447Y-73766305D01*
X167633853Y-73686431D01*
X167882430Y-73564517D01*
X167882430Y-73189769D01*
X167882667Y-73147488D01*
X167889817Y-72973714D01*
X167905462Y-72857426D01*
X167927625Y-72815020D01*
X167941265Y-72833505D01*
G37*
G36*
X168144565Y-83219077D02*
G01*
X168190518Y-83281997D01*
X168188226Y-83329868D01*
X168127310Y-83327863D01*
X168090045Y-83314489D01*
X168036918Y-83300429D01*
X168028304Y-83292933D01*
X168018017Y-83232636D01*
X168023690Y-83193822D01*
X168067599Y-83168318D01*
X168144565Y-83219077D01*
G37*
G36*
X168129914Y-77921231D02*
G01*
X168175255Y-77969180D01*
X168197205Y-78031144D01*
X168159138Y-78057725D01*
X168140794Y-78054014D01*
X168080422Y-78008928D01*
X168034930Y-77942321D01*
X168033082Y-77892007D01*
X168061649Y-77886386D01*
X168129914Y-77921231D01*
G37*
G36*
X168344518Y-73949523D02*
G01*
X168369559Y-74012490D01*
X168379583Y-74125696D01*
X168378430Y-74166221D01*
X168362689Y-74266384D01*
X168334387Y-74306479D01*
X168324256Y-74301869D01*
X168299215Y-74238903D01*
X168289191Y-74125696D01*
X168290344Y-74085172D01*
X168306085Y-73985009D01*
X168334387Y-73944913D01*
X168344518Y-73949523D01*
G37*
G36*
X168346351Y-78878037D02*
G01*
X168370900Y-78945993D01*
X168381621Y-79063330D01*
X168382615Y-79093416D01*
X168404604Y-79255075D01*
X168445744Y-79390999D01*
X168471473Y-79448424D01*
X168505458Y-79542667D01*
X168497373Y-79584741D01*
X168447376Y-79594380D01*
X168411146Y-79582218D01*
X168378145Y-79515287D01*
X168376333Y-79480525D01*
X168359864Y-79465711D01*
X168310819Y-79523287D01*
X168263719Y-79572765D01*
X168218242Y-79578585D01*
X168206428Y-79516414D01*
X168235327Y-79397953D01*
X168241823Y-79378614D01*
X168275479Y-79223605D01*
X168289191Y-79060121D01*
X168290662Y-79012394D01*
X168306591Y-78911457D01*
X168334387Y-78871248D01*
X168346351Y-78878037D01*
G37*
G36*
X168225633Y-94846182D02*
G01*
X168358799Y-94903930D01*
X168470230Y-94964912D01*
X168567944Y-95033997D01*
X168605561Y-95083332D01*
X168600199Y-95124629D01*
X168571015Y-95135891D01*
X168499331Y-95110607D01*
X168366483Y-95045850D01*
X168270805Y-94996249D01*
X168145199Y-94921165D01*
X168087828Y-94865787D01*
X168088122Y-94821600D01*
X168126939Y-94817450D01*
X168225633Y-94846182D01*
G37*
G36*
X168225332Y-93084015D02*
G01*
X168358799Y-93141296D01*
X168481938Y-93209091D01*
X168590126Y-93302808D01*
X168609207Y-93392732D01*
X168539441Y-93483986D01*
X168381085Y-93581697D01*
X168293526Y-93624795D01*
X168158957Y-93680929D01*
X168085494Y-93691196D01*
X168063213Y-93657977D01*
X168082785Y-93633599D01*
X168164863Y-93579119D01*
X168289191Y-93514664D01*
X168381234Y-93468918D01*
X168477733Y-93412746D01*
X168515170Y-93378606D01*
X168478739Y-93340951D01*
X168390882Y-93292665D01*
X168346751Y-93272289D01*
X168192691Y-93188357D01*
X168102090Y-93115460D01*
X168086184Y-93062102D01*
X168125879Y-93056508D01*
X168225332Y-93084015D01*
G37*
G36*
X168606139Y-90228773D02*
G01*
X168593703Y-90273250D01*
X168515848Y-90339557D01*
X168381085Y-90417996D01*
X168271666Y-90471412D01*
X168148248Y-90520538D01*
X168082569Y-90525008D01*
X168063213Y-90487312D01*
X168071729Y-90471945D01*
X168137853Y-90419430D01*
X168246866Y-90352572D01*
X168371530Y-90286314D01*
X168484608Y-90235601D01*
X168558863Y-90215376D01*
X168606139Y-90228773D01*
G37*
G36*
X168216524Y-89889759D02*
G01*
X168381085Y-89967561D01*
X168499126Y-90034817D01*
X168586022Y-90103553D01*
X168608771Y-90151907D01*
X168558863Y-90170180D01*
X168530855Y-90165508D01*
X168435137Y-90129229D01*
X168313276Y-90069420D01*
X168192510Y-90001024D01*
X168100076Y-89938984D01*
X168063213Y-89898245D01*
X168070245Y-89870222D01*
X168116716Y-89858143D01*
X168216524Y-89889759D01*
G37*
G36*
X168606139Y-88466139D02*
G01*
X168593703Y-88510616D01*
X168515848Y-88576924D01*
X168381085Y-88655362D01*
X168271666Y-88708779D01*
X168148248Y-88757904D01*
X168082569Y-88762374D01*
X168063213Y-88724678D01*
X168071729Y-88709312D01*
X168137853Y-88656797D01*
X168246866Y-88589938D01*
X168371530Y-88523681D01*
X168484608Y-88472968D01*
X168558863Y-88452743D01*
X168606139Y-88466139D01*
G37*
G36*
X168606139Y-85980374D02*
G01*
X168593703Y-86024851D01*
X168515848Y-86091158D01*
X168381085Y-86169597D01*
X168271666Y-86223014D01*
X168148248Y-86272139D01*
X168082569Y-86276609D01*
X168063213Y-86238913D01*
X168071729Y-86223547D01*
X168137853Y-86171032D01*
X168246866Y-86104173D01*
X168371530Y-86037916D01*
X168484608Y-85987203D01*
X168558863Y-85966978D01*
X168606139Y-85980374D01*
G37*
G36*
X168225633Y-84948317D02*
G01*
X168358799Y-85006065D01*
X168470230Y-85067047D01*
X168567944Y-85136133D01*
X168605561Y-85185467D01*
X168600199Y-85226764D01*
X168571015Y-85238026D01*
X168499331Y-85212742D01*
X168366483Y-85147985D01*
X168270805Y-85098384D01*
X168145199Y-85023301D01*
X168087828Y-84967922D01*
X168088122Y-84923735D01*
X168126939Y-84919585D01*
X168225633Y-84948317D01*
G37*
G36*
X168588622Y-83482260D02*
G01*
X168605561Y-83525647D01*
X168597045Y-83541013D01*
X168530921Y-83593528D01*
X168421908Y-83660387D01*
X168297244Y-83726644D01*
X168184166Y-83777357D01*
X168109911Y-83797583D01*
X168065482Y-83788118D01*
X168076214Y-83749509D01*
X168160551Y-83686191D01*
X168312790Y-83603617D01*
X168429831Y-83547405D01*
X168535139Y-83499594D01*
X168583965Y-83481212D01*
X168588622Y-83482260D01*
G37*
G36*
X168606139Y-81731975D02*
G01*
X168593703Y-81776452D01*
X168515848Y-81842760D01*
X168381085Y-81921198D01*
X168271666Y-81974615D01*
X168148248Y-82023740D01*
X168082569Y-82028211D01*
X168063213Y-81990515D01*
X168071729Y-81975148D01*
X168137853Y-81922633D01*
X168246866Y-81855775D01*
X168371530Y-81789517D01*
X168484608Y-81738804D01*
X168558863Y-81718579D01*
X168606139Y-81731975D01*
G37*
G36*
X168588622Y-79595427D02*
G01*
X168605561Y-79638814D01*
X168597045Y-79654180D01*
X168530921Y-79706696D01*
X168421908Y-79773554D01*
X168297244Y-79839811D01*
X168184166Y-79890525D01*
X168109911Y-79910750D01*
X168065482Y-79901286D01*
X168076214Y-79862676D01*
X168160551Y-79799358D01*
X168312790Y-79716784D01*
X168429831Y-79660573D01*
X168535139Y-79612761D01*
X168583965Y-79594380D01*
X168588622Y-79595427D01*
G37*
G36*
X168395805Y-78292341D02*
G01*
X168518141Y-78330489D01*
X168561946Y-78360008D01*
X168602958Y-78414823D01*
X168591784Y-78449281D01*
X168526469Y-78438121D01*
X168438204Y-78413955D01*
X168311789Y-78402085D01*
X168200316Y-78411447D01*
X168097109Y-78438121D01*
X168041516Y-78451385D01*
X168018017Y-78406799D01*
X168041169Y-78357695D01*
X168129201Y-78310235D01*
X168256786Y-78287020D01*
X168395805Y-78292341D01*
G37*
G36*
X168216524Y-76105062D02*
G01*
X168381085Y-76182863D01*
X168497416Y-76249598D01*
X168596166Y-76342398D01*
X168606153Y-76432193D01*
X168527117Y-76524106D01*
X168358799Y-76623264D01*
X168242428Y-76674194D01*
X168136776Y-76706271D01*
X168086184Y-76702458D01*
X168082709Y-76694075D01*
X168109924Y-76640608D01*
X168214216Y-76564850D01*
X168399880Y-76463530D01*
X168533167Y-76396125D01*
X168298190Y-76277053D01*
X168196601Y-76221180D01*
X168100379Y-76156290D01*
X168063213Y-76113547D01*
X168070245Y-76085524D01*
X168116716Y-76073445D01*
X168216524Y-76105062D01*
G37*
G36*
X168605561Y-74751947D02*
G01*
X168583920Y-74803895D01*
X168497108Y-74857903D01*
X168369728Y-74886692D01*
X168229823Y-74884918D01*
X168105437Y-74847238D01*
X168070232Y-74825863D01*
X168018419Y-74766151D01*
X168044645Y-74729796D01*
X168142305Y-74736612D01*
X168237681Y-74758914D01*
X168311789Y-74769783D01*
X168374661Y-74761113D01*
X168481273Y-74736612D01*
X168567898Y-74724321D01*
X168605561Y-74751947D01*
G37*
G36*
X168588622Y-73222829D02*
G01*
X168605561Y-73266216D01*
X168597045Y-73281582D01*
X168530921Y-73334098D01*
X168421908Y-73400956D01*
X168297244Y-73467214D01*
X168184166Y-73517927D01*
X168109911Y-73538152D01*
X168065482Y-73528688D01*
X168076214Y-73490078D01*
X168160551Y-73426760D01*
X168312790Y-73344186D01*
X168429831Y-73287975D01*
X168535139Y-73240163D01*
X168583965Y-73221782D01*
X168588622Y-73222829D01*
G37*
G36*
X168117387Y-72872607D02*
G01*
X168204921Y-72909639D01*
X168355983Y-72982620D01*
X168477434Y-73046794D01*
X168578705Y-73115266D01*
X168607749Y-73160347D01*
X168558863Y-73176586D01*
X168530855Y-73171914D01*
X168435137Y-73135635D01*
X168313276Y-73075826D01*
X168192510Y-73007430D01*
X168100076Y-72945390D01*
X168063213Y-72904650D01*
X168063863Y-72888004D01*
X168076121Y-72866927D01*
X168117387Y-72872607D01*
G37*
G36*
X168225633Y-72203121D02*
G01*
X168358799Y-72260869D01*
X168470230Y-72321852D01*
X168567944Y-72390937D01*
X168605561Y-72440272D01*
X168600199Y-72481569D01*
X168571015Y-72492830D01*
X168499331Y-72467546D01*
X168366483Y-72402789D01*
X168270805Y-72353188D01*
X168145199Y-72278105D01*
X168087828Y-72222727D01*
X168088122Y-72178540D01*
X168126939Y-72174389D01*
X168225633Y-72203121D01*
G37*
G36*
X168619068Y-94066345D02*
G01*
X168641780Y-94139102D01*
X168650757Y-94260394D01*
X168648683Y-94321174D01*
X168632515Y-94423379D01*
X168605561Y-94463775D01*
X168592055Y-94454442D01*
X168569342Y-94381685D01*
X168560366Y-94260394D01*
X168562439Y-94199613D01*
X168578608Y-94097409D01*
X168605561Y-94057013D01*
X168619068Y-94066345D01*
G37*
G36*
X168619068Y-92303712D02*
G01*
X168641780Y-92376469D01*
X168650757Y-92497760D01*
X168648683Y-92558541D01*
X168632515Y-92660746D01*
X168605561Y-92701141D01*
X168592055Y-92691809D01*
X168569342Y-92619052D01*
X168560366Y-92497760D01*
X168562439Y-92436980D01*
X168578608Y-92334775D01*
X168605561Y-92294380D01*
X168619068Y-92303712D01*
G37*
G36*
X168615066Y-90901459D02*
G01*
X168633059Y-90973639D01*
X168645121Y-91099768D01*
X168650675Y-91254529D01*
X168649144Y-91412606D01*
X168639951Y-91548682D01*
X168622519Y-91637442D01*
X168620226Y-91642300D01*
X168560107Y-91701586D01*
X168449535Y-91777268D01*
X168317992Y-91852358D01*
X168194957Y-91909869D01*
X168109911Y-91932814D01*
X168065594Y-91923430D01*
X168076027Y-91884912D01*
X168160005Y-91821715D01*
X168311789Y-91739339D01*
X168560366Y-91617426D01*
X168560366Y-91255369D01*
X168560519Y-91222658D01*
X168567462Y-91051082D01*
X168583188Y-90935603D01*
X168605561Y-90893312D01*
X168615066Y-90901459D01*
G37*
G36*
X168619068Y-89140011D02*
G01*
X168641780Y-89212768D01*
X168650757Y-89334059D01*
X168648683Y-89394840D01*
X168632515Y-89497045D01*
X168605561Y-89537440D01*
X168592055Y-89528108D01*
X168569342Y-89455351D01*
X168560366Y-89334059D01*
X168562439Y-89273279D01*
X168578608Y-89171074D01*
X168605561Y-89130679D01*
X168619068Y-89140011D01*
G37*
G36*
X168622037Y-87335822D02*
G01*
X168642563Y-87411463D01*
X168650330Y-87527112D01*
X168644071Y-87650814D01*
X168622519Y-87750609D01*
X168620226Y-87755467D01*
X168560107Y-87814754D01*
X168449535Y-87890435D01*
X168317992Y-87965525D01*
X168194957Y-88023036D01*
X168109911Y-88045981D01*
X168065594Y-88036597D01*
X168076027Y-87998079D01*
X168160005Y-87934882D01*
X168311789Y-87852506D01*
X168352245Y-87832609D01*
X168471806Y-87768570D01*
X168533676Y-87712848D01*
X168556861Y-87640535D01*
X168560366Y-87526721D01*
X168562460Y-87465496D01*
X168578635Y-87363251D01*
X168605561Y-87322849D01*
X168622037Y-87335822D01*
G37*
G36*
X168643912Y-86757026D02*
G01*
X168635757Y-86809645D01*
X168563337Y-86869302D01*
X168498252Y-86899423D01*
X168409729Y-86909640D01*
X168379583Y-86853130D01*
X168390227Y-86816037D01*
X168464714Y-86758159D01*
X168586660Y-86735305D01*
X168643912Y-86757026D01*
G37*
G36*
X168619068Y-84168481D02*
G01*
X168641780Y-84241238D01*
X168650757Y-84362529D01*
X168648683Y-84423310D01*
X168632515Y-84525514D01*
X168605561Y-84565910D01*
X168592055Y-84556578D01*
X168569342Y-84483821D01*
X168560366Y-84362529D01*
X168562439Y-84301749D01*
X168578608Y-84199544D01*
X168605561Y-84159148D01*
X168619068Y-84168481D01*
G37*
G36*
X168619068Y-82405847D02*
G01*
X168641780Y-82478604D01*
X168650757Y-82599896D01*
X168648683Y-82660676D01*
X168632515Y-82762881D01*
X168605561Y-82803276D01*
X168592055Y-82793944D01*
X168569342Y-82721187D01*
X168560366Y-82599896D01*
X168562439Y-82539115D01*
X168578608Y-82436910D01*
X168605561Y-82396515D01*
X168619068Y-82405847D01*
G37*
G36*
X168610151Y-80272760D02*
G01*
X168632364Y-80324979D01*
X168642925Y-80459030D01*
X168641218Y-80667737D01*
X168628159Y-81063158D01*
X168402180Y-81186432D01*
X168305431Y-81236626D01*
X168188273Y-81289727D01*
X168119707Y-81310762D01*
X168068480Y-81301891D01*
X168075917Y-81264199D01*
X168158616Y-81201417D01*
X168311789Y-81118343D01*
X168560366Y-80996429D01*
X168560366Y-80634372D01*
X168560395Y-80619097D01*
X168566731Y-80435172D01*
X168582939Y-80315212D01*
X168607321Y-80272316D01*
X168610151Y-80272760D01*
G37*
G36*
X168619068Y-78519014D02*
G01*
X168641780Y-78591771D01*
X168650757Y-78713063D01*
X168648683Y-78773843D01*
X168632515Y-78876048D01*
X168605561Y-78916444D01*
X168592055Y-78907111D01*
X168569342Y-78834354D01*
X168560366Y-78713063D01*
X168562439Y-78652282D01*
X168578608Y-78550078D01*
X168605561Y-78509682D01*
X168619068Y-78519014D01*
G37*
G36*
X168619068Y-77072751D02*
G01*
X168641780Y-77145508D01*
X168650757Y-77266800D01*
X168648683Y-77327580D01*
X168632515Y-77429785D01*
X168605561Y-77470180D01*
X168592055Y-77460848D01*
X168569342Y-77388091D01*
X168560366Y-77266800D01*
X168562439Y-77206019D01*
X168578608Y-77103814D01*
X168605561Y-77063419D01*
X168619068Y-77072751D01*
G37*
G36*
X168619068Y-75310118D02*
G01*
X168641780Y-75382875D01*
X168650757Y-75504166D01*
X168648683Y-75564947D01*
X168632515Y-75667152D01*
X168605561Y-75707547D01*
X168592055Y-75698215D01*
X168569342Y-75625458D01*
X168560366Y-75504166D01*
X168562439Y-75443386D01*
X168578608Y-75341181D01*
X168605561Y-75300785D01*
X168619068Y-75310118D01*
G37*
G36*
X168619068Y-74270616D02*
G01*
X168641780Y-74343373D01*
X168650757Y-74464664D01*
X168648683Y-74525445D01*
X168632515Y-74627650D01*
X168605561Y-74668045D01*
X168592055Y-74658713D01*
X168569342Y-74585956D01*
X168560366Y-74464664D01*
X168562439Y-74403884D01*
X168578608Y-74301679D01*
X168605561Y-74261284D01*
X168619068Y-74270616D01*
G37*
G36*
X168619068Y-71784851D02*
G01*
X168641780Y-71857608D01*
X168650757Y-71978899D01*
X168648683Y-72039680D01*
X168632515Y-72141885D01*
X168605561Y-72182280D01*
X168592055Y-72172948D01*
X168569342Y-72100191D01*
X168560366Y-71978899D01*
X168562439Y-71918119D01*
X168578608Y-71815914D01*
X168605561Y-71775518D01*
X168619068Y-71784851D01*
G37*
G36*
X169156928Y-75082681D02*
G01*
X169193106Y-75142600D01*
X169185231Y-75174216D01*
X169125312Y-75210394D01*
X169093696Y-75202519D01*
X169057519Y-75142600D01*
X169065393Y-75110984D01*
X169125312Y-75074807D01*
X169156928Y-75082681D01*
G37*
G36*
X169284075Y-94115605D02*
G01*
X169271639Y-94160082D01*
X169193784Y-94226390D01*
X169059021Y-94304828D01*
X168949602Y-94358245D01*
X168826184Y-94407370D01*
X168760505Y-94411840D01*
X168741148Y-94374145D01*
X168749665Y-94358778D01*
X168815789Y-94306263D01*
X168924802Y-94239405D01*
X169049466Y-94173147D01*
X169162544Y-94122434D01*
X169236799Y-94102209D01*
X169284075Y-94115605D01*
G37*
G36*
X169268374Y-89135086D02*
G01*
X169283497Y-89189057D01*
X169248047Y-89236484D01*
X169157514Y-89300208D01*
X169037970Y-89366691D01*
X168915495Y-89422743D01*
X168816165Y-89455172D01*
X168766058Y-89450789D01*
X168761485Y-89426787D01*
X168798141Y-89367248D01*
X168865472Y-89323899D01*
X168976008Y-89262598D01*
X169098577Y-89199635D01*
X169203001Y-89150499D01*
X169259099Y-89130679D01*
X169268374Y-89135086D01*
G37*
G36*
X169266558Y-85606459D02*
G01*
X169283497Y-85649846D01*
X169274981Y-85665212D01*
X169208857Y-85717728D01*
X169099844Y-85784586D01*
X168975180Y-85850843D01*
X168862102Y-85901557D01*
X168787847Y-85921782D01*
X168743418Y-85912318D01*
X168754150Y-85873708D01*
X168838487Y-85810390D01*
X168990726Y-85727816D01*
X169107767Y-85671605D01*
X169213075Y-85623793D01*
X169261901Y-85605412D01*
X169266558Y-85606459D01*
G37*
G36*
X169284075Y-84217741D02*
G01*
X169271639Y-84262218D01*
X169193784Y-84328525D01*
X169059021Y-84406963D01*
X168949602Y-84460380D01*
X168826184Y-84509506D01*
X168760505Y-84513976D01*
X168741148Y-84476280D01*
X168749665Y-84460913D01*
X168815789Y-84408398D01*
X168924802Y-84341540D01*
X169049466Y-84275282D01*
X169162544Y-84224569D01*
X169236799Y-84204344D01*
X169284075Y-84217741D01*
G37*
G36*
X169266558Y-71460196D02*
G01*
X169283497Y-71503583D01*
X169274981Y-71518949D01*
X169208857Y-71571464D01*
X169099844Y-71638323D01*
X168975180Y-71704580D01*
X168862102Y-71755293D01*
X168787847Y-71775518D01*
X168743418Y-71766054D01*
X168754150Y-71727445D01*
X168838487Y-71664127D01*
X168990726Y-71581553D01*
X169107767Y-71525341D01*
X169213075Y-71477530D01*
X169261901Y-71459148D01*
X169266558Y-71460196D01*
G37*
G36*
X169307542Y-94450702D02*
G01*
X169323434Y-94542711D01*
X169327025Y-94662327D01*
X169317515Y-94776782D01*
X169294104Y-94853310D01*
X169257576Y-94888791D01*
X169162166Y-94950631D01*
X169039106Y-95015131D01*
X168914657Y-95069951D01*
X168815080Y-95102750D01*
X168766633Y-95101186D01*
X168759667Y-95077199D01*
X168788951Y-95028179D01*
X168880875Y-94963715D01*
X169046220Y-94875087D01*
X169105300Y-94844418D01*
X169193958Y-94783543D01*
X169230908Y-94712186D01*
X169238301Y-94598443D01*
X169239419Y-94558733D01*
X169255136Y-94458661D01*
X169283497Y-94418579D01*
X169307542Y-94450702D01*
G37*
G36*
X169299973Y-93346854D02*
G01*
X169320499Y-93422495D01*
X169328266Y-93538144D01*
X169322007Y-93661846D01*
X169300455Y-93761641D01*
X169298162Y-93766499D01*
X169238043Y-93825786D01*
X169127471Y-93901467D01*
X168995928Y-93976557D01*
X168872893Y-94034068D01*
X168787847Y-94057013D01*
X168743530Y-94047629D01*
X168753963Y-94009111D01*
X168837941Y-93945914D01*
X168989725Y-93863538D01*
X169030181Y-93843641D01*
X169149742Y-93779602D01*
X169211612Y-93723880D01*
X169234797Y-93651567D01*
X169238301Y-93537753D01*
X169240396Y-93476528D01*
X169256571Y-93374283D01*
X169283497Y-93333881D01*
X169299973Y-93346854D01*
G37*
G36*
X168789897Y-91622331D02*
G01*
X168881488Y-91661961D01*
X169006424Y-91725690D01*
X169135987Y-91797855D01*
X169241453Y-91862794D01*
X169294104Y-91904844D01*
X169295726Y-91907816D01*
X169309368Y-91981654D01*
X169319054Y-92121223D01*
X169324785Y-92304230D01*
X169326560Y-92508385D01*
X169324380Y-92711398D01*
X169318243Y-92890978D01*
X169308152Y-93024834D01*
X169294104Y-93090677D01*
X169257576Y-93126157D01*
X169162166Y-93187998D01*
X169039106Y-93252498D01*
X168914657Y-93307318D01*
X168815080Y-93340116D01*
X168766633Y-93338553D01*
X168759667Y-93314565D01*
X168788951Y-93265546D01*
X168880875Y-93201081D01*
X169046220Y-93112454D01*
X169238301Y-93015674D01*
X169238301Y-91951644D01*
X168989725Y-91829731D01*
X168876068Y-91768900D01*
X168778624Y-91704558D01*
X168741148Y-91662131D01*
X168741824Y-91651404D01*
X168765249Y-91616444D01*
X168789897Y-91622331D01*
G37*
G36*
X168800445Y-90216594D02*
G01*
X168890392Y-90247027D01*
X169014562Y-90306355D01*
X169143629Y-90378453D01*
X169248263Y-90447199D01*
X169299139Y-90496469D01*
X169302902Y-90510770D01*
X169311679Y-90604802D01*
X169315894Y-90755737D01*
X169314665Y-90938466D01*
X169306095Y-91322588D01*
X169080116Y-91445862D01*
X168983367Y-91496056D01*
X168866209Y-91549157D01*
X168797643Y-91570192D01*
X168746415Y-91561322D01*
X168753853Y-91523630D01*
X168836552Y-91460848D01*
X168989725Y-91377773D01*
X169238301Y-91255860D01*
X169238301Y-90550576D01*
X168989725Y-90428663D01*
X168989693Y-90428647D01*
X168846296Y-90348775D01*
X168759205Y-90280635D01*
X168736897Y-90233183D01*
X168787847Y-90215376D01*
X168800445Y-90216594D01*
G37*
G36*
X169299973Y-89460021D02*
G01*
X169320499Y-89535662D01*
X169328266Y-89651312D01*
X169322007Y-89775013D01*
X169300455Y-89874808D01*
X169298162Y-89879666D01*
X169238043Y-89938953D01*
X169127471Y-90014634D01*
X168995928Y-90089724D01*
X168872893Y-90147235D01*
X168787847Y-90170180D01*
X168787829Y-90170180D01*
X168736894Y-90152367D01*
X168759216Y-90104910D01*
X168846318Y-90036767D01*
X168989725Y-89956893D01*
X169021428Y-89941305D01*
X169144954Y-89875667D01*
X169209544Y-89819916D01*
X169234295Y-89749788D01*
X169238301Y-89641014D01*
X169239980Y-89588724D01*
X169256006Y-89487326D01*
X169283497Y-89447049D01*
X169299973Y-89460021D01*
G37*
G36*
X169307542Y-88439670D02*
G01*
X169323434Y-88531679D01*
X169327025Y-88651295D01*
X169317515Y-88765750D01*
X169294104Y-88842278D01*
X169257576Y-88877759D01*
X169162166Y-88939599D01*
X169039106Y-89004099D01*
X168914657Y-89058919D01*
X168815080Y-89091718D01*
X168766633Y-89090154D01*
X168759667Y-89066167D01*
X168788951Y-89017147D01*
X168880875Y-88952682D01*
X169046220Y-88864055D01*
X169105300Y-88833386D01*
X169193958Y-88772511D01*
X169230908Y-88701154D01*
X169238301Y-88587411D01*
X169239419Y-88547701D01*
X169255136Y-88447629D01*
X169283497Y-88407547D01*
X169307542Y-88439670D01*
G37*
G36*
X169299973Y-87697387D02*
G01*
X169320499Y-87773029D01*
X169328266Y-87888678D01*
X169322007Y-88012379D01*
X169300455Y-88112175D01*
X169298162Y-88117033D01*
X169238043Y-88176319D01*
X169127471Y-88252001D01*
X168995928Y-88327091D01*
X168872893Y-88384602D01*
X168787847Y-88407547D01*
X168787829Y-88407547D01*
X168736894Y-88389733D01*
X168759216Y-88342277D01*
X168846318Y-88274134D01*
X168989725Y-88194260D01*
X169021428Y-88178671D01*
X169144954Y-88113033D01*
X169209544Y-88057283D01*
X169234295Y-87987154D01*
X169238301Y-87878381D01*
X169239980Y-87826090D01*
X169256006Y-87724692D01*
X169283497Y-87684415D01*
X169299973Y-87697387D01*
G37*
G36*
X169299053Y-87013457D02*
G01*
X169319363Y-87085547D01*
X169319870Y-87221159D01*
X169308263Y-87339562D01*
X169278028Y-87420910D01*
X169208941Y-87484269D01*
X169080116Y-87559071D01*
X168983378Y-87609243D01*
X168866213Y-87662330D01*
X168797643Y-87683360D01*
X168746415Y-87674489D01*
X168753853Y-87636797D01*
X168836552Y-87574015D01*
X168989725Y-87490941D01*
X169008328Y-87481800D01*
X169137742Y-87413752D01*
X169206409Y-87357674D01*
X169233528Y-87290147D01*
X169238301Y-87187753D01*
X169239538Y-87146773D01*
X169256156Y-87046575D01*
X169285974Y-87006479D01*
X169299053Y-87013457D01*
G37*
G36*
X169299973Y-85934754D02*
G01*
X169320499Y-86010395D01*
X169328266Y-86126045D01*
X169322007Y-86249746D01*
X169300455Y-86349541D01*
X169298162Y-86354400D01*
X169238043Y-86413686D01*
X169127471Y-86489367D01*
X168995928Y-86564457D01*
X168872893Y-86621968D01*
X168787847Y-86644913D01*
X168787829Y-86644913D01*
X168736894Y-86627100D01*
X168759216Y-86579644D01*
X168846318Y-86511501D01*
X168989725Y-86431627D01*
X169021428Y-86416038D01*
X169144954Y-86350400D01*
X169209544Y-86294650D01*
X169234295Y-86224521D01*
X169238301Y-86115747D01*
X169239980Y-86063457D01*
X169256006Y-85962059D01*
X169283497Y-85921782D01*
X169299973Y-85934754D01*
G37*
G36*
X169307542Y-84552837D02*
G01*
X169323434Y-84644846D01*
X169327025Y-84764462D01*
X169317515Y-84878917D01*
X169294104Y-84955445D01*
X169257576Y-84990926D01*
X169162166Y-85052766D01*
X169039106Y-85117267D01*
X168914657Y-85172086D01*
X168815080Y-85204885D01*
X168766633Y-85203322D01*
X168759667Y-85179334D01*
X168788951Y-85130315D01*
X168880875Y-85065850D01*
X169046220Y-84977222D01*
X169105300Y-84946553D01*
X169193958Y-84885678D01*
X169230908Y-84814321D01*
X169238301Y-84700579D01*
X169239419Y-84660868D01*
X169255136Y-84560796D01*
X169283497Y-84520714D01*
X169307542Y-84552837D01*
G37*
G36*
X169299973Y-83448989D02*
G01*
X169320499Y-83524630D01*
X169328266Y-83640280D01*
X169322007Y-83763981D01*
X169300455Y-83863776D01*
X169298162Y-83868634D01*
X169238043Y-83927921D01*
X169127471Y-84003602D01*
X168995928Y-84078692D01*
X168872893Y-84136203D01*
X168787847Y-84159148D01*
X168787829Y-84159148D01*
X168736894Y-84141335D01*
X168759216Y-84093878D01*
X168846318Y-84025735D01*
X168989725Y-83945861D01*
X169021428Y-83930273D01*
X169144954Y-83864635D01*
X169209544Y-83808884D01*
X169234295Y-83738756D01*
X169238301Y-83629982D01*
X169239980Y-83577692D01*
X169256006Y-83476294D01*
X169283497Y-83436017D01*
X169299973Y-83448989D01*
G37*
G36*
X169299053Y-82765058D02*
G01*
X169319363Y-82837148D01*
X169319870Y-82972760D01*
X169308263Y-83091164D01*
X169278028Y-83172512D01*
X169208941Y-83235870D01*
X169080116Y-83310673D01*
X168983378Y-83360844D01*
X168866213Y-83413931D01*
X168797643Y-83434961D01*
X168746415Y-83426091D01*
X168753853Y-83388398D01*
X168836552Y-83325617D01*
X168989725Y-83242542D01*
X169008328Y-83233402D01*
X169137742Y-83165353D01*
X169206409Y-83109275D01*
X169233528Y-83041749D01*
X169238301Y-82939355D01*
X169239538Y-82898374D01*
X169256156Y-82798177D01*
X169285974Y-82758081D01*
X169299053Y-82765058D01*
G37*
G36*
X169321848Y-82508627D02*
G01*
X169313692Y-82561246D01*
X169241273Y-82620903D01*
X169176187Y-82651024D01*
X169087665Y-82661242D01*
X169057519Y-82604731D01*
X169068163Y-82567638D01*
X169142650Y-82509761D01*
X169264596Y-82486906D01*
X169321848Y-82508627D01*
G37*
G36*
X168800753Y-81719841D02*
G01*
X168890936Y-81750404D01*
X169015030Y-81809775D01*
X169143787Y-81881847D01*
X169247960Y-81950515D01*
X169298301Y-81999672D01*
X169314294Y-82063698D01*
X169324253Y-82181082D01*
X169321726Y-82304544D01*
X169307783Y-82402086D01*
X169283497Y-82441711D01*
X169271313Y-82434505D01*
X169247686Y-82365730D01*
X169238301Y-82247745D01*
X169238250Y-82222982D01*
X169231772Y-82123417D01*
X169200922Y-82057886D01*
X169126605Y-82002125D01*
X168989725Y-81931866D01*
X168989693Y-81931850D01*
X168846296Y-81851977D01*
X168759205Y-81783838D01*
X168736897Y-81736386D01*
X168787847Y-81718579D01*
X168800753Y-81719841D01*
G37*
G36*
X169299973Y-80963224D02*
G01*
X169320499Y-81038865D01*
X169328266Y-81154515D01*
X169322007Y-81278216D01*
X169300455Y-81378011D01*
X169298162Y-81382869D01*
X169238043Y-81442156D01*
X169127471Y-81517837D01*
X168995928Y-81592927D01*
X168872893Y-81650438D01*
X168787847Y-81673383D01*
X168743530Y-81663999D01*
X168753963Y-81625481D01*
X168837941Y-81562284D01*
X168989725Y-81479909D01*
X169030181Y-81460011D01*
X169149742Y-81395972D01*
X169211612Y-81340250D01*
X169234797Y-81267937D01*
X169238301Y-81154123D01*
X169240396Y-81092898D01*
X169256571Y-80990653D01*
X169283497Y-80950252D01*
X169299973Y-80963224D01*
G37*
G36*
X168789897Y-79600267D02*
G01*
X168881488Y-79639897D01*
X169006424Y-79703626D01*
X169135987Y-79775791D01*
X169241453Y-79840730D01*
X169294104Y-79882780D01*
X169298030Y-79891291D01*
X169312923Y-79975551D01*
X169323369Y-80118612D01*
X169327309Y-80294913D01*
X169327076Y-80338021D01*
X169321421Y-80508803D01*
X169309744Y-80640331D01*
X169294104Y-80707047D01*
X169257576Y-80742527D01*
X169162166Y-80804368D01*
X169039106Y-80868868D01*
X168914657Y-80923688D01*
X168815080Y-80956486D01*
X168766633Y-80954923D01*
X168759667Y-80930935D01*
X168788951Y-80881916D01*
X168880875Y-80817451D01*
X169046220Y-80728824D01*
X169238301Y-80632044D01*
X169238301Y-79929580D01*
X168989725Y-79807667D01*
X168876068Y-79746836D01*
X168778624Y-79682494D01*
X168741148Y-79640066D01*
X168741824Y-79629340D01*
X168765249Y-79594380D01*
X168789897Y-79600267D01*
G37*
G36*
X169299637Y-78168534D02*
G01*
X169314557Y-78271609D01*
X169321003Y-78458156D01*
X169318744Y-78724264D01*
X169306095Y-79300411D01*
X169080116Y-79423742D01*
X168983352Y-79473966D01*
X168866203Y-79527086D01*
X168797643Y-79548128D01*
X168746415Y-79539258D01*
X168753853Y-79501566D01*
X168836552Y-79438784D01*
X168989725Y-79355709D01*
X169238301Y-79233796D01*
X169238301Y-78690956D01*
X169239918Y-78521491D01*
X169248393Y-78318896D01*
X169263577Y-78192020D01*
X169284848Y-78148116D01*
X169299637Y-78168534D01*
G37*
G36*
X169299973Y-77437957D02*
G01*
X169320499Y-77513598D01*
X169328266Y-77629248D01*
X169322007Y-77752949D01*
X169300455Y-77852744D01*
X169298162Y-77857602D01*
X169238043Y-77916889D01*
X169127471Y-77992570D01*
X168995928Y-78067660D01*
X168872893Y-78125171D01*
X168787847Y-78148116D01*
X168787829Y-78148116D01*
X168736894Y-78130303D01*
X168759216Y-78082846D01*
X168846318Y-78014703D01*
X168989725Y-77934829D01*
X169021428Y-77919240D01*
X169144954Y-77853603D01*
X169209544Y-77797852D01*
X169234295Y-77727724D01*
X169238301Y-77618950D01*
X169239980Y-77566660D01*
X169256006Y-77465262D01*
X169283497Y-77424985D01*
X169299973Y-77437957D01*
G37*
G36*
X169221372Y-77199866D02*
G01*
X169308870Y-77221719D01*
X169323667Y-77262298D01*
X169257203Y-77307160D01*
X169187624Y-77328103D01*
X169092285Y-77324754D01*
X169057519Y-77266800D01*
X169085462Y-77219218D01*
X169193106Y-77199006D01*
X169221372Y-77199866D01*
G37*
G36*
X169297137Y-75319271D02*
G01*
X169313519Y-75406389D01*
X169324276Y-75542889D01*
X169328876Y-75704139D01*
X169326793Y-75865512D01*
X169317495Y-76002379D01*
X169300455Y-76090111D01*
X169268823Y-76130264D01*
X169172743Y-76204279D01*
X169040909Y-76280910D01*
X168809600Y-76398123D01*
X169043307Y-76512553D01*
X169122433Y-76555146D01*
X169244730Y-76643109D01*
X169302236Y-76720912D01*
X169310441Y-76756351D01*
X169325847Y-76885302D01*
X169325627Y-77014501D01*
X169311078Y-77113990D01*
X169283497Y-77153810D01*
X169270382Y-77145149D01*
X169247399Y-77073591D01*
X169238301Y-76953298D01*
X169238296Y-76944333D01*
X169233135Y-76833051D01*
X169205248Y-76760758D01*
X169135467Y-76700576D01*
X169004625Y-76625629D01*
X168871025Y-76544337D01*
X168768914Y-76446985D01*
X168754836Y-76356909D01*
X168828576Y-76267488D01*
X168989919Y-76172101D01*
X169238301Y-76050283D01*
X169238301Y-75675534D01*
X169238539Y-75633253D01*
X169245689Y-75459479D01*
X169261334Y-75343191D01*
X169283497Y-75300785D01*
X169297137Y-75319271D01*
G37*
G36*
X169297004Y-74632182D02*
G01*
X169319716Y-74704939D01*
X169328693Y-74826230D01*
X169326619Y-74887011D01*
X169310451Y-74989216D01*
X169283497Y-75029611D01*
X169269990Y-75020279D01*
X169247278Y-74947522D01*
X169238301Y-74826230D01*
X169240375Y-74765450D01*
X169256544Y-74663245D01*
X169283497Y-74622849D01*
X169297004Y-74632182D01*
G37*
G36*
X168789897Y-73227669D02*
G01*
X168881488Y-73267299D01*
X169006424Y-73331028D01*
X169135987Y-73403193D01*
X169241453Y-73468132D01*
X169294104Y-73510182D01*
X169298030Y-73518693D01*
X169312923Y-73602953D01*
X169323369Y-73746014D01*
X169327309Y-73922316D01*
X169327076Y-73965423D01*
X169321421Y-74136205D01*
X169309744Y-74267733D01*
X169294104Y-74334449D01*
X169257576Y-74369929D01*
X169162166Y-74431770D01*
X169039106Y-74496270D01*
X168914657Y-74551090D01*
X168815080Y-74583888D01*
X168766633Y-74582325D01*
X168759667Y-74558338D01*
X168788951Y-74509318D01*
X168880875Y-74444853D01*
X169046220Y-74356226D01*
X169238301Y-74259446D01*
X169238301Y-73556982D01*
X168989725Y-73435069D01*
X168876068Y-73374238D01*
X168778624Y-73309897D01*
X168741148Y-73267469D01*
X168741824Y-73256742D01*
X168765249Y-73221782D01*
X168789897Y-73227669D01*
G37*
G36*
X169299637Y-71795936D02*
G01*
X169314557Y-71899012D01*
X169321003Y-72085558D01*
X169318744Y-72351666D01*
X169306095Y-72927813D01*
X169080116Y-73051144D01*
X168983352Y-73101368D01*
X168866203Y-73154488D01*
X168797643Y-73175530D01*
X168746415Y-73166660D01*
X168753853Y-73128968D01*
X168836552Y-73066186D01*
X168989725Y-72983111D01*
X169238301Y-72861198D01*
X169238301Y-72318358D01*
X169239918Y-72148893D01*
X169248393Y-71946299D01*
X169263577Y-71819422D01*
X169284848Y-71775518D01*
X169299637Y-71795936D01*
G37*
G36*
X169156564Y-86781489D02*
G01*
X169288383Y-86790380D01*
X169355283Y-86811461D01*
X169373889Y-86848294D01*
X169369276Y-86869518D01*
X169327785Y-86897765D01*
X169229408Y-86912101D01*
X169057519Y-86916088D01*
X168958473Y-86915099D01*
X168826654Y-86906209D01*
X168759754Y-86885128D01*
X168741148Y-86848294D01*
X168745761Y-86827070D01*
X168787252Y-86798823D01*
X168885629Y-86784488D01*
X169057519Y-86780501D01*
X169156564Y-86781489D01*
G37*
G36*
X166377107Y-75092395D02*
G01*
X166390178Y-75143911D01*
X166400393Y-75249380D01*
X166407498Y-75391609D01*
X166411239Y-75553407D01*
X166411364Y-75717583D01*
X166407620Y-75866945D01*
X166399752Y-75984302D01*
X166387508Y-76052461D01*
X166385590Y-76056524D01*
X166335312Y-76106106D01*
X166242840Y-76169399D01*
X166132829Y-76232197D01*
X166029934Y-76280294D01*
X165958809Y-76299483D01*
X165958794Y-76299483D01*
X165916196Y-76284586D01*
X165934864Y-76244898D01*
X166007709Y-76187909D01*
X166127641Y-76121110D01*
X166335528Y-76019152D01*
X166335528Y-75554556D01*
X166337355Y-75392045D01*
X166344645Y-75229807D01*
X166356862Y-75126318D01*
X166373326Y-75089960D01*
X166377107Y-75092395D01*
G37*
G36*
X166386824Y-82817749D02*
G01*
X166399301Y-82903952D01*
X166404692Y-83059963D01*
X166402803Y-83282511D01*
X166392225Y-83764349D01*
X166203237Y-83867491D01*
X166122311Y-83909495D01*
X166024339Y-83953919D01*
X165967001Y-83971517D01*
X165924159Y-83964099D01*
X165930379Y-83932576D01*
X165999541Y-83880072D01*
X166127641Y-83810595D01*
X166335528Y-83708638D01*
X166335528Y-83254656D01*
X166336880Y-83112930D01*
X166343968Y-82943499D01*
X166356666Y-82837391D01*
X166374455Y-82800674D01*
X166386824Y-82817749D01*
G37*
G36*
X166360678Y-74829062D02*
G01*
X166373326Y-74874199D01*
X166343679Y-74913863D01*
X166267965Y-74967156D01*
X166167989Y-75022756D01*
X166065562Y-75069633D01*
X165982491Y-75096754D01*
X165940586Y-75093088D01*
X165936762Y-75073014D01*
X165967418Y-75023221D01*
X166023728Y-74986968D01*
X166116169Y-74935702D01*
X166218676Y-74883045D01*
X166306006Y-74841952D01*
X166352921Y-74825376D01*
X166360678Y-74829062D01*
G37*
G36*
X166373809Y-82547294D02*
G01*
X166363409Y-82584491D01*
X166298298Y-82639944D01*
X166185594Y-82705543D01*
X166094086Y-82750216D01*
X165990871Y-82791300D01*
X165935942Y-82795038D01*
X165919754Y-82763513D01*
X165926877Y-82750662D01*
X165982177Y-82706743D01*
X166073345Y-82650829D01*
X166177603Y-82595417D01*
X166272172Y-82553005D01*
X166334272Y-82536091D01*
X166373809Y-82547294D01*
G37*
G36*
X165811962Y-70674683D02*
G01*
X165823275Y-70738236D01*
X165832410Y-70855406D01*
X165839190Y-71010929D01*
X165843440Y-71189542D01*
X165844981Y-71375981D01*
X165843639Y-71554982D01*
X165839236Y-71711282D01*
X165831596Y-71829617D01*
X165820544Y-71894723D01*
X165818626Y-71898786D01*
X165768348Y-71948367D01*
X165675876Y-72011661D01*
X165565865Y-72074459D01*
X165462969Y-72122556D01*
X165391844Y-72141745D01*
X165354782Y-72133897D01*
X165363507Y-72101685D01*
X165433739Y-72048832D01*
X165560677Y-71979941D01*
X165768564Y-71877983D01*
X165768564Y-71272811D01*
X165768706Y-71208663D01*
X165772105Y-70980854D01*
X165779761Y-70810796D01*
X165791303Y-70704415D01*
X165806362Y-70667638D01*
X165811962Y-70674683D01*
G37*
G36*
X165402638Y-72180598D02*
G01*
X165478059Y-72206159D01*
X165581840Y-72255811D01*
X165689521Y-72316086D01*
X165776641Y-72373513D01*
X165818742Y-72414624D01*
X165824752Y-72438091D01*
X165834320Y-72530431D01*
X165839273Y-72660943D01*
X165839726Y-72806896D01*
X165835794Y-72945557D01*
X165827591Y-73054195D01*
X165815232Y-73110077D01*
X165784684Y-73139750D01*
X165704891Y-73191467D01*
X165601975Y-73245410D01*
X165497897Y-73291256D01*
X165414619Y-73318686D01*
X165374104Y-73317378D01*
X165368278Y-73297317D01*
X165392768Y-73256322D01*
X165469645Y-73202409D01*
X165607924Y-73128289D01*
X165768564Y-73047352D01*
X165768564Y-72459874D01*
X165560677Y-72357917D01*
X165560650Y-72357904D01*
X165440726Y-72291105D01*
X165367891Y-72234119D01*
X165349234Y-72194435D01*
X165391844Y-72179543D01*
X165402638Y-72180598D01*
G37*
G36*
X165810143Y-73315907D02*
G01*
X165823214Y-73367423D01*
X165833429Y-73472892D01*
X165840533Y-73615121D01*
X165844275Y-73776919D01*
X165844400Y-73941095D01*
X165840655Y-74090457D01*
X165832788Y-74207814D01*
X165820544Y-74275973D01*
X165818626Y-74280036D01*
X165768348Y-74329617D01*
X165675876Y-74392911D01*
X165565865Y-74455709D01*
X165462969Y-74503806D01*
X165391844Y-74522995D01*
X165391830Y-74522995D01*
X165349232Y-74508097D01*
X165367900Y-74468409D01*
X165440745Y-74411421D01*
X165560677Y-74344621D01*
X165768564Y-74242664D01*
X165768564Y-73778068D01*
X165770390Y-73615557D01*
X165777680Y-73453319D01*
X165789898Y-73349830D01*
X165806362Y-73313472D01*
X165810143Y-73315907D01*
G37*
G36*
X165811143Y-74523810D02*
G01*
X165834444Y-74565282D01*
X165843375Y-74650689D01*
X165838841Y-74753871D01*
X165821748Y-74848672D01*
X165793001Y-74908933D01*
X165775419Y-74923823D01*
X165692774Y-74976195D01*
X165585114Y-75030766D01*
X165538663Y-75052899D01*
X165459634Y-75097945D01*
X165428385Y-75127757D01*
X165435455Y-75138745D01*
X165491485Y-75177281D01*
X165585114Y-75224749D01*
X165625558Y-75243865D01*
X165727836Y-75299867D01*
X165793001Y-75346582D01*
X165798010Y-75352378D01*
X165825071Y-75419475D01*
X165840341Y-75517195D01*
X165842917Y-75619381D01*
X165831892Y-75699875D01*
X165806362Y-75732519D01*
X165796172Y-75726493D01*
X165776413Y-75668976D01*
X165768564Y-75570304D01*
X165768522Y-75549807D01*
X165763123Y-75466434D01*
X165737361Y-75411585D01*
X165675259Y-75364948D01*
X165560839Y-75306211D01*
X165453264Y-75246020D01*
X165372957Y-75170493D01*
X165366048Y-75095826D01*
X165432715Y-75016480D01*
X165573138Y-74926921D01*
X165676064Y-74867944D01*
X165738244Y-74816541D01*
X165763682Y-74758200D01*
X165768564Y-74671787D01*
X165769437Y-74640020D01*
X165782537Y-74556492D01*
X165806362Y-74522995D01*
X165811143Y-74523810D01*
G37*
G36*
X165844159Y-75818561D02*
G01*
X165836311Y-75849983D01*
X165775072Y-75901491D01*
X165670979Y-75921507D01*
X165657318Y-75918964D01*
X165624009Y-75882847D01*
X165617354Y-75833144D01*
X165645722Y-75807598D01*
X165680659Y-75802545D01*
X165759115Y-75784291D01*
X165821801Y-75779119D01*
X165844159Y-75818561D01*
G37*
G36*
X165819371Y-76607700D02*
G01*
X165836356Y-76667989D01*
X165836781Y-76781403D01*
X165827074Y-76880425D01*
X165801788Y-76948457D01*
X165744009Y-77001444D01*
X165636272Y-77064002D01*
X165555369Y-77105961D01*
X165457383Y-77150358D01*
X165400037Y-77167946D01*
X165357195Y-77160527D01*
X165363415Y-77129005D01*
X165432577Y-77076500D01*
X165560677Y-77007024D01*
X165576235Y-76999380D01*
X165684465Y-76942470D01*
X165741892Y-76895572D01*
X165764572Y-76839099D01*
X165768564Y-76753466D01*
X165769598Y-76719193D01*
X165783496Y-76635397D01*
X165808433Y-76601864D01*
X165819371Y-76607700D01*
G37*
G36*
X165820141Y-77482058D02*
G01*
X165837307Y-77545318D01*
X165843802Y-77642037D01*
X165838568Y-77745489D01*
X165820544Y-77828949D01*
X165794551Y-77862132D01*
X165714567Y-77923959D01*
X165604637Y-77987932D01*
X165412345Y-78085373D01*
X165599904Y-78180198D01*
X165675674Y-78220774D01*
X165767849Y-78277605D01*
X165815232Y-78317239D01*
X165819481Y-78326676D01*
X165832140Y-78401712D01*
X165840046Y-78522644D01*
X165843021Y-78666241D01*
X165840882Y-78809267D01*
X165833450Y-78928489D01*
X165820544Y-79000675D01*
X165818626Y-79004738D01*
X165768348Y-79054320D01*
X165675876Y-79117613D01*
X165565865Y-79180411D01*
X165462969Y-79228508D01*
X165391844Y-79247698D01*
X165391830Y-79247698D01*
X165349232Y-79232800D01*
X165367900Y-79193112D01*
X165440745Y-79136123D01*
X165560677Y-79069324D01*
X165768564Y-78967367D01*
X165768564Y-78383150D01*
X165573138Y-78276808D01*
X165461407Y-78208823D01*
X165376011Y-78127407D01*
X165364237Y-78052075D01*
X165425907Y-77977291D01*
X165560839Y-77897518D01*
X165587060Y-77884626D01*
X165690433Y-77829711D01*
X165744490Y-77783081D01*
X165765208Y-77724423D01*
X165768564Y-77633425D01*
X165769968Y-77589694D01*
X165783370Y-77504894D01*
X165806362Y-77471210D01*
X165820141Y-77482058D01*
G37*
G36*
X165402638Y-79286550D02*
G01*
X165478059Y-79312111D01*
X165581840Y-79361764D01*
X165689521Y-79422038D01*
X165776641Y-79479465D01*
X165818742Y-79520576D01*
X165832117Y-79574121D01*
X165840446Y-79672291D01*
X165838332Y-79775544D01*
X165826672Y-79857119D01*
X165806362Y-79890257D01*
X165796172Y-79884231D01*
X165776413Y-79826714D01*
X165768564Y-79728042D01*
X165768521Y-79707332D01*
X165763103Y-79624065D01*
X165737303Y-79569261D01*
X165675151Y-79522627D01*
X165560677Y-79463869D01*
X165560650Y-79463856D01*
X165440726Y-79397058D01*
X165367891Y-79340072D01*
X165349234Y-79300388D01*
X165391844Y-79285495D01*
X165402638Y-79286550D01*
G37*
G36*
X165838435Y-79946220D02*
G01*
X165831614Y-79990226D01*
X165771049Y-80040118D01*
X165716617Y-80065308D01*
X165642585Y-80073853D01*
X165617374Y-80026593D01*
X165626275Y-79995572D01*
X165688570Y-79947168D01*
X165790554Y-79928055D01*
X165838435Y-79946220D01*
G37*
G36*
X165820141Y-80127892D02*
G01*
X165837307Y-80191151D01*
X165843802Y-80287870D01*
X165838568Y-80391323D01*
X165820544Y-80474782D01*
X165818626Y-80478845D01*
X165768348Y-80528427D01*
X165675876Y-80591720D01*
X165565865Y-80654519D01*
X165462969Y-80702616D01*
X165391844Y-80721805D01*
X165354782Y-80713957D01*
X165363507Y-80681744D01*
X165433739Y-80628892D01*
X165560677Y-80560000D01*
X165594511Y-80543360D01*
X165694501Y-80489804D01*
X165746243Y-80443203D01*
X165765633Y-80382726D01*
X165768564Y-80287543D01*
X165770316Y-80236340D01*
X165783843Y-80150831D01*
X165806362Y-80117043D01*
X165820141Y-80127892D01*
G37*
G36*
X165811962Y-81333611D02*
G01*
X165823275Y-81397165D01*
X165832410Y-81514335D01*
X165839190Y-81669858D01*
X165843440Y-81848471D01*
X165844981Y-82034910D01*
X165843639Y-82213911D01*
X165839236Y-82370211D01*
X165831596Y-82488545D01*
X165820544Y-82553651D01*
X165818626Y-82557714D01*
X165768348Y-82607296D01*
X165675876Y-82670589D01*
X165565865Y-82733388D01*
X165462969Y-82781485D01*
X165391844Y-82800674D01*
X165391830Y-82800674D01*
X165349232Y-82785776D01*
X165367900Y-82746088D01*
X165440745Y-82689099D01*
X165560677Y-82622300D01*
X165768564Y-82520343D01*
X165768564Y-81923455D01*
X165768679Y-81866413D01*
X165772007Y-81639284D01*
X165779652Y-81469576D01*
X165791231Y-81363325D01*
X165806362Y-81326567D01*
X165811962Y-81333611D01*
G37*
G36*
X165402638Y-82839527D02*
G01*
X165478059Y-82865087D01*
X165581840Y-82914740D01*
X165689521Y-82975014D01*
X165776641Y-83032442D01*
X165818742Y-83073552D01*
X165832117Y-83127098D01*
X165840446Y-83225268D01*
X165838332Y-83328520D01*
X165826672Y-83410095D01*
X165806362Y-83443233D01*
X165796172Y-83437207D01*
X165776413Y-83379690D01*
X165768564Y-83281018D01*
X165768521Y-83260308D01*
X165763103Y-83177041D01*
X165737303Y-83122237D01*
X165675151Y-83075603D01*
X165560677Y-83016845D01*
X165560650Y-83016832D01*
X165440726Y-82950034D01*
X165367891Y-82893048D01*
X165349234Y-82853364D01*
X165391844Y-82838472D01*
X165402638Y-82839527D01*
G37*
G36*
X165838435Y-83499196D02*
G01*
X165831614Y-83543202D01*
X165771049Y-83593094D01*
X165716617Y-83618284D01*
X165642585Y-83626829D01*
X165617374Y-83579569D01*
X165626275Y-83548548D01*
X165688570Y-83500144D01*
X165790554Y-83481031D01*
X165838435Y-83499196D01*
G37*
G36*
X165792195Y-70403931D02*
G01*
X165806362Y-70440216D01*
X165799239Y-70453067D01*
X165743939Y-70496986D01*
X165652771Y-70552900D01*
X165548513Y-70608312D01*
X165453944Y-70650724D01*
X165391844Y-70667638D01*
X165354689Y-70659723D01*
X165363663Y-70627433D01*
X165434195Y-70574480D01*
X165561514Y-70505423D01*
X165659397Y-70458413D01*
X165747467Y-70418427D01*
X165788300Y-70403055D01*
X165792195Y-70403931D01*
G37*
G36*
X165793714Y-76303169D02*
G01*
X165806362Y-76348306D01*
X165776715Y-76387970D01*
X165701000Y-76441263D01*
X165601025Y-76496863D01*
X165498598Y-76543740D01*
X165415527Y-76570861D01*
X165373622Y-76567195D01*
X165369798Y-76547121D01*
X165400453Y-76497328D01*
X165456763Y-76461075D01*
X165549205Y-76409809D01*
X165651711Y-76357153D01*
X165739042Y-76316060D01*
X165785957Y-76299483D01*
X165793714Y-76303169D01*
G37*
G36*
X165792195Y-77207502D02*
G01*
X165806362Y-77243787D01*
X165799239Y-77256638D01*
X165743939Y-77300557D01*
X165652771Y-77356471D01*
X165548513Y-77411883D01*
X165453944Y-77454295D01*
X165391844Y-77471210D01*
X165354689Y-77463295D01*
X165363663Y-77431005D01*
X165434195Y-77378051D01*
X165561514Y-77308994D01*
X165659397Y-77261984D01*
X165747467Y-77221999D01*
X165788300Y-77206626D01*
X165792195Y-77207502D01*
G37*
G36*
X165806845Y-81073187D02*
G01*
X165796444Y-81110384D01*
X165731334Y-81165837D01*
X165618630Y-81231436D01*
X165527122Y-81276109D01*
X165423907Y-81317193D01*
X165368978Y-81320931D01*
X165352790Y-81289406D01*
X165359912Y-81276555D01*
X165415213Y-81232636D01*
X165506381Y-81176722D01*
X165610639Y-81121310D01*
X165705207Y-81078898D01*
X165767307Y-81061983D01*
X165806845Y-81073187D01*
G37*
G36*
X165792195Y-84011074D02*
G01*
X165806362Y-84047359D01*
X165799239Y-84060210D01*
X165743939Y-84104129D01*
X165652771Y-84160043D01*
X165548513Y-84215455D01*
X165453944Y-84257867D01*
X165391844Y-84274781D01*
X165354689Y-84266866D01*
X165363663Y-84234576D01*
X165434195Y-84181623D01*
X165561514Y-84112566D01*
X165659397Y-84065555D01*
X165747467Y-84025570D01*
X165788300Y-84010198D01*
X165792195Y-84011074D01*
G37*
G36*
X165186334Y-73469673D02*
G01*
X165280033Y-73483070D01*
X165314993Y-73502460D01*
X165314992Y-73502496D01*
X165279919Y-73521877D01*
X165186134Y-73535263D01*
X165050409Y-73540257D01*
X165050152Y-73540257D01*
X164914485Y-73535247D01*
X164820786Y-73521849D01*
X164785826Y-73502460D01*
X164785826Y-73502423D01*
X164820900Y-73483042D01*
X164914684Y-73469656D01*
X165050409Y-73464662D01*
X165050666Y-73464662D01*
X165186334Y-73469673D01*
G37*
G36*
X165250693Y-73056693D02*
G01*
X165269688Y-73117540D01*
X165277195Y-73218977D01*
X165275461Y-73269809D01*
X165261939Y-73355284D01*
X165239397Y-73389067D01*
X165228101Y-73381262D01*
X165209107Y-73320415D01*
X165201600Y-73218977D01*
X165203334Y-73168146D01*
X165216856Y-73082671D01*
X165239397Y-73048888D01*
X165250693Y-73056693D01*
G37*
G36*
X165250693Y-73623657D02*
G01*
X165269688Y-73684505D01*
X165277195Y-73785942D01*
X165275461Y-73836773D01*
X165261939Y-73922248D01*
X165239397Y-73956031D01*
X165228101Y-73948226D01*
X165209107Y-73887379D01*
X165201600Y-73785942D01*
X165203334Y-73735110D01*
X165216856Y-73649636D01*
X165239397Y-73615852D01*
X165250693Y-73623657D01*
G37*
G36*
X165250693Y-75702526D02*
G01*
X165269688Y-75763374D01*
X165277195Y-75864811D01*
X165275461Y-75915642D01*
X165261939Y-76001117D01*
X165239397Y-76034900D01*
X165228101Y-76027095D01*
X165209107Y-75966248D01*
X165201600Y-75864811D01*
X165203334Y-75813980D01*
X165216856Y-75728505D01*
X165239397Y-75694722D01*
X165250693Y-75702526D01*
G37*
G36*
X165250693Y-77176633D02*
G01*
X165269688Y-77237481D01*
X165277195Y-77338918D01*
X165275461Y-77389749D01*
X165261939Y-77475224D01*
X165239397Y-77509007D01*
X165228101Y-77501203D01*
X165209107Y-77440355D01*
X165201600Y-77338918D01*
X165203334Y-77288087D01*
X165216856Y-77202612D01*
X165239397Y-77168829D01*
X165250693Y-77176633D01*
G37*
G36*
X165250693Y-78953121D02*
G01*
X165269688Y-79013969D01*
X165277195Y-79115406D01*
X165275461Y-79166237D01*
X165261939Y-79251712D01*
X165239397Y-79285495D01*
X165228101Y-79277691D01*
X165209107Y-79216843D01*
X165201600Y-79115406D01*
X165203334Y-79064575D01*
X165216856Y-78979100D01*
X165239397Y-78945317D01*
X165250693Y-78953121D01*
G37*
G36*
X165250693Y-79860264D02*
G01*
X165269688Y-79921112D01*
X165277195Y-80022549D01*
X165275461Y-80073380D01*
X165261939Y-80158855D01*
X165239397Y-80192638D01*
X165228101Y-80184834D01*
X165209107Y-80123986D01*
X165201600Y-80022549D01*
X165203334Y-79971718D01*
X165216856Y-79886243D01*
X165239397Y-79852460D01*
X165250693Y-79860264D01*
G37*
G36*
X165250693Y-81901336D02*
G01*
X165269688Y-81962183D01*
X165277195Y-82063620D01*
X165275461Y-82114452D01*
X165261939Y-82199927D01*
X165239397Y-82233710D01*
X165228101Y-82225905D01*
X165209107Y-82165058D01*
X165201600Y-82063620D01*
X165203334Y-82012789D01*
X165216856Y-81927314D01*
X165239397Y-81893531D01*
X165250693Y-81901336D01*
G37*
G36*
X165239881Y-70716639D02*
G01*
X165229480Y-70753836D01*
X165164369Y-70809289D01*
X165051666Y-70874888D01*
X164960157Y-70919561D01*
X164856942Y-70960645D01*
X164802014Y-70964384D01*
X164785826Y-70932858D01*
X164792948Y-70920007D01*
X164848248Y-70876088D01*
X164939417Y-70820174D01*
X165043675Y-70764762D01*
X165138243Y-70722350D01*
X165200343Y-70705436D01*
X165239881Y-70716639D01*
G37*
G36*
X165226750Y-71276086D02*
G01*
X165239397Y-71321223D01*
X165209750Y-71360887D01*
X165134036Y-71414179D01*
X165034061Y-71469780D01*
X164931633Y-71516656D01*
X164848563Y-71543777D01*
X164806658Y-71540111D01*
X164802833Y-71520038D01*
X164833489Y-71470245D01*
X164889799Y-71433992D01*
X164982241Y-71382726D01*
X165084747Y-71330069D01*
X165172078Y-71288976D01*
X165218993Y-71272400D01*
X165226750Y-71276086D01*
G37*
G36*
X165225231Y-71575657D02*
G01*
X165239397Y-71611942D01*
X165232275Y-71624793D01*
X165176975Y-71668712D01*
X165085806Y-71724626D01*
X164981548Y-71780038D01*
X164886980Y-71822450D01*
X164824880Y-71839364D01*
X164787724Y-71831450D01*
X164796699Y-71799160D01*
X164867231Y-71746206D01*
X164994550Y-71677149D01*
X165092432Y-71630139D01*
X165180502Y-71590153D01*
X165221336Y-71574781D01*
X165225231Y-71575657D01*
G37*
G36*
X165239881Y-72190747D02*
G01*
X165229480Y-72227943D01*
X165164369Y-72283397D01*
X165051666Y-72348995D01*
X164960157Y-72393668D01*
X164856942Y-72434752D01*
X164802014Y-72438491D01*
X164785826Y-72406965D01*
X164792948Y-72394114D01*
X164848248Y-72350195D01*
X164939417Y-72294281D01*
X165043675Y-72238869D01*
X165138243Y-72196457D01*
X165200343Y-72179543D01*
X165239881Y-72190747D01*
G37*
G36*
X165042363Y-73996394D02*
G01*
X165050409Y-74102606D01*
X165050456Y-74108783D01*
X165067387Y-74248746D01*
X165105607Y-74381287D01*
X165114719Y-74404395D01*
X165138560Y-74491023D01*
X165135107Y-74539091D01*
X165132464Y-74549388D01*
X165174404Y-74539848D01*
X165214554Y-74532573D01*
X165239397Y-74567774D01*
X165210059Y-74609643D01*
X165134449Y-74664342D01*
X165034317Y-74720393D01*
X164931421Y-74766831D01*
X164847520Y-74792690D01*
X164804371Y-74787006D01*
X164806406Y-74770171D01*
X164848946Y-74721739D01*
X164921296Y-74665284D01*
X164999565Y-74618412D01*
X165059859Y-74598732D01*
X165069113Y-74597628D01*
X165085516Y-74562193D01*
X165051323Y-74485382D01*
X165036924Y-74465171D01*
X165003903Y-74454941D01*
X164954928Y-74504281D01*
X164914971Y-74550399D01*
X164904263Y-74541351D01*
X164917558Y-74466299D01*
X164925910Y-74420991D01*
X164945182Y-74293809D01*
X164962516Y-74154469D01*
X164973002Y-74080090D01*
X164997244Y-73988922D01*
X165022503Y-73959762D01*
X165042363Y-73996394D01*
G37*
G36*
X165225231Y-75128633D02*
G01*
X165239397Y-75164918D01*
X165232275Y-75177769D01*
X165176975Y-75221688D01*
X165085806Y-75277602D01*
X164981548Y-75333014D01*
X164886980Y-75375426D01*
X164824880Y-75392341D01*
X164787724Y-75384426D01*
X164796699Y-75352136D01*
X164867231Y-75299182D01*
X164994550Y-75230125D01*
X165092432Y-75183115D01*
X165180502Y-75143130D01*
X165221336Y-75127757D01*
X165225231Y-75128633D01*
G37*
G36*
X165226750Y-76605550D02*
G01*
X165239397Y-76650687D01*
X165209750Y-76690351D01*
X165134036Y-76743644D01*
X165034061Y-76799244D01*
X164931633Y-76846121D01*
X164848563Y-76873242D01*
X164806658Y-76869576D01*
X164802833Y-76849502D01*
X164833489Y-76799709D01*
X164889799Y-76763456D01*
X164982241Y-76712190D01*
X165084747Y-76659534D01*
X165172078Y-76618441D01*
X165218993Y-76601864D01*
X165226750Y-76605550D01*
G37*
G36*
X164914042Y-77841453D02*
G01*
X165051666Y-77906519D01*
X165148955Y-77962329D01*
X165231540Y-78039940D01*
X165239892Y-78115036D01*
X165173793Y-78191904D01*
X165033027Y-78274830D01*
X164935706Y-78317424D01*
X164847347Y-78344250D01*
X164805037Y-78341061D01*
X164802131Y-78334050D01*
X164824891Y-78289335D01*
X164912111Y-78225978D01*
X165067384Y-78141243D01*
X165178853Y-78084872D01*
X164982339Y-77985291D01*
X164897380Y-77938563D01*
X164816909Y-77884295D01*
X164785826Y-77848549D01*
X164791707Y-77825113D01*
X164830571Y-77815011D01*
X164914042Y-77841453D01*
G37*
G36*
X165237831Y-79347741D02*
G01*
X165223903Y-79388791D01*
X165166287Y-79435356D01*
X165056412Y-79468834D01*
X164917571Y-79465959D01*
X164802559Y-79420877D01*
X164775141Y-79397787D01*
X164751574Y-79352110D01*
X164784921Y-79335845D01*
X164862419Y-79361625D01*
X164888828Y-79373802D01*
X165014509Y-79388281D01*
X165173251Y-79343008D01*
X165206469Y-79333454D01*
X165237831Y-79347741D01*
G37*
G36*
X165239881Y-80770806D02*
G01*
X165229480Y-80808003D01*
X165164369Y-80863456D01*
X165051666Y-80929055D01*
X164960157Y-80973728D01*
X164856942Y-81014812D01*
X164802014Y-81018550D01*
X164785826Y-80987025D01*
X164792948Y-80974174D01*
X164848248Y-80930255D01*
X164939417Y-80874341D01*
X165043675Y-80818929D01*
X165138243Y-80776517D01*
X165200343Y-80759602D01*
X165239881Y-80770806D01*
G37*
G36*
X165226750Y-81330253D02*
G01*
X165239397Y-81375389D01*
X165209750Y-81415053D01*
X165134036Y-81468346D01*
X165034061Y-81523947D01*
X164931633Y-81570823D01*
X164848563Y-81597944D01*
X164806658Y-81594278D01*
X164802833Y-81574205D01*
X164833489Y-81524412D01*
X164889799Y-81488159D01*
X164982241Y-81436892D01*
X165084747Y-81384236D01*
X165172078Y-81343143D01*
X165218993Y-81326567D01*
X165226750Y-81330253D01*
G37*
G36*
X165239881Y-82849675D02*
G01*
X165229480Y-82886872D01*
X165164369Y-82942325D01*
X165051666Y-83007924D01*
X164960157Y-83052597D01*
X164856942Y-83093681D01*
X164802014Y-83097419D01*
X164785826Y-83065894D01*
X164792948Y-83053043D01*
X164848248Y-83009124D01*
X164939417Y-82953210D01*
X165043675Y-82897798D01*
X165138243Y-82855386D01*
X165200343Y-82838472D01*
X165239881Y-82849675D01*
G37*
G36*
X165226750Y-83409122D02*
G01*
X165239397Y-83454258D01*
X165209750Y-83493922D01*
X165134036Y-83547215D01*
X165034061Y-83602816D01*
X164931633Y-83649692D01*
X164848563Y-83676813D01*
X164806658Y-83673147D01*
X164802833Y-83653074D01*
X164833489Y-83603281D01*
X164889799Y-83567028D01*
X164982241Y-83515761D01*
X165084747Y-83463105D01*
X165172078Y-83422012D01*
X165218993Y-83405436D01*
X165226750Y-83409122D01*
G37*
G36*
X165225231Y-83708693D02*
G01*
X165239397Y-83744978D01*
X165232275Y-83757829D01*
X165176975Y-83801748D01*
X165085806Y-83857662D01*
X164981548Y-83913074D01*
X164886980Y-83955486D01*
X164824880Y-83972400D01*
X164787724Y-83964485D01*
X164796699Y-83932195D01*
X164867231Y-83879242D01*
X164994550Y-83810185D01*
X165092432Y-83763175D01*
X165180502Y-83723189D01*
X165221336Y-83707817D01*
X165225231Y-83708693D01*
G37*
G36*
X165239881Y-84323782D02*
G01*
X165229480Y-84360979D01*
X165164369Y-84416432D01*
X165051666Y-84482031D01*
X164960157Y-84526704D01*
X164856942Y-84567788D01*
X164802014Y-84571527D01*
X164785826Y-84540001D01*
X164792948Y-84527150D01*
X164848248Y-84483231D01*
X164939417Y-84427317D01*
X165043675Y-84371905D01*
X165138243Y-84329493D01*
X165200343Y-84312579D01*
X165239881Y-84323782D01*
G37*
G36*
X165021084Y-72750363D02*
G01*
X165042026Y-72803022D01*
X165050409Y-72897698D01*
X165049445Y-72931588D01*
X165036281Y-73015356D01*
X165012612Y-73048888D01*
X165004139Y-73045033D01*
X164983197Y-72992374D01*
X164974814Y-72897698D01*
X164975778Y-72863807D01*
X164988943Y-72780039D01*
X165012612Y-72746507D01*
X165021084Y-72750363D01*
G37*
G36*
X165021084Y-78684589D02*
G01*
X165042026Y-78737248D01*
X165050409Y-78831924D01*
X165049445Y-78865815D01*
X165036281Y-78949582D01*
X165012612Y-78983114D01*
X165004139Y-78979259D01*
X164983197Y-78926600D01*
X164974814Y-78831924D01*
X164975778Y-78798033D01*
X164988943Y-78714266D01*
X165012612Y-78680733D01*
X165021084Y-78684589D01*
G37*
G36*
X164874020Y-76400277D02*
G01*
X164882846Y-76412396D01*
X164899219Y-76477202D01*
X164899175Y-76480582D01*
X164882326Y-76509706D01*
X164823624Y-76488472D01*
X164777520Y-76456180D01*
X164748028Y-76411546D01*
X164764356Y-76385665D01*
X164818969Y-76376340D01*
X164874020Y-76400277D01*
G37*
G36*
X164683729Y-71544788D02*
G01*
X164702723Y-71605635D01*
X164710231Y-71707073D01*
X164708496Y-71757904D01*
X164694975Y-71843379D01*
X164672433Y-71877162D01*
X164661137Y-71869357D01*
X164642143Y-71808510D01*
X164634635Y-71707073D01*
X164636370Y-71656241D01*
X164649891Y-71570766D01*
X164672433Y-71536983D01*
X164683729Y-71544788D01*
G37*
G36*
X164268709Y-72180598D02*
G01*
X164344131Y-72206159D01*
X164447912Y-72255811D01*
X164555592Y-72316086D01*
X164642713Y-72373513D01*
X164684813Y-72414624D01*
X164689442Y-72431176D01*
X164699382Y-72515957D01*
X164705439Y-72644944D01*
X164707831Y-72801027D01*
X164706777Y-72967097D01*
X164702492Y-73126045D01*
X164695195Y-73260762D01*
X164685103Y-73354139D01*
X164672433Y-73389067D01*
X164659212Y-73366616D01*
X164646013Y-73277012D01*
X164637593Y-73126837D01*
X164634635Y-72924470D01*
X164634635Y-72459874D01*
X164426749Y-72357917D01*
X164426721Y-72357904D01*
X164306798Y-72291105D01*
X164233963Y-72234119D01*
X164215306Y-72194435D01*
X164257916Y-72179543D01*
X164268709Y-72180598D01*
G37*
G36*
X164685999Y-73639897D02*
G01*
X164699023Y-73731437D01*
X164707320Y-73883647D01*
X164710231Y-74088323D01*
X164708307Y-74257893D01*
X164700984Y-74420703D01*
X164688807Y-74524404D01*
X164672433Y-74560793D01*
X164658867Y-74536749D01*
X164645843Y-74445208D01*
X164637547Y-74292999D01*
X164634635Y-74088323D01*
X164636559Y-73918752D01*
X164643882Y-73755942D01*
X164656059Y-73652242D01*
X164672433Y-73615852D01*
X164685999Y-73639897D01*
G37*
G36*
X164683729Y-75097764D02*
G01*
X164702723Y-75158612D01*
X164710231Y-75260049D01*
X164708496Y-75310880D01*
X164694975Y-75396355D01*
X164672433Y-75430138D01*
X164661137Y-75422334D01*
X164642143Y-75361486D01*
X164634635Y-75260049D01*
X164636370Y-75209218D01*
X164649891Y-75123743D01*
X164672433Y-75089960D01*
X164683729Y-75097764D01*
G37*
G36*
X164677305Y-75696908D02*
G01*
X164694553Y-75748740D01*
X164706050Y-75859539D01*
X164710231Y-76016001D01*
X164709973Y-76057409D01*
X164703876Y-76204023D01*
X164690840Y-76301749D01*
X164672433Y-76337281D01*
X164667561Y-76335094D01*
X164650313Y-76283263D01*
X164638816Y-76172463D01*
X164634635Y-76016001D01*
X164634893Y-75974593D01*
X164640991Y-75827979D01*
X164654026Y-75730254D01*
X164672433Y-75694722D01*
X164677305Y-75696908D01*
G37*
G36*
X164676420Y-76604107D02*
G01*
X164690656Y-76658447D01*
X164701284Y-76780934D01*
X164707932Y-76965638D01*
X164710231Y-77206626D01*
X164710090Y-77270421D01*
X164706694Y-77498197D01*
X164699039Y-77668238D01*
X164687495Y-77774612D01*
X164672433Y-77811388D01*
X164668446Y-77809145D01*
X164654210Y-77754806D01*
X164643582Y-77632318D01*
X164636934Y-77447615D01*
X164634635Y-77206626D01*
X164634776Y-77142832D01*
X164638172Y-76915056D01*
X164645827Y-76745015D01*
X164657371Y-76638641D01*
X164672433Y-76601864D01*
X164676420Y-76604107D01*
G37*
G36*
X164685999Y-78364599D02*
G01*
X164699023Y-78456140D01*
X164707320Y-78608349D01*
X164710231Y-78813025D01*
X164708307Y-78982596D01*
X164700984Y-79145406D01*
X164688807Y-79249106D01*
X164672433Y-79285495D01*
X164658867Y-79261451D01*
X164645843Y-79169910D01*
X164637547Y-79017701D01*
X164634635Y-78813025D01*
X164636559Y-78643454D01*
X164643882Y-78480644D01*
X164656059Y-78376944D01*
X164672433Y-78340555D01*
X164685999Y-78364599D01*
G37*
G36*
X164673562Y-79550283D02*
G01*
X164687392Y-79590013D01*
X164698275Y-79686469D01*
X164705941Y-79822121D01*
X164710122Y-79979439D01*
X164710548Y-80140894D01*
X164706952Y-80288957D01*
X164699064Y-80406096D01*
X164686615Y-80474782D01*
X164684697Y-80478845D01*
X164634419Y-80528427D01*
X164541947Y-80591720D01*
X164431936Y-80654519D01*
X164329041Y-80702616D01*
X164257916Y-80721805D01*
X164220853Y-80713957D01*
X164229578Y-80681744D01*
X164299810Y-80628892D01*
X164426749Y-80560000D01*
X164634635Y-80458043D01*
X164634635Y-80004061D01*
X164636332Y-79851020D01*
X164643573Y-79689586D01*
X164655846Y-79586395D01*
X164672433Y-79550079D01*
X164673562Y-79550283D01*
G37*
G36*
X164683729Y-82203717D02*
G01*
X164702723Y-82264564D01*
X164710231Y-82366001D01*
X164708496Y-82416833D01*
X164694975Y-82502307D01*
X164672433Y-82536091D01*
X164661137Y-82528286D01*
X164642143Y-82467438D01*
X164634635Y-82366001D01*
X164636370Y-82315170D01*
X164649891Y-82229695D01*
X164672433Y-82195912D01*
X164683729Y-82203717D01*
G37*
G36*
X164677305Y-83105242D02*
G01*
X164694553Y-83157073D01*
X164706050Y-83267873D01*
X164710231Y-83424335D01*
X164709973Y-83465743D01*
X164703876Y-83612357D01*
X164690840Y-83710082D01*
X164672433Y-83745614D01*
X164667561Y-83743427D01*
X164650313Y-83691596D01*
X164638816Y-83580797D01*
X164634635Y-83424335D01*
X164634893Y-83382927D01*
X164640991Y-83236313D01*
X164654026Y-83138587D01*
X164672433Y-83103055D01*
X164677305Y-83105242D01*
G37*
G36*
X164677305Y-83974587D02*
G01*
X164694553Y-84026418D01*
X164706050Y-84137218D01*
X164710231Y-84293680D01*
X164709973Y-84335088D01*
X164703876Y-84481702D01*
X164690840Y-84579428D01*
X164672433Y-84614960D01*
X164667561Y-84612773D01*
X164650313Y-84560941D01*
X164638816Y-84450142D01*
X164634635Y-84293680D01*
X164634893Y-84252272D01*
X164640991Y-84105658D01*
X164654026Y-84007932D01*
X164672433Y-83972400D01*
X164677305Y-83974587D01*
G37*
G36*
X164659785Y-70973705D02*
G01*
X164672433Y-71018842D01*
X164642786Y-71058506D01*
X164567072Y-71111799D01*
X164467096Y-71167399D01*
X164364669Y-71214275D01*
X164281598Y-71241396D01*
X164239694Y-71237730D01*
X164235869Y-71217657D01*
X164266525Y-71167864D01*
X164322835Y-71131611D01*
X164415277Y-71080345D01*
X164517783Y-71027688D01*
X164605113Y-70986595D01*
X164652028Y-70970019D01*
X164659785Y-70973705D01*
G37*
G36*
X164551823Y-74941917D02*
G01*
X164588767Y-74955462D01*
X164657640Y-74990514D01*
X164654212Y-75014714D01*
X164577556Y-75028739D01*
X164426749Y-75033263D01*
X164370467Y-75032781D01*
X164242940Y-75024913D01*
X164189945Y-75007198D01*
X164211129Y-74979368D01*
X164306139Y-74941151D01*
X164413120Y-74919253D01*
X164551823Y-74941917D01*
G37*
G36*
X164482855Y-75525083D02*
G01*
X164609958Y-75532558D01*
X164663204Y-75549748D01*
X164643517Y-75577330D01*
X164551823Y-75615978D01*
X164447225Y-75638536D01*
X164306139Y-75616745D01*
X164267912Y-75603438D01*
X164196361Y-75568556D01*
X164198748Y-75543974D01*
X164275426Y-75529423D01*
X164426749Y-75524632D01*
X164482855Y-75525083D01*
G37*
G36*
X164672916Y-81073187D02*
G01*
X164662516Y-81110384D01*
X164597405Y-81165837D01*
X164484701Y-81231436D01*
X164393193Y-81276109D01*
X164289978Y-81317193D01*
X164235050Y-81320931D01*
X164218862Y-81289406D01*
X164225984Y-81276555D01*
X164281284Y-81232636D01*
X164372453Y-81176722D01*
X164476710Y-81121310D01*
X164571279Y-81078898D01*
X164633379Y-81061983D01*
X164672916Y-81073187D01*
G37*
G36*
X164659785Y-81632634D02*
G01*
X164672433Y-81677770D01*
X164642786Y-81717434D01*
X164567072Y-81770727D01*
X164467096Y-81826328D01*
X164364669Y-81873204D01*
X164281598Y-81900325D01*
X164239694Y-81896659D01*
X164235869Y-81876586D01*
X164266525Y-81826793D01*
X164322835Y-81790540D01*
X164415277Y-81739273D01*
X164517783Y-81686617D01*
X164605113Y-81645524D01*
X164652028Y-81628948D01*
X164659785Y-81632634D01*
G37*
G36*
X164670867Y-82900717D02*
G01*
X164656939Y-82941767D01*
X164599323Y-82988332D01*
X164489447Y-83021810D01*
X164350606Y-83018935D01*
X164235595Y-82973854D01*
X164208177Y-82950763D01*
X164184610Y-82905086D01*
X164217957Y-82888821D01*
X164295455Y-82914601D01*
X164321864Y-82926778D01*
X164447545Y-82941257D01*
X164606287Y-82895985D01*
X164639505Y-82886430D01*
X164670867Y-82900717D01*
G37*
G36*
X164118192Y-71292693D02*
G01*
X164131642Y-71379564D01*
X164140240Y-71526872D01*
X164143266Y-71725972D01*
X164141575Y-71878647D01*
X164134336Y-72040049D01*
X164122060Y-72143229D01*
X164105469Y-72179543D01*
X164092746Y-72159250D01*
X164079296Y-72072379D01*
X164070697Y-71925071D01*
X164067671Y-71725972D01*
X164069362Y-71573296D01*
X164076601Y-71411894D01*
X164088877Y-71308714D01*
X164105469Y-71272400D01*
X164118192Y-71292693D01*
G37*
G36*
X164116765Y-75097764D02*
G01*
X164135759Y-75158612D01*
X164143266Y-75260049D01*
X164141532Y-75310880D01*
X164128010Y-75396355D01*
X164105469Y-75430138D01*
X164094173Y-75422334D01*
X164075178Y-75361486D01*
X164067671Y-75260049D01*
X164069405Y-75209218D01*
X164082927Y-75123743D01*
X164105469Y-75089960D01*
X164116765Y-75097764D01*
G37*
G36*
X164110340Y-80723992D02*
G01*
X164127589Y-80775823D01*
X164139086Y-80886623D01*
X164143266Y-81043085D01*
X164143009Y-81084493D01*
X164136911Y-81231107D01*
X164123876Y-81328832D01*
X164105469Y-81364364D01*
X164100597Y-81362177D01*
X164083349Y-81310346D01*
X164071851Y-81199547D01*
X164067671Y-81043085D01*
X164067928Y-81001677D01*
X164074026Y-80855063D01*
X164087061Y-80757337D01*
X164105469Y-80721805D01*
X164110340Y-80723992D01*
G37*
G36*
X164119034Y-81917575D02*
G01*
X164132059Y-82009116D01*
X164140355Y-82161325D01*
X164143266Y-82366001D01*
X164141343Y-82535572D01*
X164134020Y-82698382D01*
X164121843Y-82802082D01*
X164105469Y-82838472D01*
X164091903Y-82814427D01*
X164078878Y-82722886D01*
X164070582Y-82570677D01*
X164067671Y-82366001D01*
X164069595Y-82196431D01*
X164076918Y-82033621D01*
X164089095Y-81929920D01*
X164105469Y-81893531D01*
X164119034Y-81917575D01*
G37*
G36*
X163270937Y-85084280D02*
G01*
X163268265Y-85122617D01*
X163251085Y-85133889D01*
X163243595Y-85120517D01*
X163248101Y-85061444D01*
X163261706Y-85043949D01*
X163270937Y-85084280D01*
G37*
%TD*%
M02*
