%TF.GenerationSoftware,KiCad,Pcbnew,(6.0.7-1)-1*%
%TF.CreationDate,2023-05-14T20:37:22-05:00*%
%TF.ProjectId,ESP32-C3,45535033-322d-4433-932e-6b696361645f,1.0*%
%TF.SameCoordinates,Original*%
%TF.FileFunction,Copper,L1,Top*%
%TF.FilePolarity,Positive*%
%FSLAX46Y46*%
G04 Gerber Fmt 4.6, Leading zero omitted, Abs format (unit mm)*
G04 Created by KiCad (PCBNEW (6.0.7-1)-1) date 2023-05-14 20:37:22*
%MOMM*%
%LPD*%
G01*
G04 APERTURE LIST*
G04 Aperture macros list*
%AMRoundRect*
0 Rectangle with rounded corners*
0 $1 Rounding radius*
0 $2 $3 $4 $5 $6 $7 $8 $9 X,Y pos of 4 corners*
0 Add a 4 corners polygon primitive as box body*
4,1,4,$2,$3,$4,$5,$6,$7,$8,$9,$2,$3,0*
0 Add four circle primitives for the rounded corners*
1,1,$1+$1,$2,$3*
1,1,$1+$1,$4,$5*
1,1,$1+$1,$6,$7*
1,1,$1+$1,$8,$9*
0 Add four rect primitives between the rounded corners*
20,1,$1+$1,$2,$3,$4,$5,0*
20,1,$1+$1,$4,$5,$6,$7,0*
20,1,$1+$1,$6,$7,$8,$9,0*
20,1,$1+$1,$8,$9,$2,$3,0*%
G04 Aperture macros list end*
%TA.AperFunction,SMDPad,CuDef*%
%ADD10R,0.600000X1.450000*%
%TD*%
%TA.AperFunction,SMDPad,CuDef*%
%ADD11R,0.300000X1.450000*%
%TD*%
%TA.AperFunction,ComponentPad*%
%ADD12O,1.000000X2.100000*%
%TD*%
%TA.AperFunction,ComponentPad*%
%ADD13O,1.000000X1.600000*%
%TD*%
%TA.AperFunction,SMDPad,CuDef*%
%ADD14R,0.630000X0.500000*%
%TD*%
%TA.AperFunction,ConnectorPad*%
%ADD15R,0.500000X0.500000*%
%TD*%
%TA.AperFunction,SMDPad,CuDef*%
%ADD16RoundRect,0.140000X0.140000X0.170000X-0.140000X0.170000X-0.140000X-0.170000X0.140000X-0.170000X0*%
%TD*%
%TA.AperFunction,SMDPad,CuDef*%
%ADD17RoundRect,0.135000X0.135000X0.185000X-0.135000X0.185000X-0.135000X-0.185000X0.135000X-0.185000X0*%
%TD*%
%TA.AperFunction,SMDPad,CuDef*%
%ADD18RoundRect,0.135000X-0.135000X-0.185000X0.135000X-0.185000X0.135000X0.185000X-0.135000X0.185000X0*%
%TD*%
%TA.AperFunction,SMDPad,CuDef*%
%ADD19RoundRect,0.225000X0.225000X0.250000X-0.225000X0.250000X-0.225000X-0.250000X0.225000X-0.250000X0*%
%TD*%
%TA.AperFunction,SMDPad,CuDef*%
%ADD20RoundRect,0.135000X0.185000X-0.135000X0.185000X0.135000X-0.185000X0.135000X-0.185000X-0.135000X0*%
%TD*%
%TA.AperFunction,SMDPad,CuDef*%
%ADD21RoundRect,0.140000X-0.140000X-0.170000X0.140000X-0.170000X0.140000X0.170000X-0.140000X0.170000X0*%
%TD*%
%TA.AperFunction,SMDPad,CuDef*%
%ADD22RoundRect,0.225000X0.250000X-0.225000X0.250000X0.225000X-0.250000X0.225000X-0.250000X-0.225000X0*%
%TD*%
%TA.AperFunction,SMDPad,CuDef*%
%ADD23R,0.900000X0.300000*%
%TD*%
%TA.AperFunction,SMDPad,CuDef*%
%ADD24R,0.250000X1.650000*%
%TD*%
%TA.AperFunction,SMDPad,CuDef*%
%ADD25RoundRect,0.150000X0.512500X0.150000X-0.512500X0.150000X-0.512500X-0.150000X0.512500X-0.150000X0*%
%TD*%
%TA.AperFunction,SMDPad,CuDef*%
%ADD26RoundRect,0.218750X0.256250X-0.218750X0.256250X0.218750X-0.256250X0.218750X-0.256250X-0.218750X0*%
%TD*%
%TA.AperFunction,SMDPad,CuDef*%
%ADD27RoundRect,0.218750X0.218750X0.256250X-0.218750X0.256250X-0.218750X-0.256250X0.218750X-0.256250X0*%
%TD*%
%TA.AperFunction,ComponentPad*%
%ADD28R,1.350000X1.350000*%
%TD*%
%TA.AperFunction,ComponentPad*%
%ADD29O,1.350000X1.350000*%
%TD*%
%TA.AperFunction,SMDPad,CuDef*%
%ADD30RoundRect,0.135000X-0.185000X0.135000X-0.185000X-0.135000X0.185000X-0.135000X0.185000X0.135000X0*%
%TD*%
%TA.AperFunction,SMDPad,CuDef*%
%ADD31R,1.700000X0.900000*%
%TD*%
%TA.AperFunction,SMDPad,CuDef*%
%ADD32RoundRect,0.218750X-0.256250X0.218750X-0.256250X-0.218750X0.256250X-0.218750X0.256250X0.218750X0*%
%TD*%
%TA.AperFunction,SMDPad,CuDef*%
%ADD33RoundRect,0.062500X0.062500X-0.375000X0.062500X0.375000X-0.062500X0.375000X-0.062500X-0.375000X0*%
%TD*%
%TA.AperFunction,SMDPad,CuDef*%
%ADD34RoundRect,0.062500X0.375000X-0.062500X0.375000X0.062500X-0.375000X0.062500X-0.375000X-0.062500X0*%
%TD*%
%TA.AperFunction,SMDPad,CuDef*%
%ADD35R,3.450000X3.450000*%
%TD*%
%TA.AperFunction,SMDPad,CuDef*%
%ADD36RoundRect,0.218750X-0.218750X-0.256250X0.218750X-0.256250X0.218750X0.256250X-0.218750X0.256250X0*%
%TD*%
%TA.AperFunction,SMDPad,CuDef*%
%ADD37RoundRect,0.140000X0.170000X-0.140000X0.170000X0.140000X-0.170000X0.140000X-0.170000X-0.140000X0*%
%TD*%
%TA.AperFunction,SMDPad,CuDef*%
%ADD38RoundRect,0.140000X-0.170000X0.140000X-0.170000X-0.140000X0.170000X-0.140000X0.170000X0.140000X0*%
%TD*%
%TA.AperFunction,SMDPad,CuDef*%
%ADD39R,1.800000X2.100000*%
%TD*%
%TA.AperFunction,SMDPad,CuDef*%
%ADD40RoundRect,0.225000X-0.225000X-0.250000X0.225000X-0.250000X0.225000X0.250000X-0.225000X0.250000X0*%
%TD*%
%TA.AperFunction,SMDPad,CuDef*%
%ADD41RoundRect,0.225000X-0.250000X0.225000X-0.250000X-0.225000X0.250000X-0.225000X0.250000X0.225000X0*%
%TD*%
%TA.AperFunction,SMDPad,CuDef*%
%ADD42RoundRect,0.150000X0.150000X-0.512500X0.150000X0.512500X-0.150000X0.512500X-0.150000X-0.512500X0*%
%TD*%
%TA.AperFunction,ViaPad*%
%ADD43C,0.800000*%
%TD*%
%TA.AperFunction,ViaPad*%
%ADD44C,0.700000*%
%TD*%
%TA.AperFunction,Conductor*%
%ADD45C,0.500000*%
%TD*%
%TA.AperFunction,Conductor*%
%ADD46C,0.200000*%
%TD*%
%TA.AperFunction,Conductor*%
%ADD47C,0.250000*%
%TD*%
%TA.AperFunction,Conductor*%
%ADD48C,0.300000*%
%TD*%
G04 APERTURE END LIST*
%TO.C,ANT1*%
G36*
X151104735Y-118641922D02*
G01*
X151104735Y-115941922D01*
X149104735Y-115941922D01*
X149104735Y-118641922D01*
X146304735Y-118641922D01*
X146304735Y-115941922D01*
X144304735Y-115941922D01*
X144304735Y-118641922D01*
X141604735Y-118641922D01*
X141604735Y-113971922D01*
X142104735Y-113971922D01*
X142104735Y-118141922D01*
X143804735Y-118141922D01*
X143804735Y-115441922D01*
X146804735Y-115441922D01*
X146804735Y-118141922D01*
X148604735Y-118141922D01*
X148604735Y-115441922D01*
X151604735Y-115441922D01*
X151604735Y-118141922D01*
X153304735Y-118141922D01*
X153304735Y-113231922D01*
X153804735Y-113231922D01*
X153804735Y-118141922D01*
X155474735Y-118141922D01*
X155474735Y-113500080D01*
X155506513Y-113500080D01*
X155514953Y-113548339D01*
X155531847Y-113580565D01*
X155567107Y-113613235D01*
X155612417Y-113633330D01*
X155662002Y-113639904D01*
X155710088Y-113632014D01*
X155742980Y-113615108D01*
X155777920Y-113578338D01*
X155797582Y-113533544D01*
X155802318Y-113485137D01*
X155792477Y-113437527D01*
X155768409Y-113395125D01*
X155730466Y-113362341D01*
X155722554Y-113357987D01*
X155679891Y-113345879D01*
X155631372Y-113346622D01*
X155585857Y-113359522D01*
X155567246Y-113370135D01*
X155533603Y-113405369D01*
X155513044Y-113450554D01*
X155506513Y-113500080D01*
X155474735Y-113500080D01*
X155474735Y-113231922D01*
X156104735Y-113231922D01*
X156104735Y-118641922D01*
X151104735Y-118641922D01*
G37*
%TD*%
D10*
%TO.P,J2,A1,GND*%
%TO.N,GND*%
X151867600Y-68687800D03*
%TO.P,J2,A4,VBUS*%
%TO.N,/VBUS*%
X151067600Y-68687800D03*
D11*
%TO.P,J2,A5,CC1*%
%TO.N,/CC1*%
X149867600Y-68687800D03*
%TO.P,J2,A6,D+*%
%TO.N,/D+*%
X148867600Y-68687800D03*
%TO.P,J2,A7,D-*%
%TO.N,/D-*%
X148367600Y-68687800D03*
%TO.P,J2,A8,SBU1*%
%TO.N,unconnected-(J2-PadA8)*%
X147367600Y-68687800D03*
D10*
%TO.P,J2,A9,VBUS*%
%TO.N,/VBUS*%
X146167600Y-68687800D03*
%TO.P,J2,A12,GND*%
%TO.N,GND*%
X145367600Y-68687800D03*
%TO.P,J2,B1,GND*%
X145367600Y-68687800D03*
%TO.P,J2,B4,VBUS*%
%TO.N,/VBUS*%
X146167600Y-68687800D03*
D11*
%TO.P,J2,B5,CC2*%
%TO.N,/CC2*%
X146867600Y-68687800D03*
%TO.P,J2,B6,D+*%
%TO.N,/D+*%
X147867600Y-68687800D03*
%TO.P,J2,B7,D-*%
%TO.N,/D-*%
X149367600Y-68687800D03*
%TO.P,J2,B8,SBU2*%
%TO.N,unconnected-(J2-PadB8)*%
X150367600Y-68687800D03*
D10*
%TO.P,J2,B9,VBUS*%
%TO.N,/VBUS*%
X151067600Y-68687800D03*
%TO.P,J2,B12,GND*%
%TO.N,GND*%
X151867600Y-68687800D03*
D12*
%TO.P,J2,S1,SHIELD*%
%TO.N,unconnected-(J2-PadS1)*%
X144297600Y-67772800D03*
D13*
X144297600Y-63592800D03*
X152937600Y-63592800D03*
D12*
X152937600Y-67772800D03*
%TD*%
D14*
%TO.P,ANT1,2,GND*%
%TO.N,GND*%
X155789735Y-113481922D03*
D15*
%TO.P,ANT1,1,Feed*%
%TO.N,/ANT1*%
X153554735Y-113481922D03*
%TD*%
D16*
%TO.P,C7,1*%
%TO.N,GND*%
X138286400Y-70233200D03*
%TO.P,C7,2*%
%TO.N,/CHIP_EN*%
X137326400Y-70233200D03*
%TD*%
D17*
%TO.P,R5,1*%
%TO.N,/UART0_RX*%
X140377600Y-84142800D03*
%TO.P,R5,2*%
X139357600Y-84142800D03*
%TD*%
D18*
%TO.P,R3,1*%
%TO.N,/CHIP_EN*%
X137296400Y-69064800D03*
%TO.P,R3,2*%
%TO.N,+3.3V*%
X138316400Y-69064800D03*
%TD*%
D19*
%TO.P,C14,1*%
%TO.N,GND*%
X155548600Y-91162800D03*
%TO.P,C14,2*%
%TO.N,/VDD_SPI*%
X153998600Y-91162800D03*
%TD*%
D20*
%TO.P,R7,1*%
%TO.N,Net-(D2-Pad1)*%
X162698400Y-99087600D03*
%TO.P,R7,2*%
%TO.N,GND*%
X162698400Y-98067600D03*
%TD*%
D21*
%TO.P,C9,1*%
%TO.N,+3.3VA*%
X149587600Y-100592800D03*
%TO.P,C9,2*%
%TO.N,GND*%
X150547600Y-100592800D03*
%TD*%
D22*
%TO.P,C15,1*%
%TO.N,+3.3V*%
X135235600Y-76189800D03*
%TO.P,C15,2*%
%TO.N,GND*%
X135235600Y-74639800D03*
%TD*%
D20*
%TO.P,R10,1*%
%TO.N,GND*%
X146239200Y-71759200D03*
%TO.P,R10,2*%
%TO.N,/CC2*%
X146239200Y-70739200D03*
%TD*%
D23*
%TO.P,IC1,1,~{CS}*%
%TO.N,SPI_NCS*%
X152617600Y-88610800D03*
%TO.P,IC1,2,DO(IO1)*%
%TO.N,SPI_DI*%
X152617600Y-88110800D03*
%TO.P,IC1,3,IO2*%
%TO.N,SPI_NWP*%
X152617600Y-87610800D03*
%TO.P,IC1,4,GND*%
%TO.N,GND*%
X152617600Y-87110800D03*
%TO.P,IC1,5,DI(IO0)*%
%TO.N,SPI_DO*%
X149817600Y-87110800D03*
%TO.P,IC1,6,CLK*%
%TO.N,SPI_CLK*%
X149817600Y-87610800D03*
%TO.P,IC1,7,IO3*%
%TO.N,SPI_NHLD*%
X149817600Y-88110800D03*
%TO.P,IC1,8,VCC*%
%TO.N,/VDD_SPI*%
X149817600Y-88610800D03*
D24*
%TO.P,IC1,9,EP*%
%TO.N,GND*%
X151217600Y-87860800D03*
%TD*%
D17*
%TO.P,R1,1*%
%TO.N,/FSPI_CLK_OUT*%
X155160873Y-96428091D03*
%TO.P,R1,2*%
%TO.N,/FSPI_CLK*%
X154140873Y-96428091D03*
%TD*%
D25*
%TO.P,U4,1,IN*%
%TO.N,/VBUS FILT*%
X139542600Y-76162800D03*
%TO.P,U4,2,GND*%
%TO.N,GND*%
X139542600Y-75212800D03*
%TO.P,U4,3,EN*%
%TO.N,/VBUS FILT*%
X139542600Y-74262800D03*
%TO.P,U4,4,BP*%
%TO.N,Net-(C16-Pad1)*%
X137267600Y-74262800D03*
%TO.P,U4,5,OUT*%
%TO.N,+3.3V*%
X137267600Y-76162800D03*
%TD*%
D26*
%TO.P,L3,1,1*%
%TO.N,/VBUS FILT*%
X144359600Y-74932300D03*
%TO.P,L3,2,2*%
%TO.N,/VBUS*%
X144359600Y-73357300D03*
%TD*%
D16*
%TO.P,C5,1*%
%TO.N,+3.3VA*%
X146363600Y-98782800D03*
%TO.P,C5,2*%
%TO.N,GND*%
X145403600Y-98782800D03*
%TD*%
D27*
%TO.P,A,1,K*%
%TO.N,Net-(D1-Pad1)*%
X161123600Y-100611600D03*
%TO.P,A,2,A*%
%TO.N,/LED A*%
X159548600Y-100611600D03*
%TD*%
D21*
%TO.P,C19,1*%
%TO.N,/VBUS FILT*%
X144133600Y-76176800D03*
%TO.P,C19,2*%
%TO.N,GND*%
X145093600Y-76176800D03*
%TD*%
D28*
%TO.P,J1,1,Pin_1*%
%TO.N,/VBUS_FILTER*%
X130288000Y-81612400D03*
D29*
%TO.P,J1,2,Pin_2*%
%TO.N,Net-(J1-Pad2)*%
X130288000Y-83612400D03*
%TO.P,J1,3,Pin_3*%
%TO.N,GND*%
X130288000Y-85612400D03*
%TO.P,J1,4,Pin_4*%
%TO.N,Net-(J1-Pad4)*%
X130288000Y-87612400D03*
%TD*%
D30*
%TO.P,R6,1*%
%TO.N,Net-(D1-Pad1)*%
X162698400Y-100304800D03*
%TO.P,R6,2*%
%TO.N,GND*%
X162698400Y-101324800D03*
%TD*%
D16*
%TO.P,C16,1*%
%TO.N,Net-(C16-Pad1)*%
X136739600Y-72874800D03*
%TO.P,C16,2*%
%TO.N,GND*%
X135779600Y-72874800D03*
%TD*%
D21*
%TO.P,C17,1*%
%TO.N,/VDD_SPI*%
X149467600Y-89892800D03*
%TO.P,C17,2*%
%TO.N,GND*%
X150427600Y-89892800D03*
%TD*%
D25*
%TO.P,U1,1,I/O1*%
%TO.N,/UART0_TX*%
X137651100Y-86245400D03*
%TO.P,U1,2,GND*%
%TO.N,GND*%
X137651100Y-85295400D03*
%TO.P,U1,3,I/O2*%
%TO.N,/UART0_RX*%
X137651100Y-84345400D03*
%TO.P,U1,4,I/O2*%
%TO.N,Net-(J1-Pad2)*%
X135376100Y-84345400D03*
%TO.P,U1,5,VBUS*%
%TO.N,/VBUS_FILTER*%
X135376100Y-85295400D03*
%TO.P,U1,6,I/O1*%
%TO.N,Net-(J1-Pad4)*%
X135376100Y-86245400D03*
%TD*%
D31*
%TO.P,SW2,1,1*%
%TO.N,/BOOT*%
X158990000Y-68174000D03*
%TO.P,SW2,2,2*%
%TO.N,GND*%
X158990000Y-64774000D03*
%TD*%
D32*
%TO.P,L1,1,1*%
%TO.N,+3.3VA*%
X149867600Y-101892800D03*
%TO.P,L1,2,2*%
%TO.N,+3.3V*%
X149867600Y-103467800D03*
%TD*%
D33*
%TO.P,U2,1,LNA_IN*%
%TO.N,LNA_IN*%
X148449000Y-99264500D03*
%TO.P,U2,2,VDD3P3*%
%TO.N,+3.3VA*%
X148949000Y-99264500D03*
%TO.P,U2,3,VDD3P3*%
X149449000Y-99264500D03*
%TO.P,U2,4,XTAL_32K_P/ADC1_CH0*%
%TO.N,unconnected-(U2-Pad4)*%
X149949000Y-99264500D03*
%TO.P,U2,5,XTAL_32K_N/ADC1_CH1*%
%TO.N,unconnected-(U2-Pad5)*%
X150449000Y-99264500D03*
%TO.P,U2,6,GPIO2/ADC1_CH2*%
%TO.N,unconnected-(U2-Pad6)*%
X150949000Y-99264500D03*
%TO.P,U2,7,CHIP_EN*%
%TO.N,/CHIP_EN*%
X151449000Y-99264500D03*
%TO.P,U2,8,GPIO3/ADC1_CH3*%
%TO.N,/LED A*%
X151949000Y-99264500D03*
D34*
%TO.P,U2,9,MTMS/GPIO4/ADC1_CH4*%
%TO.N,/LED B*%
X152636500Y-98577000D03*
%TO.P,U2,10,MTDI/GPIO5/ADC2_CH0*%
%TO.N,/INT_ACC*%
X152636500Y-98077000D03*
%TO.P,U2,11,VDD3P3_RTC*%
%TO.N,+3.3VA*%
X152636500Y-97577000D03*
%TO.P,U2,12,MTCK/GPIO6*%
%TO.N,/FSPI_CLK*%
X152636500Y-97077000D03*
%TO.P,U2,13,MTDO/GPIO7*%
%TO.N,/FSPI_D*%
X152636500Y-96577000D03*
%TO.P,U2,14,GPIO8*%
%TO.N,unconnected-(U2-Pad14)*%
X152636500Y-96077000D03*
%TO.P,U2,15,GPIO9/BOOT*%
%TO.N,/BOOT*%
X152636500Y-95577000D03*
%TO.P,U2,16,GPIO10*%
%TO.N,unconnected-(U2-Pad16)*%
X152636500Y-95077000D03*
D33*
%TO.P,U2,17,VDD3P3_CPU*%
%TO.N,+3.3VA*%
X151949000Y-94389500D03*
%TO.P,U2,18,VDD_SPI/GPIO11*%
%TO.N,/VDD_SPI*%
X151449000Y-94389500D03*
%TO.P,U2,19,SPIHD/GPIO12*%
%TO.N,SPI_NHLD*%
X150949000Y-94389500D03*
%TO.P,U2,20,SPIWP/GPIO13*%
%TO.N,SPI_NWP*%
X150449000Y-94389500D03*
%TO.P,U2,21,SPICS0/GPIO14*%
%TO.N,SPI_NCS*%
X149949000Y-94389500D03*
%TO.P,U2,22,SPICLK/GPIO15*%
%TO.N,SPI_CLK*%
X149449000Y-94389500D03*
%TO.P,U2,23,SPID/GPIO16*%
%TO.N,SPI_DI*%
X148949000Y-94389500D03*
%TO.P,U2,24,SPIQ/GPIO17*%
%TO.N,SPI_DO*%
X148449000Y-94389500D03*
D34*
%TO.P,U2,25,GPIO18/USB_D-*%
%TO.N,/USB_D-*%
X147761500Y-95077000D03*
%TO.P,U2,26,GPIO19/USB_D+*%
%TO.N,/USB_D+*%
X147761500Y-95577000D03*
%TO.P,U2,27,U0RXD/GPIO20*%
%TO.N,/UART0_RX*%
X147761500Y-96077000D03*
%TO.P,U2,28,U0TXD/GPIO21*%
%TO.N,/UART0_TX*%
X147761500Y-96577000D03*
%TO.P,U2,29,XTAL_N*%
%TO.N,/XTAL_N*%
X147761500Y-97077000D03*
%TO.P,U2,30,XTAL_P*%
%TO.N,/XTAL_P*%
X147761500Y-97577000D03*
%TO.P,U2,31,VDDA*%
%TO.N,+3.3VA*%
X147761500Y-98077000D03*
%TO.P,U2,32,VDDA*%
X147761500Y-98577000D03*
D35*
%TO.P,U2,33,GND*%
%TO.N,GND*%
X150199000Y-96827000D03*
%TD*%
D21*
%TO.P,C21,1*%
%TO.N,/BOOT*%
X159119600Y-70944400D03*
%TO.P,C21,2*%
%TO.N,GND*%
X160079600Y-70944400D03*
%TD*%
D18*
%TO.P,R2,1*%
%TO.N,/XTAL_OUT*%
X138312400Y-97665200D03*
%TO.P,R2,2*%
%TO.N,/XTAL_P*%
X139332400Y-97665200D03*
%TD*%
D21*
%TO.P,C10,1*%
%TO.N,+3.3V*%
X151187600Y-103354800D03*
%TO.P,C10,2*%
%TO.N,GND*%
X152147600Y-103354800D03*
%TD*%
D20*
%TO.P,R11,2*%
%TO.N,/CC1*%
X151420800Y-70536000D03*
%TO.P,R11,1*%
%TO.N,GND*%
X151420800Y-71556000D03*
%TD*%
D32*
%TO.P,L2,1,1*%
%TO.N,LNA_IN*%
X148065400Y-101907000D03*
%TO.P,L2,2,2*%
%TO.N,/ANT1*%
X148065400Y-103482000D03*
%TD*%
D31*
%TO.P,SW1,1,1*%
%TO.N,GND*%
X137654000Y-64367600D03*
%TO.P,SW1,2,2*%
%TO.N,/CHIP_EN*%
X137654000Y-67767600D03*
%TD*%
D36*
%TO.P,D3,1,K*%
%TO.N,Net-(D3-Pad1)*%
X135952100Y-77954800D03*
%TO.P,D3,2,A*%
%TO.N,+3.3V*%
X137527100Y-77954800D03*
%TD*%
D18*
%TO.P,R4,1*%
%TO.N,/UART0_TX*%
X139277600Y-86844800D03*
%TO.P,R4,2*%
X140297600Y-86844800D03*
%TD*%
%TO.P,R8,1*%
%TO.N,/BOOT*%
X159087600Y-69725200D03*
%TO.P,R8,2*%
%TO.N,+3.3V*%
X160107600Y-69725200D03*
%TD*%
D37*
%TO.P,C6,1*%
%TO.N,GND*%
X138367600Y-94563800D03*
%TO.P,C6,2*%
%TO.N,/XTAL_N*%
X138367600Y-93603800D03*
%TD*%
D38*
%TO.P,C4,1*%
%TO.N,GND*%
X138365200Y-95585000D03*
%TO.P,C4,2*%
%TO.N,/XTAL_OUT*%
X138365200Y-96545000D03*
%TD*%
D16*
%TO.P,C13,1*%
%TO.N,/ANT1*%
X148395600Y-104828000D03*
%TO.P,C13,2*%
%TO.N,GND*%
X147435600Y-104828000D03*
%TD*%
%TO.P,C11,1*%
%TO.N,LNA_IN*%
X148393000Y-100637000D03*
%TO.P,C11,2*%
%TO.N,GND*%
X147433000Y-100637000D03*
%TD*%
D21*
%TO.P,C2,1*%
%TO.N,+3.3VA*%
X154137600Y-97563600D03*
%TO.P,C2,2*%
%TO.N,GND*%
X155097600Y-97563600D03*
%TD*%
D16*
%TO.P,C8,1*%
%TO.N,/VBUS_FILTER*%
X133847600Y-85392800D03*
%TO.P,C8,2*%
%TO.N,GND*%
X132887600Y-85392800D03*
%TD*%
D21*
%TO.P,C20,1*%
%TO.N,/VBUS*%
X144105600Y-72112800D03*
%TO.P,C20,2*%
%TO.N,GND*%
X145065600Y-72112800D03*
%TD*%
D27*
%TO.P,B,1,K*%
%TO.N,Net-(D2-Pad1)*%
X161098300Y-98833600D03*
%TO.P,B,2,A*%
%TO.N,/LED B*%
X159523300Y-98833600D03*
%TD*%
D39*
%TO.P,Crystal1,1,1*%
%TO.N,/XTAL_OUT*%
X134975600Y-97292800D03*
%TO.P,Crystal1,2,2*%
%TO.N,GND*%
X134975600Y-94392800D03*
%TO.P,Crystal1,3,3*%
%TO.N,/XTAL_N*%
X132675600Y-94392800D03*
%TO.P,Crystal1,4,4*%
%TO.N,GND*%
X132675600Y-97292800D03*
%TD*%
D40*
%TO.P,C1,2*%
%TO.N,GND*%
X155892600Y-94142800D03*
%TO.P,C1,1*%
%TO.N,+3.3VA*%
X154342600Y-94142800D03*
%TD*%
D41*
%TO.P,C18,1*%
%TO.N,/VBUS FILT*%
X142073600Y-75655800D03*
%TO.P,C18,2*%
%TO.N,GND*%
X142073600Y-77205800D03*
%TD*%
D40*
%TO.P,C12,1*%
%TO.N,+3.3V*%
X149892600Y-105092800D03*
%TO.P,C12,2*%
%TO.N,GND*%
X151442600Y-105092800D03*
%TD*%
D17*
%TO.P,R9,1*%
%TO.N,Net-(D3-Pad1)*%
X134453600Y-77954800D03*
%TO.P,R9,2*%
%TO.N,GND*%
X133433600Y-77954800D03*
%TD*%
D21*
%TO.P,C3,1*%
%TO.N,+3.3VA*%
X154039600Y-92788400D03*
%TO.P,C3,2*%
%TO.N,GND*%
X154999600Y-92788400D03*
%TD*%
D42*
%TO.P,U3,1,I/O1*%
%TO.N,/USB_D+*%
X147793600Y-81499800D03*
%TO.P,U3,2,GND*%
%TO.N,GND*%
X148743600Y-81499800D03*
%TO.P,U3,3,I/O2*%
%TO.N,/USB_D-*%
X149693600Y-81499800D03*
%TO.P,U3,4,I/O2*%
%TO.N,/D+*%
X149693600Y-79224800D03*
%TO.P,U3,5,VBUS*%
%TO.N,/VBUS*%
X148743600Y-79224800D03*
%TO.P,U3,6,I/O1*%
%TO.N,/D-*%
X147793600Y-79224800D03*
%TD*%
D43*
%TO.N,GND*%
X155789600Y-113464000D03*
X151725600Y-80444000D03*
X143800800Y-70385600D03*
%TO.N,/D-*%
X149668100Y-70690400D03*
X147610800Y-70588800D03*
%TO.N,/VBUS*%
X142683200Y-73840000D03*
X148728400Y-74297200D03*
%TO.N,/CHIP_EN*%
X143038800Y-102694400D03*
X136243600Y-89423600D03*
X136942800Y-71554000D03*
X153605200Y-101983200D03*
%TO.N,GND*%
X150201600Y-97766800D03*
X150201600Y-95887200D03*
X156316477Y-97536533D03*
X162698400Y-96852400D03*
X162698400Y-102643600D03*
X138263600Y-71300000D03*
X137654000Y-62918000D03*
%TO.N,+3.3V*%
X139482800Y-77904000D03*
X139482800Y-72417600D03*
%TO.N,GND*%
X160107600Y-72112800D03*
X158990000Y-63476800D03*
X157313600Y-91874000D03*
X157313600Y-90858000D03*
X157313600Y-93550400D03*
X157313600Y-94566400D03*
D44*
%TO.N,SPI_DI*%
X145263100Y-86082800D03*
X154519600Y-88368800D03*
X145263100Y-93194800D03*
X147915600Y-93194800D03*
X147012100Y-86082800D03*
X154519600Y-86590800D03*
%TO.N,SPI_NHLD*%
X151139494Y-92702794D03*
X148931600Y-91670800D03*
D43*
%TO.N,GND*%
X142073600Y-78970800D03*
X151878000Y-101322800D03*
X151420800Y-72773200D03*
X139533600Y-85574800D03*
X133437600Y-72874800D03*
X147001200Y-72773200D03*
X136993600Y-94972800D03*
X145883600Y-100306800D03*
D44*
X151979600Y-85828800D03*
D43*
X153036509Y-104402222D03*
X146789296Y-105887940D03*
X153046400Y-70284000D03*
X146442400Y-75821200D03*
X132675600Y-99798800D03*
X133437600Y-74652800D03*
X146442400Y-77345200D03*
X133437600Y-76430800D03*
D44*
%TO.N,/VDD_SPI*%
X151821544Y-92020744D03*
X149947600Y-90908800D03*
%TD*%
D45*
%TO.N,GND*%
X155789735Y-113464135D02*
X155789600Y-113464000D01*
X155789735Y-113481922D02*
X155789735Y-113464135D01*
%TO.N,/ANT1*%
X153554735Y-113481922D02*
X148395600Y-108322787D01*
X148395600Y-108322787D02*
X148395600Y-104828000D01*
%TO.N,GND*%
X151668900Y-80387300D02*
X151725600Y-80444000D01*
X148743600Y-80938772D02*
X149295072Y-80387300D01*
X149295072Y-80387300D02*
X151668900Y-80387300D01*
X148743600Y-81499800D02*
X148743600Y-80938772D01*
D46*
%TO.N,/USB_D-*%
X149693600Y-81499800D02*
X149343600Y-81849800D01*
X149079996Y-82462300D02*
X148731100Y-82462300D01*
X148731100Y-82462300D02*
X147425600Y-83767800D01*
X146798881Y-83767800D02*
X146362600Y-84204081D01*
X147425600Y-83767800D02*
X146798881Y-83767800D01*
X147092999Y-95101999D02*
X147736501Y-95101999D01*
X149343600Y-81849800D02*
X149343600Y-82198696D01*
X149343600Y-82198696D02*
X149079996Y-82462300D01*
X147736501Y-95101999D02*
X147761500Y-95077000D01*
X146362600Y-94371600D02*
X147092999Y-95101999D01*
X146362600Y-84204081D02*
X146362600Y-94371600D01*
%TO.N,/USB_D+*%
X145912600Y-94558000D02*
X146906601Y-95552001D01*
X146612481Y-83317800D02*
X145912600Y-84017681D01*
X147239203Y-83317800D02*
X146612481Y-83317800D01*
X147793600Y-81499800D02*
X147793600Y-82763403D01*
X145912600Y-84017681D02*
X145912600Y-94558000D01*
X146906601Y-95552001D02*
X147736501Y-95552001D01*
X147736501Y-95552001D02*
X147761500Y-95577000D01*
X147793600Y-82763403D02*
X147239203Y-83317800D01*
D45*
%TO.N,GND*%
X145367600Y-68818800D02*
X143800800Y-70385600D01*
X145367600Y-68687800D02*
X145367600Y-68818800D01*
D47*
%TO.N,+3.3VA*%
X146363600Y-98782800D02*
X146747200Y-98782800D01*
X147761500Y-98077000D02*
X147453000Y-98077000D01*
X146747200Y-98782800D02*
X147555700Y-98782800D01*
X147453000Y-98077000D02*
X146747200Y-98782800D01*
X149449000Y-99264500D02*
X149449000Y-100265400D01*
X149449000Y-100265400D02*
X149449000Y-100454200D01*
X148949000Y-99264500D02*
X148949000Y-99765400D01*
X148949000Y-99765400D02*
X149449000Y-100265400D01*
X147555700Y-98782800D02*
X147761500Y-98577000D01*
%TO.N,/CHIP_EN*%
X136243600Y-89423600D02*
X134994800Y-89423600D01*
D48*
%TO.N,/VBUS_FILTER*%
X130389600Y-81510800D02*
X130288000Y-81612400D01*
X135376100Y-85295400D02*
X135795707Y-85295400D01*
X135795707Y-85295400D02*
X136485600Y-84605507D01*
D47*
%TO.N,Net-(J1-Pad4)*%
X135376100Y-86245400D02*
X131655000Y-86245400D01*
D48*
%TO.N,/VBUS_FILTER*%
X136485600Y-84605507D02*
X136485600Y-82780800D01*
D47*
%TO.N,Net-(J1-Pad2)*%
X131021000Y-84345400D02*
X130288000Y-83612400D01*
D48*
%TO.N,/VBUS_FILTER*%
X136485600Y-82780800D02*
X135215600Y-81510800D01*
X135215600Y-81510800D02*
X130389600Y-81510800D01*
D47*
%TO.N,Net-(J1-Pad2)*%
X135376100Y-84345400D02*
X131021000Y-84345400D01*
D45*
%TO.N,GND*%
X132887600Y-85392800D02*
X130507600Y-85392800D01*
X130507600Y-85392800D02*
X130288000Y-85612400D01*
D47*
%TO.N,Net-(J1-Pad4)*%
X131655000Y-86245400D02*
X130288000Y-87612400D01*
%TO.N,GND*%
X150427600Y-89892800D02*
X151217600Y-89102800D01*
X151217600Y-89102800D02*
X151217600Y-87860800D01*
D46*
%TO.N,/D-*%
X149367600Y-68687800D02*
X149368600Y-68688800D01*
X149368600Y-70060600D02*
X149668100Y-70360100D01*
X149368600Y-68688800D02*
X149368600Y-70060600D01*
X149668100Y-70360100D02*
X149668100Y-70690400D01*
D47*
%TO.N,/CC1*%
X149867600Y-68687800D02*
X149867600Y-69712800D01*
X149867600Y-69712800D02*
X150690800Y-70536000D01*
X150690800Y-70536000D02*
X151420800Y-70536000D01*
D46*
%TO.N,/D-*%
X148367600Y-69832000D02*
X147610800Y-70588800D01*
X148367600Y-68687800D02*
X148367600Y-69832000D01*
D47*
%TO.N,/CC2*%
X146239200Y-70739200D02*
X146867600Y-70110800D01*
X146867600Y-70110800D02*
X146867600Y-68687800D01*
%TO.N,/VBUS*%
X146167600Y-68687800D02*
X146167600Y-69542800D01*
X146167600Y-69542800D02*
X144105600Y-71604800D01*
X144105600Y-71604800D02*
X144105600Y-72112800D01*
D46*
%TO.N,/D-*%
X148367600Y-68687800D02*
X148367600Y-69786302D01*
X148367600Y-69786302D02*
X148518600Y-69937302D01*
%TO.N,/D+*%
X148867600Y-68687800D02*
X148867600Y-69720617D01*
X148867600Y-69720617D02*
X148968600Y-69821617D01*
X148968600Y-69821617D02*
X148968600Y-73597200D01*
X149428400Y-74587150D02*
X149343600Y-74671950D01*
X148968600Y-73597200D02*
X149018350Y-73597200D01*
X149018350Y-73597200D02*
X149428400Y-74007250D01*
X149428400Y-74007250D02*
X149428400Y-74587150D01*
X149343600Y-74671950D02*
X149343600Y-78874800D01*
X149343600Y-78874800D02*
X149693600Y-79224800D01*
%TO.N,/D-*%
X148028400Y-74587150D02*
X148028400Y-74007250D01*
X147793600Y-79224800D02*
X148143600Y-78874800D01*
X148143600Y-74702350D02*
X148028400Y-74587150D01*
X148143600Y-78874800D02*
X148143600Y-74702350D01*
X148438450Y-73597200D02*
X148518600Y-73597200D01*
X148028400Y-74007250D02*
X148438450Y-73597200D01*
X148518600Y-73597200D02*
X148518600Y-69937302D01*
D47*
%TO.N,/VBUS*%
X148728400Y-74297200D02*
X148728400Y-79209600D01*
X148728400Y-79209600D02*
X148743600Y-79224800D01*
X144359600Y-73357300D02*
X143165900Y-73357300D01*
X143165900Y-73357300D02*
X142683200Y-73840000D01*
D45*
%TO.N,GND*%
X151867600Y-69105200D02*
X151867600Y-68687800D01*
X153046400Y-70284000D02*
X151867600Y-69105200D01*
X151420800Y-72773200D02*
X151420800Y-71556000D01*
D48*
%TO.N,/D+*%
X147867600Y-68687800D02*
X147867600Y-67612800D01*
X147867600Y-67612800D02*
X148092000Y-67388400D01*
X148092000Y-67388400D02*
X148643200Y-67388400D01*
X148867600Y-67612800D02*
X148867600Y-68687800D01*
X148643200Y-67388400D02*
X148867600Y-67612800D01*
%TO.N,/VBUS*%
X151067600Y-68687800D02*
X151067600Y-67949600D01*
X151067600Y-67949600D02*
X149693600Y-66575600D01*
X147509200Y-66575600D02*
X146167600Y-67917200D01*
X149693600Y-66575600D02*
X147509200Y-66575600D01*
X146167600Y-67917200D02*
X146167600Y-68687800D01*
%TO.N,/CHIP_EN*%
X134994800Y-89423600D02*
X132646000Y-91772400D01*
X132646000Y-91772400D02*
X130846800Y-91772400D01*
X130999200Y-102694400D02*
X143038800Y-102694400D01*
X130846800Y-91772400D02*
X129576800Y-93042400D01*
X129576800Y-93042400D02*
X129576800Y-101272000D01*
X129576800Y-101272000D02*
X130999200Y-102694400D01*
X137326400Y-70233200D02*
X137326400Y-71170400D01*
X137326400Y-71170400D02*
X136942800Y-71554000D01*
X151449000Y-99827000D02*
X153605200Y-101983200D01*
X151449000Y-99264500D02*
X151449000Y-99827000D01*
D45*
%TO.N,GND*%
X151878000Y-101322800D02*
X151148000Y-100592800D01*
X151148000Y-100592800D02*
X150547600Y-100592800D01*
D48*
%TO.N,/BOOT*%
X161834800Y-78005600D02*
X159040800Y-75211600D01*
X161834800Y-93804400D02*
X161834800Y-78005600D01*
X152636500Y-95577000D02*
X160062200Y-95577000D01*
X160062200Y-95577000D02*
X161834800Y-93804400D01*
X159040800Y-75211600D02*
X159040800Y-71023200D01*
X159040800Y-71023200D02*
X159119600Y-70944400D01*
D45*
%TO.N,GND*%
X150199000Y-97764200D02*
X150201600Y-97766800D01*
X150199000Y-96827000D02*
X150199000Y-97764200D01*
X150199000Y-95889800D02*
X150201600Y-95887200D01*
X150199000Y-96827000D02*
X150199000Y-95889800D01*
X156289410Y-97563600D02*
X156316477Y-97536533D01*
X155097600Y-97563600D02*
X156289410Y-97563600D01*
X162698400Y-101324800D02*
X162698400Y-102643600D01*
X162698400Y-98067600D02*
X162698400Y-96852400D01*
D48*
%TO.N,Net-(D2-Pad1)*%
X161530000Y-98833600D02*
X161784000Y-99087600D01*
X161098300Y-98833600D02*
X161530000Y-98833600D01*
X161784000Y-99087600D02*
X162698400Y-99087600D01*
%TO.N,Net-(D1-Pad1)*%
X161123600Y-100611600D02*
X161631600Y-100611600D01*
X161631600Y-100611600D02*
X161938400Y-100304800D01*
X161938400Y-100304800D02*
X162698400Y-100304800D01*
%TO.N,/LED B*%
X155329800Y-98577000D02*
X155688000Y-98935200D01*
X152636500Y-98577000D02*
X155329800Y-98577000D01*
X159421700Y-98935200D02*
X159523300Y-98833600D01*
X155688000Y-98935200D02*
X159421700Y-98935200D01*
%TO.N,/LED A*%
X151949000Y-99264500D02*
X154188500Y-99264500D01*
X155535600Y-100611600D02*
X159548600Y-100611600D01*
X154188500Y-99264500D02*
X155535600Y-100611600D01*
D45*
%TO.N,+3.3V*%
X139482800Y-69572800D02*
X143242000Y-65813600D01*
X156450000Y-66626400D02*
X160818800Y-66626400D01*
X143242000Y-65813600D02*
X155637200Y-65813600D01*
X162292000Y-68099600D02*
X162292000Y-69420400D01*
X162292000Y-69420400D02*
X161987200Y-69725200D01*
X155637200Y-65813600D02*
X156450000Y-66626400D01*
X160818800Y-66626400D02*
X162292000Y-68099600D01*
X161987200Y-69725200D02*
X160107600Y-69725200D01*
D48*
%TO.N,/CHIP_EN*%
X137296400Y-69064800D02*
X137296400Y-68125200D01*
X137296400Y-68125200D02*
X137654000Y-67767600D01*
X137326400Y-70233200D02*
X137326400Y-69094800D01*
X137326400Y-69094800D02*
X137296400Y-69064800D01*
D45*
%TO.N,GND*%
X138286400Y-71277200D02*
X138263600Y-71300000D01*
X138286400Y-70233200D02*
X138286400Y-71277200D01*
%TO.N,+3.3V*%
X139482800Y-72417600D02*
X139482800Y-69572800D01*
X139482800Y-69572800D02*
X138974800Y-69064800D01*
X138974800Y-69064800D02*
X138316400Y-69064800D01*
%TO.N,GND*%
X137654000Y-64367600D02*
X137654000Y-62918000D01*
%TO.N,+3.3V*%
X137527100Y-77954800D02*
X139432000Y-77954800D01*
X139432000Y-77954800D02*
X139482800Y-77904000D01*
%TO.N,GND*%
X160079600Y-72084800D02*
X160107600Y-72112800D01*
X160079600Y-70944400D02*
X160079600Y-72084800D01*
X158990000Y-64774000D02*
X158990000Y-63476800D01*
D48*
%TO.N,+3.3VA*%
X151949000Y-94389500D02*
X151949000Y-94241400D01*
X151949000Y-94241400D02*
X153402000Y-92788400D01*
X153402000Y-92788400D02*
X154039600Y-92788400D01*
D47*
%TO.N,/BOOT*%
X159087600Y-69725200D02*
X159087600Y-68271600D01*
X159087600Y-68271600D02*
X158990000Y-68174000D01*
X159119600Y-70944400D02*
X159119600Y-69757200D01*
X159119600Y-69757200D02*
X159087600Y-69725200D01*
%TO.N,+3.3VA*%
X149587600Y-101612800D02*
X149867600Y-101892800D01*
X149449000Y-100454200D02*
X149587600Y-100592800D01*
X152636500Y-97577000D02*
X154124200Y-97577000D01*
X154095900Y-94389500D02*
X154342600Y-94142800D01*
X154124200Y-97577000D02*
X154137600Y-97563600D01*
X151949000Y-94389500D02*
X154095900Y-94389500D01*
X149587600Y-100592800D02*
X149587600Y-101612800D01*
%TO.N,LNA_IN*%
X148393000Y-101579400D02*
X148065400Y-101907000D01*
X148393000Y-100637000D02*
X148393000Y-101579400D01*
X148449000Y-100581000D02*
X148393000Y-100637000D01*
X148449000Y-99264500D02*
X148449000Y-100581000D01*
%TO.N,/ANT1*%
X148065400Y-104497800D02*
X148395600Y-104828000D01*
X148065400Y-103482000D02*
X148065400Y-104497800D01*
%TO.N,Net-(C16-Pad1)*%
X137267600Y-73402800D02*
X136739600Y-72874800D01*
X137267600Y-74262800D02*
X137267600Y-73402800D01*
%TO.N,Net-(D3-Pad1)*%
X134453600Y-77954800D02*
X135952100Y-77954800D01*
%TO.N,SPI_NCS*%
X152617600Y-88610800D02*
X152617600Y-89254800D01*
X149949000Y-94389500D02*
X149949000Y-94463400D01*
X149949000Y-94463400D02*
X149947600Y-94464800D01*
X149949000Y-91923400D02*
X149949000Y-94389500D01*
X152617600Y-89254800D02*
X149949000Y-91923400D01*
%TO.N,SPI_DI*%
X148239808Y-93194800D02*
X147915600Y-93194800D01*
X144867600Y-86478300D02*
X145263100Y-86082800D01*
X154261600Y-88110800D02*
X154519600Y-88368800D01*
X145263100Y-93194800D02*
X145121600Y-93194800D01*
X148949000Y-93903992D02*
X148239808Y-93194800D01*
X152741600Y-84812800D02*
X154519600Y-86590800D01*
X144867600Y-92940800D02*
X144867600Y-86478300D01*
X145121600Y-93194800D02*
X144867600Y-92940800D01*
X152617600Y-88110800D02*
X154261600Y-88110800D01*
X148949000Y-94389500D02*
X148949000Y-93903992D01*
X147012100Y-86082800D02*
X148282100Y-84812800D01*
X148282100Y-84812800D02*
X152741600Y-84812800D01*
%TO.N,SPI_NWP*%
X152995600Y-89892800D02*
X155789600Y-89892800D01*
X156297600Y-87860800D02*
X156047600Y-87610800D01*
X150449000Y-94389500D02*
X150449000Y-92439400D01*
X150449000Y-92439400D02*
X152995600Y-89892800D01*
X155789600Y-89892800D02*
X156297600Y-89384800D01*
X156297600Y-89384800D02*
X156297600Y-87860800D01*
X156047600Y-87610800D02*
X152617600Y-87610800D01*
%TO.N,SPI_DO*%
X147153600Y-93956800D02*
X147153600Y-87606800D01*
X147153600Y-87606800D02*
X147649600Y-87110800D01*
X148449000Y-94389500D02*
X147586300Y-94389500D01*
X147586300Y-94389500D02*
X147153600Y-93956800D01*
X147649600Y-87110800D02*
X149817600Y-87110800D01*
%TO.N,SPI_CLK*%
X148419600Y-87610800D02*
X149817600Y-87610800D01*
X149449000Y-93458200D02*
X147915600Y-91924800D01*
X147915600Y-91924800D02*
X147915600Y-88114800D01*
X149449000Y-94389500D02*
X149449000Y-93458200D01*
X147915600Y-88114800D02*
X148419600Y-87610800D01*
%TO.N,SPI_NHLD*%
X148935600Y-88110800D02*
X149817600Y-88110800D01*
X150949000Y-94450200D02*
X150963600Y-94464800D01*
X150949000Y-92893288D02*
X150949000Y-94389500D01*
X151139494Y-92702794D02*
X150949000Y-92893288D01*
X148931600Y-91670800D02*
X148365600Y-91104800D01*
X148365600Y-88680800D02*
X148935600Y-88110800D01*
X150949000Y-94389500D02*
X150949000Y-94450200D01*
X148365600Y-91104800D02*
X148365600Y-88680800D01*
%TO.N,/FSPI_CLK*%
X153826309Y-96428091D02*
X154140873Y-96428091D01*
X153177400Y-97077000D02*
X153826309Y-96428091D01*
X152636500Y-97077000D02*
X153177400Y-97077000D01*
%TO.N,/UART0_TX*%
X138250500Y-86844800D02*
X137651100Y-86245400D01*
X143423800Y-96577000D02*
X140377600Y-93530800D01*
X140377600Y-93530800D02*
X140377600Y-86924800D01*
X147761500Y-96577000D02*
X143423800Y-96577000D01*
X140377600Y-86924800D02*
X140297600Y-86844800D01*
X139277600Y-86844800D02*
X138250500Y-86844800D01*
%TO.N,/UART0_RX*%
X141057600Y-84822800D02*
X140377600Y-84142800D01*
X141057600Y-93448800D02*
X141057600Y-84822800D01*
X137853700Y-84142800D02*
X137651100Y-84345400D01*
X147761500Y-96077000D02*
X143685800Y-96077000D01*
X143685800Y-96077000D02*
X141057600Y-93448800D01*
X139357600Y-84142800D02*
X137853700Y-84142800D01*
%TO.N,+3.3V*%
X149867600Y-103467800D02*
X150962600Y-103467800D01*
D45*
X137267600Y-76162800D02*
X137267600Y-77695300D01*
X149867600Y-105067800D02*
X149892600Y-105092800D01*
X149867600Y-103467800D02*
X149867600Y-105067800D01*
X135262600Y-76162800D02*
X135235600Y-76189800D01*
X137267600Y-77695300D02*
X137527100Y-77954800D01*
X137267600Y-76162800D02*
X135262600Y-76162800D01*
D48*
%TO.N,GND*%
X135808600Y-75212800D02*
X135235600Y-74639800D01*
D45*
X139254200Y-85295400D02*
X139533600Y-85574800D01*
X136413600Y-94392800D02*
X136993600Y-94972800D01*
X152617600Y-86466800D02*
X152617600Y-87010800D01*
X151979600Y-85828800D02*
X152617600Y-86466800D01*
X146213800Y-100637000D02*
X147433000Y-100637000D01*
X137605800Y-95585000D02*
X136993600Y-94972800D01*
X151217600Y-86590800D02*
X151979600Y-85828800D01*
X153022087Y-104387800D02*
X153036509Y-104402222D01*
X136993600Y-94972800D02*
X137958600Y-94972800D01*
X152147600Y-104387800D02*
X151442600Y-105092800D01*
X137958600Y-94972800D02*
X138367600Y-94563800D01*
X147435600Y-105241636D02*
X146789296Y-105887940D01*
X145403600Y-99826800D02*
X146213800Y-100637000D01*
X132675600Y-97292800D02*
X132675600Y-99798800D01*
X134975600Y-94392800D02*
X136413600Y-94392800D01*
X138365200Y-95585000D02*
X137605800Y-95585000D01*
D48*
X139542600Y-75212800D02*
X135808600Y-75212800D01*
D45*
X151217600Y-87860800D02*
X151217600Y-86590800D01*
X137651100Y-85295400D02*
X139254200Y-85295400D01*
X145403600Y-98782800D02*
X145403600Y-99826800D01*
X152147600Y-104387800D02*
X153022087Y-104387800D01*
X147435600Y-104828000D02*
X147435600Y-105241636D01*
X152147600Y-103354800D02*
X152147600Y-104387800D01*
D47*
%TO.N,/VBUS_FILTER*%
X133847600Y-85392800D02*
X135278700Y-85392800D01*
X135278700Y-85392800D02*
X135376100Y-85295400D01*
D48*
%TO.N,/XTAL_N*%
X137450600Y-92686800D02*
X133691600Y-92686800D01*
D46*
X138672600Y-93603800D02*
X138367600Y-93603800D01*
X147211348Y-97177000D02*
X142245800Y-97177000D01*
X147761500Y-97077000D02*
X147311348Y-97077000D01*
D48*
X132675600Y-93702800D02*
X132675600Y-94392800D01*
X138367600Y-93603800D02*
X137450600Y-92686800D01*
D46*
X142245800Y-97177000D02*
X138672600Y-93603800D01*
X147311348Y-97077000D02*
X147211348Y-97177000D01*
D48*
X133691600Y-92686800D02*
X132675600Y-93702800D01*
D46*
%TO.N,/XTAL_P*%
X139420600Y-97577000D02*
X139332400Y-97665200D01*
X147761500Y-97577000D02*
X139420600Y-97577000D01*
D48*
%TO.N,/XTAL_OUT*%
X138365200Y-96545000D02*
X138317000Y-96496800D01*
X136959600Y-97292800D02*
X134975600Y-97292800D01*
D47*
X138374400Y-96500800D02*
X138365200Y-96491600D01*
D48*
X138312400Y-96597800D02*
X138365200Y-96545000D01*
X137755600Y-96496800D02*
X136959600Y-97292800D01*
X138312400Y-97665200D02*
X138312400Y-96597800D01*
X138317000Y-96496800D02*
X137755600Y-96496800D01*
%TO.N,/VDD_SPI*%
X149467600Y-90428800D02*
X149467600Y-89892800D01*
X152679488Y-91162800D02*
X151821544Y-92020744D01*
X149817600Y-88752800D02*
X149817600Y-88610800D01*
X151449000Y-94389500D02*
X151449000Y-93712400D01*
X149467600Y-89102800D02*
X149817600Y-88752800D01*
X149467600Y-89892800D02*
X149467600Y-89102800D01*
X149947600Y-90908800D02*
X149467600Y-90428800D01*
X151449000Y-93712400D02*
X153998600Y-91162800D01*
X153998600Y-91162800D02*
X152679488Y-91162800D01*
D47*
%TO.N,/VBUS FILT*%
X142073600Y-75655800D02*
X141566600Y-76162800D01*
X142073600Y-75655800D02*
X140680600Y-74262800D01*
X144133600Y-76176800D02*
X142594600Y-76176800D01*
X142594600Y-76176800D02*
X142073600Y-75655800D01*
X139665600Y-74385800D02*
X139542600Y-74262800D01*
X140680600Y-74262800D02*
X139542600Y-74262800D01*
X144359600Y-75950800D02*
X144133600Y-76176800D01*
X141566600Y-76162800D02*
X139542600Y-76162800D01*
X144359600Y-74932300D02*
X144359600Y-75950800D01*
%TO.N,/VBUS*%
X144105600Y-72112800D02*
X144105600Y-73103300D01*
X144105600Y-73103300D02*
X144359600Y-73357300D01*
%TD*%
%TA.AperFunction,Conductor*%
%TO.N,GND*%
G36*
X135920639Y-72386485D02*
G01*
X135966394Y-72439289D01*
X135977600Y-72490800D01*
X135977600Y-75036800D01*
X135957915Y-75103839D01*
X135905111Y-75149594D01*
X135853600Y-75160800D01*
X133945600Y-75160800D01*
X133945600Y-77505211D01*
X133931927Y-77560257D01*
X133929373Y-77563715D01*
X133926302Y-77572461D01*
X133926300Y-77572464D01*
X133925927Y-77573527D01*
X133885982Y-77687274D01*
X133883100Y-77717762D01*
X133883100Y-78191838D01*
X133885982Y-78222326D01*
X133888486Y-78229455D01*
X133888486Y-78229457D01*
X133926300Y-78337136D01*
X133926302Y-78337139D01*
X133929373Y-78345885D01*
X133931927Y-78349343D01*
X133945600Y-78404389D01*
X133945600Y-78592800D01*
X133925915Y-78659839D01*
X133873111Y-78705594D01*
X133821600Y-78716800D01*
X133053600Y-78716800D01*
X132986561Y-78697115D01*
X132940806Y-78644311D01*
X132929600Y-78592800D01*
X132929600Y-72490800D01*
X132949285Y-72423761D01*
X133002089Y-72378006D01*
X133053600Y-72366800D01*
X135853600Y-72366800D01*
X135920639Y-72386485D01*
G37*
%TD.AperFunction*%
%TD*%
%TA.AperFunction,Conductor*%
%TO.N,GND*%
G36*
X147595066Y-71477575D02*
G01*
X147640821Y-71530379D01*
X147652027Y-71581683D01*
X147655772Y-73826974D01*
X147649703Y-73865500D01*
X147647184Y-73873251D01*
X147642754Y-73881946D01*
X147641228Y-73891582D01*
X147641227Y-73891585D01*
X147639289Y-73903825D01*
X147634745Y-73922751D01*
X147627900Y-73943817D01*
X147627900Y-74650583D01*
X147630915Y-74659861D01*
X147634745Y-74671649D01*
X147639289Y-74690574D01*
X147642754Y-74712454D01*
X147647184Y-74721148D01*
X147650200Y-74730431D01*
X147647839Y-74731198D01*
X147657346Y-74770656D01*
X147659879Y-76289011D01*
X147661170Y-77062800D01*
X147661518Y-77271610D01*
X147641945Y-77338682D01*
X147627796Y-77356822D01*
X145666317Y-79439809D01*
X145606027Y-79475120D01*
X145576042Y-79478800D01*
X141435600Y-79478800D01*
X141368561Y-79459115D01*
X141322806Y-79406311D01*
X141311600Y-79354800D01*
X141311600Y-77062800D01*
X141331285Y-76995761D01*
X141384089Y-76950006D01*
X141435600Y-76938800D01*
X145121600Y-76938800D01*
X145121600Y-75300243D01*
X145124514Y-75276929D01*
X145124853Y-75276073D01*
X145135100Y-75191394D01*
X145135100Y-74673206D01*
X145124853Y-74588527D01*
X145124514Y-74587671D01*
X145121600Y-74564357D01*
X145121600Y-73725243D01*
X145124514Y-73701929D01*
X145124853Y-73701073D01*
X145135100Y-73616394D01*
X145135100Y-73098206D01*
X145124853Y-73013527D01*
X145124514Y-73012671D01*
X145121600Y-72989357D01*
X145121600Y-71581890D01*
X145141285Y-71514851D01*
X145194089Y-71469096D01*
X145245600Y-71457890D01*
X147528027Y-71457890D01*
X147595066Y-71477575D01*
G37*
%TD.AperFunction*%
%TD*%
%TA.AperFunction,Conductor*%
%TO.N,GND*%
G36*
X157917039Y-90318885D02*
G01*
X157962794Y-90371689D01*
X157974000Y-90423200D01*
X157974000Y-95001200D01*
X157954315Y-95068239D01*
X157901511Y-95113994D01*
X157850000Y-95125200D01*
X155608800Y-95125200D01*
X155541761Y-95105515D01*
X155496006Y-95052711D01*
X155484800Y-95001200D01*
X155484800Y-93347200D01*
X154897600Y-93347200D01*
X154830561Y-93327515D01*
X154784806Y-93274711D01*
X154773600Y-93223200D01*
X154773600Y-92252000D01*
X154793285Y-92184961D01*
X154846089Y-92139206D01*
X154897600Y-92128000D01*
X155129200Y-92128000D01*
X155129200Y-90442300D01*
X155148885Y-90375261D01*
X155201689Y-90329506D01*
X155253200Y-90318300D01*
X155856993Y-90318300D01*
X155879964Y-90310836D01*
X155898879Y-90306296D01*
X155922727Y-90302519D01*
X155922824Y-90303130D01*
X155947639Y-90299200D01*
X157850000Y-90299200D01*
X157917039Y-90318885D01*
G37*
%TD.AperFunction*%
%TD*%
M02*
